<svg xmlns="http://www.w3.org/2000/svg"><defs><font id="latobold_italic" horiz-adv-x="1160"><font-face units-per-em="2000" ascent="1610" descent="-390"/><glyph horiz-adv-x="0"/><glyph horiz-adv-x="0"/><glyph horiz-adv-x="666"/><glyph horiz-adv-x="438"/><glyph horiz-adv-x="438"/><glyph horiz-adv-x="438"/><glyph unicode="!" horiz-adv-x="530" d="M473 1446l-70-573q-11-91-31-178.5T326 508H165q-2 99 .5 186.5T180 873l70 573h223zM63 136q0 31 11.5 59t31.5 48 48 32 60 12q31 0 59-12t48.5-32 32.5-48 12-59q0-32-12-59.5T321.5 29 273-2.5 214-14q-32 0-60 11.5T106 29 74.5 76.5 63 136z"/><glyph unicode="&quot;" horiz-adv-x="743" d="M406 1445l-36-288-40-157q-11-42-31.5-65T236 912q-35 0-50.5 23t-19.5 65l-3 157 37 288h206zm339 0l-36-288-40-157q-11-42-31.5-65T575 912q-35 0-50.5 23t-19.5 65l-3 157 37 288h206z"/><glyph unicode="#" d="M736 865H526l-89-284h211zm446 171l-32-99q-11-38-37-55t-77-17H932l-89-284h147q36 0 50-21t0-75l-23-76H798L671 0H560q-17 0-30 8t-21 21.5-9.5 31.5 5.5 38l98 310H392L293 87q-14-48-47-67.5T175 0H68l129 409H78q-37 0-50.5 22t.5 75l22 75h192l88 284H114l29 98q12 38 38 55.5t78 17.5h117l102 328q13 38 43.5 59.5T590 1445h110l-128-409h209l128 409h107q36 0 55.5-24t7.5-60l-101-325h204z"/><glyph unicode="$" d="M647 1256q-63-7-108-26t-73.5-46.5-42-62T410 1049q0-33 12-59.5t33-47 50-37 64-29.5zM575 185q123 14 187.5 80.5T827 434q0 34-12.5 60.5t-35 46.5-53 35-66.5 28zm488 1021q-16-20-30.5-29.5T998 1167q-15 0-34 10t-44 24-56.5 28.5T793 1252l-86-423q64-21 127-45.5T947.5 721t81.5-93 31-136q0-98-36.5-186T919 149.5t-165.5-112T534-14l-31-151q-4-23-24.5-41.5T431-225h-88l44 215Q272 6 175.5 54T16 174l87 109q11 14 28 23t36 9q22 0 44.5-16t52-37 69-42.5T428 188l94 459q-63 19-124.5 44T288 755t-78 97-30 144q0 87 35 168t101 144.5 160 104 212 45.5l26 127q4 24 24.5 42.5T786 1646h88l-40-195q104-17 175.5-59.5T1131 1293z"/><glyph unicode="%" horiz-adv-x="1523" d="M758 1150q0-96-31-172.5t-81.5-130-115.5-82T398 737q-60 0-109.5 21.5T204 820t-54.5 96.5T130 1043q0 95 28 172t76.5 131 114 83.5T488 1459q60 0 110-21.5t85.5-62 55-97.5 19.5-128zm-185-1q0 84-29.5 120t-75.5 36q-33 0-61-14.5t-49-46-32.5-81T314 1043q0-41 7.5-70t21.5-47 33-26 42-8q32 0 60.5 13.5t49.5 44 33 79.5 12 120zm657 258q14 14 32.5 26t49.5 12h173L319 36q-14-15-32.5-25.5T242 0H66zm190-1012q0-96-31-172.5t-81-130-115-82T1061-18q-60 0-110 22t-85 61.5-54.5 96T792 287q0 96 28 173.5T896.5 592t114 83.5T1150 705q60 0 110-22t85.5-62.5 55-97.5 19.5-128zm-185-1q0 84-29.5 119.5T1131 549q-33 0-61.5-14.5t-49.5-46-32.5-81T976 287q0-81 29-116t75-35q33 0 61 13.5t49 44 33 80 12 120.5z"/><glyph unicode="&amp;" horiz-adv-x="1337" d="M453 673q-89-58-127-132.5T288 381q0-97 51-152t148-55q72 0 138.5 29T750 283zM1264 0h-206q-29 0-50 3.5t-37 12T941.5 37 913 69l-52 69Q768 65 661 24.5T436-16q-92 0-165 25.5t-124 73-78 115T42 349q0 77 24.5 145.5t68 126 103 103.5T366 802q-32 63-47 125t-15 119q0 85 30 160.5t85 132 133.5 89.5 176.5 33q82 0 145.5-26t106-70.5 64-102.5 20.5-122l-143-28q-30-6-46 2t-24 35q-6 27-18 50.5t-30 41.5-42 28-55 10q-42 0-75.5-17t-57-46.5-36-69T526 1062q0-48 18.5-99T604 855l296-383q33 60 56.5 125T993 730q5 23 17 37t36 14h167q-17-133-65.5-252.5T1026 309z"/><glyph unicode="'" horiz-adv-x="404" d="M406 1445l-36-288-40-157q-11-42-31.5-65T236 912q-35 0-50.5 23t-19.5 65l-3 157 37 288h206z"/><glyph unicode="(" horiz-adv-x="533" d="M276 433q0-69 6-146t17.5-154T328-18t40-137q15-39 2-60t-35-34l-113-63q-41 85-70 177T104.5 50.5 77 236.5 68 415q0 149 18.5 289.5T149 985t118 283.5T452 1567l99-63q9-6 16-14.5t9.5-19.5-1-26-16.5-34q-65-110-117.5-223T352 954t-56.5-249.5T276 433z"/><glyph unicode=")" horiz-adv-x="532" d="M260 821q0 69-6 146t-18 154.5-29 151.5-39 137q-15 39-2 60t35 34l113 63q40-85 69.5-176.5t48-185.5 27.5-186.5 9-178.5q0-149-18.5-289.5T387 270 268.5-13.5 83-312l-97 63q-9 6-16.5 14.5t-10 19.5 1 25.5T-23-155Q43-45 95 69.5T184 305t56.5 249.5T260 821z"/><glyph unicode="*" horiz-adv-x="792" d="M623 1205q-40-22-74-28 34-4 67-28l132-94-67-96-133 94q-32 21-50 43 8-32 3-70l-23-186H364l23 184q2 20 6.5 38t12.5 34q-12-12-27.5-22.5T346 1053l-155-94-44 97 155 93q19 11 37.5 18.5t38.5 9.5q-37 6-69 28l-133 94 69 97 133-95q31-19 50-45-9 32-4 72l24 186h113l-23-184q-2-20-7-38.5t-14-35.5q25 27 62 45l155 94 44-97z"/><glyph unicode="+" d="M1063 583H673l-51-414H427l51 414H90l22 177h388l51 412h194l-51-412h392z"/><glyph unicode="," horiz-adv-x="470" d="M62-245q-18 15-18 36 0 14 17 33.5T99.5-130 142-71t30 74q-32 0-57.5 11.5T70 46 41 93t-10 59q0 28 10.5 52.5t29.5 43 45.5 29T175 287q38 0 66.5-13.5t47-37 28-54T326 118q0-48-14.5-101T269-89t-69-103-95-92z"/><glyph unicode="-" horiz-adv-x="694" d="M117 703h481l-26-199H93z"/><glyph unicode="." horiz-adv-x="476" d="M31 136q0 31 11.5 59t32 48 48.5 32 60 12q31 0 59-12t48.5-32 32.5-48 12-59q0-32-12-59.5T290.5 29 242-2.5 183-14q-32 0-60 11.5T74.5 29t-32 47.5T31 136z"/><glyph unicode="/" horiz-adv-x="859" d="M207-7q-22-44-60.5-67T71-97H-30l702 1468q20 40 55 62t77 22h101z"/><glyph unicode="0" d="M1095 881q0-227-47.5-395.5T919 205.5 730 39 501-16q-91 0-166.5 36T205 128.5 121 310 91 564q0 227 47 395.5t127 280T452.5 1406t229.5 55q91 0 166.5-36T979 1316.5t85.5-181.5 30.5-254zm-245 12q0 104-15.5 174.5t-42 114-61 62.5-73.5 19q-40 0-79.5-15.5T503 1198t-67-89-53.5-134.5-35-184.5T335 550q0-103 15.5-173.5T392 263t60.5-62 72.5-19q60 0 118 35t104 118 74.5 219T850 893z"/><glyph unicode="1" d="M953 178L930 0H189l22 178h267l106 862q3 23 6.5 47.5t8.5 49.5L393 961q-18-14-35.5-17.5t-32-.5-25 10.5T285 970l-62 103 453 374h196L717 178h236z"/><glyph unicode="2" d="M902 222q38 0 58-22t16-58L958 0H40l10 79q3 24 15.5 50.5T104 178l454 443q67 64 116.5 120.5t82.5 111T806.5 963t16.5 120q0 87-43 132t-120 45q-39 0-73.5-13t-63-36-50-54.5T439 1088q-22-45-50-59.5t-76-6.5l-123 22q27 103 76.5 181.5t116 130.5 147 78.5T699 1461q85 0 153.5-25.5T969 1363t74-113 26-146q0-91-26.5-166.5t-72-143-106-131T736 534L386 190q50 14 99.5 23t91.5 9h325z"/><glyph unicode="3" d="M195 1044q27 103 76.5 181.5t116 130.5 147 78.5T704 1461q86 0 153-25t113.5-69.5T1041 1262t24-130q0-80-17-140.5T998 886t-81.5-75T806 762q103-38 153.5-110t50.5-177q0-117-43-208.5T852 112 687 16.5 494-16q-99 0-170.5 25.5t-121 74T122 203 74 365l110 44q44 17 79 9.5t47-39.5q13-34 29-69t39-63 56.5-45.5T516 184q61 0 108.5 24.5t80.5 65 50 92.5 17 108q0 39-12 72t-43 57-84.5 38T495 655l21 170q86 1 145.5 18.5t96.5 51 53.5 81.5 16.5 110q0 85-43 129.5T665 1260q-39 0-73.5-13t-63-36-50.5-54.5-35-68.5q-22-45-50-59.5t-76-6.5z"/><glyph unicode="4" d="M690 541l60 490q3 27 8.5 58t13.5 64L291 541h399zm370 0l-17-137q-2-20-16.5-34T989 356H875L831 0H624l44 356H110q-23 0-39.5 14.5T52 408L42 529l741 917h226L898 541h162z"/><glyph unicode="5" d="M1070 1445l-13-101q-6-51-42-83t-112-32H549l-88-310q45 10 85 14t78 4q95 0 166-29.5T908.5 827 980 706.5t24-149.5q0-128-44.5-233t-121-181T659 25.5 438-16q-63 0-118 13.5t-102 37-85.5 54T64 152l86 101q28 32 65 32 24 0 46-16t50.5-34.5T379 200t98-16q72 0 125.5 27.5t89 74.5T745 395.5 763 528q0 100-54 157t-160 57q-47 0-96-9t-100-28l-143 42 198 698h662z"/><glyph unicode="6" horiz-adv-x="1067" d="M527 179q58 0 108 23.5t87.5 65.5 59 99.5T803 493q0 53-14.5 95.5t-41.5 72-65.5 45.5-86.5 16q-57 0-106-24t-85-66-56.5-100T327 406q0-50 12.5-92t37.5-72 62.5-46.5T527 179zm47 739q-13-15-25.5-29T524 861q39 19 83 29t93 10q69 0 131.5-24t110-70.5T1017 690t28-160q0-76-18.5-146T974 253.5t-82.5-110-108-85T654 3.5 507-16q-96 0-171.5 31.5T208 104t-79.5 136T101 415q0 66 13.5 128.5t40 124.5T221 792.5 315 922l372 467q20 23 56 39.5t78 16.5h212z"/><glyph unicode="7" d="M1151 1445l-12-103q-6-46-20-74.5t-25-48.5L458 81q-21-34-53-57.5T322 0H149l644 1116q22 34 43.5 61.5T883 1229H255q-21 0-35.5 17t-12.5 38l20 161h924z"/><glyph unicode="8" d="M525 170q62 0 109 21.5t79 60 48.5 91.5T778 459q0 97-51.5 146T584 654q-54 0-100-16t-80-50.5-53-88T332 371q0-43 12-80t36-64 60.5-42 84.5-15zm137 1111q-56 0-97-20.5t-68-55.5-40-81.5-13-98.5q0-35 8.5-68t27.5-58.5 50-41 77-15.5q56 0 97.5 20.5t68.5 56 40.5 83T827 1103q0 36-9.5 68t-30 56.5-51.5 39-74 14.5zm158-529q105-38 154-113.5t49-181.5q0-108-39-195.5t-108.5-149-165-95T503-16q-96 0-173 26.5T198.5 85t-84 116T85 353q0 150 69.5 253.5T374 756q-81 39-121.5 108.5T212 1027t36 172 99.5 137.5 150 91.5 186.5 33q85 0 154.5-26.5t119-73 76-109.5 26.5-135q0-130-60.5-223.5T820 752z"/><glyph unicode="9" d="M403 965q0-98 48-152t139-54q59 0 106.5 22.5t80.5 62 51 92.5 18 114q0 102-52 159t-140 57q-56 0-102-22t-79-62-51.5-95.5T403 965zm236-402q17 20 33 39.5t31 38.5q-49-31-104.5-46.5T483 579q-62 0-120 23t-103 68.5-72 112T161 936q0 108 39.5 204t109 167 165 112.5T681 1461q93 0 166-30.5t123.5-84.5 76.5-129 26-164q0-77-14.5-144.5T1017 779t-66-122.5T863 532L503 55q-19-23-53-39T374 0H154z"/><glyph unicode=":" horiz-adv-x="518" d="M52 136q0 31 11.5 59t32 48 48.5 32 60 12q31 0 59-12t48.5-32 32.5-48 12-59q0-32-12-59.5T311.5 29 263-2.5 204-14q-32 0-60 11.5T95.5 29t-32 47.5T52 136zm80 713q0 31 11.5 59t32 48 48.5 32 60 12q31 0 59-12t48.5-32 32.5-48 12-59q0-32-12-59.5T391.5 742 343 710.5 284 699q-32 0-60 11.5T175.5 742t-32 47.5T132 849z"/><glyph unicode=";" horiz-adv-x="541" d="M100-245q-18 15-18 36 0 14 17 33.5t38.5 45.5T180-71t30 74q-32 0-57.5 11.5T108 46 79 93t-10 59q0 28 10.5 52.5t29.5 43 45.5 29T213 287q38 0 66.5-13.5t47-37 28-54T364 118q0-48-14.5-101T307-89t-69-103-95-92zm43 1094q0 31 11.5 59t32 48 48.5 32 60 12q31 0 59-12t48.5-32 32.5-48 12-59q0-32-12-59.5T402.5 742 354 710.5 295 699q-32 0-60 11.5T186.5 742t-32 47.5T143 849z"/><glyph unicode="&lt;" d="M1011 1137l-22-176q-2-20-14-36.5T938 896L552 710q-25-11-51.5-20T444 674q55-14 99-36l341-187q21-11 29-28t6-37l-23-176-740 414 8 75h1l3 25z"/><glyph unicode="=" d="M134 586h882l-22-177H111zm43 350h882l-21-178H155z"/><glyph unicode="&gt;" d="M1019 724l-12-100-844-414 23 176q2 20 13.5 37t37.5 28l385 187q49 22 108 36-56 13-99 36L291 896q-22 12-29.5 28.5T256 961l21 176z"/><glyph unicode="?" horiz-adv-x="861" d="M149 1314q36 30 77 56.5t87.5 47 99 32T524 1461q78 0 138.5-22.5T764 1377t62-91.5 21-112.5q0-84-22.5-143t-57-101.5-76-73.5-80.5-60.5-70-61.5-44-77l-40-148H292l5 164q1 50 26 89t61.5 72 79 63.5T542 961t60 74 24 93q0 65-36.5 102.5T480 1268q-52 0-89-13t-64-28.5-46.5-28.5-34.5-13q-18 0-27.5 6.5T200 1215zm51-1178q0 31 11.5 59t31.5 48 48 32 60 12 59.5-12 48-32 32.5-48 12-59q0-32-12-59.5T458.5 29t-48-31.5T351-14 291-2.5 243 29t-31.5 47.5T200 136z"/><glyph unicode="@" horiz-adv-x="1544" d="M961 806q-29 6-58 6-60 0-115.5-31T689 699t-68.5-116.5T595 448q0-51 20.5-80t60.5-29q23 0 47.5 8.5t48 29.5 46 56 40.5 89zm82-260q-22-65-27-106.5t3-65.5 26.5-33 43.5-9q45 0 86 34t72.5 94 50.5 142 19 178q0 108-30.5 191.5t-87 140-137 85.5-179.5 29q-133 0-248.5-57t-201-158T299 772t-49-300q0-136 37.5-240t105-174.5T555-49.5 765-86q72 0 133.5 8t112 21.5T1101-26t68 34q22 12 38.5 14t28-3.5T1254 3t11-22l17-68q-104-68-236.5-111T748-241q-152 0-276 49.5t-211.5 141T125 171 77 463q0 125 30 241.5T191 923t130 185.5T488.5 1252t196.5 93 217 33q120 0 226.5-41.5t185.5-119 125-188.5 46-249q0-126-35.5-234.5t-96-189T1211 230t-175-46q-62 0-107 31.5T873 317q-63-71-128-101.5T609 185q-51 0-88.5 18T458 253t-37 75.5-12 93.5q0 61 16 124.5T472.5 670t78 112.5 107.5 92T794.5 937 959 960q37 0 67.5-3t56.5-8.5 49-13.5 46-19z"/><glyph unicode="A" horiz-adv-x="1300" d="M852 544l-98 495q-6 34-14 79t-16 98q-20-53-39-98t-34-80L432 544h420zM1229 0h-201q-34 0-52.5 16.5T949 59l-60 302H350L216 59q-11-23-35.5-41T124 0H-80l699 1446h265z"/><glyph unicode="B" horiz-adv-x="1228" d="M607 202q69 0 119.5 19t82.5 53.5 47.5 83T872 464q0 79-50 126t-164 47H414l-53-435h246zM489 1246l-53-430h192q134 0 206.5 63t72.5 193q0 91-51.5 132.5T695 1246H489zm230 200q120 0 205.5-23.5t140-66.5 80.5-104 26-136q0-62-16.5-118.5T1103 893t-89-86-129-63q123-31 183-100.5t60-176.5q0-100-37-185.5t-107-148-170.5-98T586 0H77l178 1446h464z"/><glyph unicode="C" horiz-adv-x="1241" d="M685 204q61 0 106 9.5t79 24.5 57.5 31.5T969 301t32 24.5 28 9.5q13 0 21-5t13-10l91-113Q1060 99 933 41.5T641-16q-134 0-238 47.5T227.5 163t-109 199T81 613q0 125 27 236.5t77 206T304.5 1225t155 128 184 81 205.5 28q79 0 144-14.5t117.5-40.5 95-62.5 76.5-81.5l-90-108q-10-12-23.5-21t-33.5-9q-22 0-42 18t-50.5 39.5-79 39.5-127.5 18q-104 0-193.5-42.5T487 1076 383.5 885.5 346 635q0-101 25.5-181t71-135.5 107.5-85T685 204z"/><glyph unicode="D" horiz-adv-x="1416" d="M1361 820q0-180-58-331t-161.5-259.5T896 60.5 586 0H77l178 1446h510q138 0 248.5-47t187.5-130 118.5-198 41.5-251zm-266-6q0 97-24 176t-69.5 134.5T890 1210t-151 30H491L363 207h249q109 0 198 42t152.5 120.5 98 191T1095 814z"/><glyph unicode="E" horiz-adv-x="1073" d="M491 1239l-51-411h457l-25-199H415l-52-422h584L921 0H77l178 1446h843l-26-207H491z"/><glyph unicode="F" horiz-adv-x="1062" d="M491 1239l-55-440h492l-28-207H411L338 0H77l178 1446h843l-26-207H491z"/><glyph unicode="G" horiz-adv-x="1355" d="M819 721h450l-72-581Q1087 60 960 22T670-16q-133 0-241.5 48t-186 133.5-119.5 203T81 625q0 122 27 231.5t76.5 202.5T304 1226.5t156 127 186.5 80.5 210.5 28q88 0 159.5-15.5T1146 1404t104-63 82-76l-84-108q-20-28-49-34.5t-59 13.5q-29 19-58 37.5t-63.5 33.5-78.5 24-103 9q-108 0-198-43.5t-155-123-101-191T347 634q0-104 26.5-186T448 309t115.5-87.5T714 191q82 0 144 15.5T977 251l33 275H850q-25 0-37.5 13.5T802 573z"/><glyph unicode="H" horiz-adv-x="1435" d="M1386 1446L1208 0H946l79 635H416L338 0H77l178 1446h261l-77-627h608l78 627h261z"/><glyph unicode="I" horiz-adv-x="564" d="M338 0H77l176 1446h261z"/><glyph unicode="J" horiz-adv-x="818" d="M665 501q-15-120-54-216T509.5 122.5 361 20 166-16q-54 0-102.5 6.5T-36 11l19 152q3 21 15 35t38 14q23 0 53.5-7t76.5-7 85.5 16 70.5 51.5 52.5 92T405 495l116 951h259z"/><glyph unicode="K" horiz-adv-x="1283" d="M437 835h56q35 0 59.5 10.5T597 880l418 510q25 33 54.5 44.5t68.5 11.5h223L849 841q-22-28-44-46.5T759 765q29-12 51.5-32.5T850 677L1218 0H989q-23 0-39 3.5t-27.5 10-19 16T890 51L592 590q-13 27-35.5 38T491 639h-78L335 0H77l176 1447h260z"/><glyph unicode="L" horiz-adv-x="966" d="M888 215L863 0H77l178 1446h259L362 215h526z"/><glyph unicode="M" horiz-adv-x="1758" d="M1709 1446L1531 0h-228l116 942q4 26 9.5 56t12.5 62L944 236q-17-28-42.5-42T846 180h-36q-30 0-52.5 14T725 236l-298 824q-1-31-2.5-60t-4.5-54L306 0H77l178 1446h195q17 0 28.5-1.5t20.5-6 17-13 17-21.5l299-826q18-53 30-108 13 28 26.5 55t29.5 53l502 826q12 13 21.5 21.5t19.5 13 22 6 29 1.5h197z"/><glyph unicode="N" horiz-adv-x="1435" d="M1386 1446L1208 0h-134q-30 0-49.5 10.5T988 45l-560 988q-2-25-4-47.5t-4-42.5L306 0H77l178 1446h136q17 0 28.5-1.5t20.5-6 16-12.5 15-22l563-987q2 30 4.5 57.5t5.5 50.5l113 921h229z"/><glyph unicode="O" horiz-adv-x="1506" d="M1453 820q0-120-26.5-228.5T1351 390t-119-168-156.5-128T888 12.5 676-16q-138 0-248 49T240.5 168 122 371 81 625q0 120 26.5 228.5t76 201.5 119 168 156 128.5 187.5 82 213 28.5q138 0 248-49t187-135 118-203.5 41-254.5zm-266-6q0 98-24.5 178t-71 137-113.5 88-151 31q-108 0-196.5-44T479 1079t-97.5-195T347 631q0-98 24-178t70-136.5 112.5-87T705 199q109 0 198 44t152 124 97.5 193.5T1187 814z"/><glyph unicode="P" horiz-adv-x="1162" d="M604 714q77 0 133 23t92.5 64.5 54 98.5 17.5 126q0 49-14 90t-43 69.5-72.5 44.5-103.5 16H488l-65-532h181zm89 732q123 0 211.5-29.5T1050 1334t84.5-125.5T1162 1049q0-116-36.5-214.5t-109.5-170-182.5-112T578 512H398L335 0H77l176 1446h440z"/><glyph unicode="Q" horiz-adv-x="1506" d="M347 631q0-98 24-178t70-136.5 112.5-87T705 199q109 0 198 44t152 124 97.5 193.5T1187 814q0 98-24.5 178t-71 137-113.5 88-151 31q-108 0-196.5-44T479 1079t-97.5-195T347 631zM871 8q-93-24-195-24-138 0-248 49T240.5 168 122 371 81 625q0 120 26.5 228.5t76 201.5 119 168 156 128.5 187.5 82 213 28.5q138 0 248-49t187-135 118-203.5 41-254.5q0-115-24.5-220T1358 404.5t-110.5-165T1102 111l289-395h-212q-46 0-81.5 12.5T1036-225z"/><glyph unicode="R" horiz-adv-x="1199" d="M577 755q78 0 134.5 22.5t93.5 62 55 92.5 18 114q0 94-58.5 147T640 1246H488l-60-491h149zm87 691q125 0 214.5-26.5t146.5-74 84-113.5 27-145q0-83-23.5-157T1045 796 937 691t-145-70q23-14 41.5-34t32.5-48L1124 0H891q-67 0-89 52L590 521q-12 26-29.5 37.5T506 570H405L335 0H77l176 1446h411z"/><glyph unicode="S" horiz-adv-x="1031" d="M941 1186q-14-20-27.5-29.5T880 1147t-41 16-50 35.5-69 35.5-96 16q-54 0-96-16t-70.5-44-43-66-14.5-82q0-46 23.5-76.5T485 912t87-41 99.5-38 99.5-46 87-64 61.5-91.5T943 502q0-106-37-200T801 137.5t-166-112T416-16q-63 0-124 13.5T177 36 77 96t-80 78l92 124q11 14 28 23t34 9q16 0 31.5-10t34-24.5 40-32 49-32 63-24.5 80.5-10q114 0 178 64t64 177q0 50-23 82t-61 54-86.5 38.5-98.5 35-98.5 43-86.5 63-61 94.5-23 138q0 93 34.5 179t99 151.5 156 105T649 1461q59 0 113.5-12t101.5-34 86.5-52.5 68.5-67.5z"/><glyph unicode="T" horiz-adv-x="1114" d="M1158 1233H763L611 0H353l150 1233H106l26 213h1053z"/><glyph unicode="U" horiz-adv-x="1383" d="M642 208q70 0 128.5 26.5t102.5 75T945.5 426 984 577l106 869h260l-107-869q-16-128-68-237t-133.5-188-190-123.5T614-16 387.5 28.5 228 152t-87 188-9 237l104 869h260L390 578q-10-83 1.5-151.5t44-117 84-75T642 208z"/><glyph unicode="V" horiz-adv-x="1298" d="M1406 1446L691 0H456L96 1446h209q34 0 53.5-16.5T383 1387l194-901q11-42 20-91.5T613 291q17 54 37 103.5t41 91.5l412 901q10 22 35.5 40.5t57.5 18.5h210z"/><glyph unicode="W" horiz-adv-x="1937" d="M2024 1446L1433 0h-235l-163 1002q-3 20-6 42.5t-5 47.5q-9-25-17.5-47.5T990 1002L581 0H348L112 1446h203q34 0 54.5-16.5T394 1387l127-887q3-32 5.5-69t4.5-77q13 40 26 77t27 69l360 887q11 22 35.5 40.5t56.5 18.5h61q34 0 53-16.5t27-42.5l144-887q5-31 9.5-67t7.5-75q11 39 22 74.5t22 67.5l343 887q4 12 13 22.5t21.5 18.5 28 13 31.5 5h205z"/><glyph unicode="X" horiz-adv-x="1261" d="M832 784L1195 0H962q-26 0-40.5 14T899 45L649 624q-9-17-19-32L256 45q-17-25-37.5-35T175 0H-84l558 773-326 673h235q26 0 38-7.5t20-25.5l221-498q5 10 11 20t13 21l308 454q24 36 59 36h271z"/><glyph unicode="Y" horiz-adv-x="1215" d="M731 564L661 0H402l70 562-377 884h231q34 0 53-16t28-43l186-500q13-37 22-71.5t16-66.5q16 33 34.5 66.5T706 887l311 500q14 23 37 41t55 18h215z"/><glyph unicode="Z" horiz-adv-x="1122" d="M1163 1365q-3-17-10.5-32t-18.5-30L335 207h670L979 0H-37l10 79q2 17 10 32t18 30l801 1098H160l25 207h989z"/><glyph unicode="[" horiz-adv-x="597" d="M648 1451q-3-24-23-42t-47-18H456L266-152h123q28 0 43-17.5t12-43.5l-12-92H49l227 1850h383z"/><glyph unicode="\" horiz-adv-x="852" d="M157 1455h101q43 0 71.5-22t39.5-62L711-97H611q-38 0-71 23T496-7z"/><glyph unicode="]" horiz-adv-x="597" d="M321-305H-62l12 92q3 26 22.5 43.5T19-152h123l190 1543H209q-28 0-43 18t-13 42l13 94h383z"/><glyph unicode="^" d="M1082 777H901q-23 0-37.5 12T839 818l-158 289q-16 28-28 53t-21 51q-14-49-45-104L432 818q-9-17-24.5-29T366 777H176l373 669h160z"/><glyph unicode="_" horiz-adv-x="889" d="M717-138l-20-155H-28l19 155h726z"/><glyph unicode="`" horiz-adv-x="736" d="M452 1462q36 0 53-13.5t28-39.5l103-243H507q-26 0-41.5 7.5T436 1201l-198 261h214z"/><glyph unicode="a" horiz-adv-x="1042" d="M720 864q-14 1-26.5 1.5t-24.5.5q-83 0-154-38T392.5 725.5t-81-150T282 395q0-108 34-158t93-50q41 0 80.5 28.5t75 78 65 116.5T681 554zm-68-650Q584 109 498.5 47T312-15q-58 0-108.5 23t-88 68.5-59 114T35 351t23 179 65.5 163.5T226 834t134.5 110 161 71.5T704 1041q69 0 138.5-10T978 995L855 0H724q-47 0-63.5 23.5T644 82z"/><glyph unicode="b" horiz-adv-x="1078" d="M309 240q34-37 78-52t87-15q66 0 120 41t92.5 107T746 469.5 767 635q0 108-35 160.5T634 848q-41 0-83-27.5t-81-76T397.5 630 340 488zm72 583q72 101 160.5 160t188.5 59q64 0 116-23.5t89-70.5 57-119 20-169q0-87-18-171t-50.5-159T865 192 763.5 83t-119-72T513-15q-78 0-140 31.5T269 102l-8-34q-11-35-29-51.5T174 0H40l180 1486h242z"/><glyph unicode="c" horiz-adv-x="907" d="M831 182q-51-56-97.5-94T639 27 538.5-5.5 423-15q-89 0-159.5 30.5T144 102 69 237 43 413q0 83 18 162t52 149 82 128 108 100 130.5 65.5T583 1041q102 0 173.5-36T883 897l-79-94q-8-9-20-16.5t-26-7.5q-17 0-30.5 10.5t-32 22.5-46 22.5T578 845q-57 0-109-31t-92-88-63.5-137T290 412q0-113 50-174.5T476 176q38 0 67 8t51.5 19.5 39.5 25 32 25 28.5 19.5 29.5 8q13 0 24.5-6.5T769 258l62-76z"/><glyph unicode="d" horiz-adv-x="1079" d="M744 787q-34 37-78 52t-87 15q-66 0-120-41t-92.5-107T307 557.5 286 392q0-108 35.5-160.5T420 179q40 0 82 27.5t81 76T655.5 397 713 539zm329 699L889 0H758q-47 0-63.5 23.5T678 82l9 143q-37-55-79-99.5T520 50 424.5 2 323-15q-64 0-116 23.5T118 79 61 198 41 368q0 87 18 170.5T110 697t78.5 138T290 944t119.5 72 131.5 26q69 0 125-25t98-69l67 538h242z"/><glyph unicode="e" horiz-adv-x="974" d="M575 868q-50 0-93-20.5T404.5 790t-60-88.5T304 589q124 17 199.5 37.5t116.5 44 54.5 51T688 779q0 15-6.5 31t-20 28.5-35 21T575 868zM283 418q0-242 205-242 44 0 78 8.5t59.5 20.5 46 27 38 27 34.5 20.5 37 8.5q12 0 23.5-6t20.5-16l63-76q-53-53-104-92T680 34 568-3 440-15q-90 0-163 30.5t-125 86-80.5 134T43 411q0 81 17.5 159T111 718t81 129 108.5 102 133 67 155.5 24q80 0 140.5-23t101-59.5T891 876t20-88q0-69-27.5-126t-98-102T593 482.5 283 431v-13z"/><glyph unicode="f" horiz-adv-x="662" d="M448 841L351 42l-51-188q-15-48-44-74.5T173-247H74L205 841l-79 14q-23 5-38 19.5T77 917l12 100h138l9 76q11 88 46.5 158t90 119 125.5 75 153 26q64 0 118-19l-22-128q-5-23-28-27.5t-52-4.5q-40 0-73.5-11t-59-35.5-42-64T469 1085l-8-68h230l-23-176H448z"/><glyph unicode="g" horiz-adv-x="1005" d="M368-189q56 0 102 14t79 39 51 59 18 73q0 14-1.5 27.5T613 49Q495 69 411 66T274 45 196-3t-25-64q0-60 48.5-91T368-189zm89 670q45 0 79 21t57.5 55 35.5 76.5 13 86.5q0 75-35.5 115T504 875q-45 0-79-19.5t-57-52-34.5-74.5-11.5-87q0-77 35-119t100-42zm565 508l-11-80q-7-48-49-64l-105-27q5-20 7.5-42.5T867 729q0-46-10-82.5T832.5 579 801 520.5t-31.5-56-24.5-60-10-69.5q0-41 17-75.5t37-70.5 37-77 17-95q-1-76-35-144.5t-97.5-120T555-329t-208-30q-94 0-170 19.5T48-285t-82 82.5T-63-98q0 70 30 122t80 87.5T162 168t135 30 140 7 130-12q-9 30-9 65 0 58 32 128-38-26-86.5-40T387 332q-58 0-110.5 19T184 409t-63.5 97.5T97 643q0 75 28 146.5t83 128 136 90.5 188 34q57 0 108.5-13t94.5-40h287z"/><glyph unicode="h" horiz-adv-x="1082" d="M390 852q75 96 162.5 143t178.5 47q65 0 116.5-26t84.5-75.5 46.5-122T980 653L902 0H656l77 653q13 100-10.5 144T637 841q-38 0-79-21.5t-79-61-71-95.5-56-125L287 0H40l180 1486h247z"/><glyph unicode="i" horiz-adv-x="490" d="M416 1026L293 0H50l123 1026h243zm63 299q0-32-13.5-60t-35.5-49-50-33.5-58-12.5q-29 0-56 12.5t-48 33.5-33.5 49-12.5 60 13 61 34 50.5 48.5 34T324 1483q30 0 58-12.5t49.5-33.5 34.5-50 13-62z"/><glyph unicode="j" horiz-adv-x="488" d="M415 1026L286-35q-8-67-33.5-126T184-264.5t-103.5-70T-58-360q-40 0-68 4.5t-56 14.5l24 133q5 20 18.5 25.5T-92-177q33 0 56.5 7.5t39.5 24T29.5-102 44-35l129 1061h242zm55 299q0-32-13.5-60t-35.5-49-50-33.5-58-12.5q-29 0-56 12.5t-48 33.5-33.5 49-12.5 60 13 61 34 50.5 48.5 34T315 1483q30 0 58-12.5t49.5-33.5 34.5-50 13-62z"/><glyph unicode="k" horiz-adv-x="1001" d="M464 1486L360 635h25q23 0 37.5 7t30.5 26l273 315q17 21 36 32t48 11h220L692 645q-36-44-78-69 19-14 32.5-34t24.5-44L924 0H710q-27 0-45 9.5T636 44L437 433q-11 23-23.5 30t-40.5 7h-34L282 0H38l183 1486h243z"/><glyph unicode="l" horiz-adv-x="477" d="M43 0l180 1486h244L286 0H43z"/><glyph unicode="m" horiz-adv-x="1586" d="M40 0l124 1027h126q39 0 60.5-19t21.5-61l-5-113q69 105 150 156.5t169 51.5q94 0 149-63t64-182q72 126 159.5 185.5T1249 1042q65 0 114-26t80-75.5 42-122-1-165.5L1407 0h-244l77 653q13 100-5.5 143.5T1160 840q-38 0-74-20t-68.5-58-60-93T909 545L845 0H601l78 653q12 100-5 143.5T600 840q-40 0-76.5-21t-69-60.5-60-96T346 536L282 0H40z"/><glyph unicode="n" horiz-adv-x="1082" d="M365 814q78 115 173 171.5t196 56.5q64 0 115-26t84-75.5 46.5-122T981 653L904 0H657l77 653q13 100-10 143.5T640 840q-41 0-84-23.5t-83-67-73.5-104T345 510L288 0H41l123 1027h125q39 0 60.5-19t21.5-61z"/><glyph unicode="o" horiz-adv-x="1047" d="M462 175q62 0 112 35.5t85 95T713 444t19 166q0 125-42 183.5T562 852q-62 0-112.5-35T364 722.5 310 584t-19-167q0-125 42-183.5T462 175zM439-15q-85 0-157 28.5T157 97 74 232 44 415q0 133 43 248t116.5 199T375 994t209 48q85 0 157.5-28.5t125-83.5T949 795t30-183q0-132-43-246.5t-116.5-199T648 33.5 439-15z"/><glyph unicode="p" horiz-adv-x="1078" d="M310 240q34-37 78-52t86-15q66 0 120 41t93 107 60 148.5T768 635q0 108-35.5 160.5T634 848q-41 0-83-28t-81-76.5T397.5 629 340 487zm55 560q74 111 167.5 176.5T731 1042q64 0 116-23.5t89-70.5 57-119 20-169q0-87-18-171t-51-159-78.5-138T764 83 644.5 11 513-15q-70 0-125.5 25T290 78l-51-413H-1l166 1362h125q39 0 60.5-19t21.5-61z"/><glyph unicode="q" horiz-adv-x="1043" d="M721 864q-14 1-26.5 1.5t-24.5.5q-83 0-154-38T393.5 725.5t-81-150T283 395q0-108 34-158t93-50q41 0 80 28t74.5 77.5 65 116T681 552zm-87-677Q568 93 488 39T313-15q-58 0-109 23t-88.5 68.5-59 114T35 351t23 179 65.5 163.5T226 834t134.5 110 161 71.5T704 1041q70 0 139-10t136-36L813-335H653q-23 0-38.5 8.5t-24 22-11 29.5-.5 32z"/><glyph unicode="r" horiz-adv-x="707" d="M365 780q39 76 83.5 130.5t92.5 85 99 36 102-16.5l-45-236q-122 51-213.5-25T337 455L282 0H40l124 1027h126q39 0 60.5-19t21.5-61z"/><glyph unicode="s" horiz-adv-x="811" d="M724 833q-11-16-21-22.5t-26-6.5q-18 0-36 10t-41.5 22.5-54 22.5-72.5 10q-79 0-121-35.5T310 745q0-41 29.5-66t74.5-44 96.5-38.5 96.5-49 74.5-76T711 352q0-74-29.5-141T597 93.5t-132.5-80T290-16q-48 0-94 9.5T110.5 20 38 60t-56 50l61 94q11 17 26 26t37 9q21 0 38-13t39.5-28.5 55-28.5 83.5-13q41 0 72.5 11t53.5 30 33 44 11 53q0 34-17 56.5t-45.5 39-64.5 29-73.5 26.5-73 32-64 45.5-45.5 67T92 686q0 68 26 132.5t76 114 123.5 79.5 168.5 30q98 0 174-33.5T787 923z"/><glyph unicode="t" horiz-adv-x="732" d="M127 209v16.5l1.5 28 5 49L143 381l57 460h-97q-18 0-29.5 13T66 893l11 98 156 27 82 280q7 20 21 31t35 11h132l-40-323h248l-21-176H441l-55-447q-5-41-8-65t-4.5-37.5-1.5-19V265q0-38 18.5-60t52.5-22q21 0 36 5.5t26 11.5 20 11.5 17 5.5q11 0 17-5.5t11-16.5l53-120Q568 30 501.5 7T366-16q-109 0-172.5 59T127 209z"/><glyph unicode="u" horiz-adv-x="1082" d="M1017 1026L893 0H768q-88 0-88 85l6 118Q608 93 515.5 39T324-15q-64 0-115 26t-84 75.5T78.5 209 77 375l77 651h247l-77-651q-13-101 10-144.5t84-43.5q40 0 81.5 22t80.5 63 72 98.5T707 499l63 527h247z"/><glyph unicode="v" horiz-adv-x="983" d="M1028 1026L522 0H315L58 1026h203q26 0 41.5-13t19.5-33l107-548q8-50 13-98t8-96q30 96 70 194l245 548q9 20 27.5 33t41.5 13h194z"/><glyph unicode="w" horiz-adv-x="1476" d="M1507 1026L1083 0H892q-31 0-38 44l-98 593q-6 38-9 77-7-20-14-39.5T718 635L475 44Q457 0 421 0H238L64 1026h188q25 0 41-13t20-33l60-548q3-45 5-86t4-83q15 42 31.5 83t33.5 86l223 550q8 20 26 33t41 13h105q26 0 42-13t18-33l85-550q6-45 11.5-86.5t9.5-83.5q11 41 24.5 83t28.5 87l199 548q7 20 25 33t41 13h181z"/><glyph unicode="x" horiz-adv-x="975" d="M637 554L900 0H676q-25 0-39.5 13.5T614 45L456 406q-5-12-10.5-22.5T433 363L205 45q-13-17-28.5-31T137 0H-80l407 554-237 472h224q25 0 36-7t19-24l140-305q6 12 13 24t16 25l181 252q22 35 54 35h224z"/><glyph unicode="y" horiz-adv-x="983" d="M1032 1026L354-284q-14-26-33-38.5T274-335H91L319 79 60 1026h207q27 0 40.5-13.5T326 980l126-532q10-51 15-102 11 26 22.5 51.5T513 449l253 532q10 20 29 32.5t39 12.5h198z"/><glyph unicode="z" horiz-adv-x="866" d="M858 1026l-13-102q-2-26-14-50.5T805 832L293 190h451L721 0H-25l13 103q1 17 12 41t28 44l517 649H104l23 189h731z"/><glyph unicode="{" horiz-adv-x="580" d="M638 1545l-13-107q-1-12-7.5-21t-15-15-18-8.5-15.5-2.5h-7q-66 0-104.5-47.5T412 1208q-5-51-6.5-98t-1.5-91.5-.5-87T399 846q-8-84-53.5-145T228 619q57-20 88-69.5T347 437q0-58-13-113.5t-29-111-29-112T263-17q0-60 27.5-97.5T372-152h8q7 0 15.5-2.5T411-163t11-15 2-22l-13-105h-49q-79 0-137 21t-95.5 58.5-56 89.5T55-21q0 65 14.5 124T101 218t31.5 111T147 441q0 48-23 79t-71 31l17 138q74 0 103 61.5T202 939q0 16-1 37t-1.5 43.5-1.5 44-1 38.5q0 106 24 188.5t72.5 139 122.5 86 174 29.5h48z"/><glyph unicode="|" horiz-adv-x="539" d="M173 1547h191V-335H173v1882z"/><glyph unicode="}" horiz-adv-x="580" d="M220 1545q79 0 136.5-21t95-58.5 56-90.5 18.5-116q0-65-14-123.5T481 1021t-31-111-14-111q0-48 21.5-79t71.5-31l-17-138q-73 0-102.5-62T380 299q0-15 .5-36t1.5-43 1.5-44 .5-38q0-212-96.5-327.5T-8-305h-49l15 105q1 13 7 22t14.5 15 17.5 8.5 16 2.5h8q66 0 104 48t45 136q5 51 6.5 97.5t1.5 91 1 87 5 84.5q7 84 52.5 145T354 619q-58 20-89 70.5T234 803q0 57 13.5 112.5t29.5 111 29.5 112.5 13.5 118q0 60-27.5 97t-82.5 37h-7q-7 0-15.5 2.5T172 1402t-11 15-2 21l12 107h49z"/><glyph unicode="~" d="M743 648q57 0 87.5 36T862 785h199q0-77-20.5-139.5t-59-107T887 470t-128-24q-53 0-101.5 14t-92 30.5-82 30.5-69.5 14q-56 0-87-36t-31-101H96q0 77 20.5 139.5t59.5 107 95 68.5 128 24q52 0 100.5-14t92-30.5T673 662t70-14z"/><glyph unicode="­" horiz-adv-x="694" d="M117 703h481l-26-199H93z"/><glyph unicode="Ѐ" horiz-adv-x="1073" d="M491 1239l-51-411h457l-25-199H415l-52-422h584L921 0H77l178 1446h843l-26-207H491zm128 622q18 0 31.5-1t23.5-5.5 18-12.5 17-22l169-271H714q-27 0-41.5 3.5T642 1573l-261 288h238z"/><glyph unicode="Ё" horiz-adv-x="1073" d="M491 1239l-51-411h457l-25-199H415l-52-422h584L921 0H77l178 1446h843l-26-207H491zm177 426q0-28-11-52.5t-30.5-43-45-29T528 1530q-27 0-51.5 10.5t-43.5 29-30 43-11 52.5 11 53.5 30 44.5 43.5 30 51.5 11q28 0 53.5-11t45-30 30.5-44.5 11-53.5zm399 0q0-28-11-52.5t-29.5-43-44-29T928 1530q-28 0-53 10.5t-43.5 29-29.5 43-11 52.5 11 53.5 29.5 44.5 43.5 30 53 11q29 0 54.5-11t44-30 29.5-44.5 11-53.5z"/><glyph unicode="Ђ" horiz-adv-x="1412" d="M909 844q120 0 204.5-27t138-73.5T1330 634t25-135q0-111-38-203t-109-158-173-102T805 0h-79l26 202h77q70 0 120.5 18.5t83 52.5 48 83 15.5 109q0 40-11 73t-36.5 56-66 35.5T884 642H640L561 0H303l152 1240H107l25 205h987l-26-205H714l-49-396h244z"/><glyph unicode="Ѓ" horiz-adv-x="1014" d="M1053 1245H489L336 0H76l177 1445h825zm73 616l-330-286q-21-18-37.5-22t-42.5-4H552l223 271q11 14 21 22.5t21.5 12.5 25 5 31.5 1h252z"/><glyph unicode="Є" horiz-adv-x="1243" d="M1155 207Q1061 99 934.5 41.5T643-16q-134 0-238 47T229 162 119.5 361.5 82 614q0 124 26 235t74.5 205.5T299 1224t152 128 182 81 205 28q146 0 254-51.5t176-135.5l-101-121q-10-11-23.5-20t-33.5-9q-22 0-42.5 18t-52 39.5-80 39.5-125.5 18q-80 0-151-27.5t-128.5-80T431 1003t-63-173h612l-24-192H348v-2q0-101 25.5-181.5t70.5-136 107-85T686 204q48 0 88 6t76 19.5 69 34.5 67 52q18 14 40.5 18.5T1066 319l89-112z"/><glyph unicode="Ѕ" horiz-adv-x="1026" d="M937 1186q-15-20-28.5-29.5T875 1147t-41 16-50 35.5-68.5 35.5-95.5 16q-55 0-97-16t-70.5-44-43-66-14.5-82q0-46 23.5-76.5T480 912t87-41 99.5-38 99.5-46 87-64 61.5-91.5T938 502q0-106-36.5-200t-105-164.5-166-112T411-16q-63 0-123.5 13.5T172.5 36 72 96t-80 78l92 124q11 14 28 23t34 9q16 0 31.5-10t34-24.5 40-32 49.5-32 63-24.5 81-10q113 0 177.5 64T687 438q0 50-23 82t-61 54-86.5 38.5-98.5 35-98.5 43-86.5 63-61 94.5-23 138q0 93 34.5 179t98.5 151.5 155.5 105T644 1461q59 0 113.5-12t101.5-34 86.5-52.5 68.5-67.5z"/><glyph unicode="І" horiz-adv-x="564" d="M338 0H77l176 1446h261z"/><glyph unicode="Ї" horiz-adv-x="564" d="M338 0H77l176 1446h261zm16 1665q0-28-11-52.5t-30.5-43-45-29T214 1530q-27 0-51.5 10.5t-43.5 29-30 43-11 52.5 11 53.5 30 44.5 43.5 30 51.5 11q28 0 53.5-11t45-30 30.5-44.5 11-53.5zm399 0q0-28-11-52.5t-29.5-43-44-29T614 1530q-28 0-53 10.5t-43.5 29-29.5 43-11 52.5 11 53.5 29.5 44.5 43.5 30 53 11q29 0 54.5-11t44-30 29.5-44.5 11-53.5z"/><glyph unicode="Ј" horiz-adv-x="809" d="M665 501q-15-120-54-216T509.5 122.5 361 20 166-16q-53 0-101.5 6.5T-35 11l19 152q2 21 14.5 35T37 212q23 0 53-7t76-7 85.5 16 70.5 51.5 52.5 92T405 495l116 951h260z"/><glyph unicode="Љ" horiz-adv-x="1980" d="M1394 202q70 0 120 18.5t82 52.5 47.5 83 15.5 109q0 40-11 73t-36 56-65.5 35.5T1447 642h-205l-54-440h206zm79 642q119 0 203.5-27t138.5-73.5 79-109.5 25-135q0-111-38-203t-109.5-158T1598 36 1368 0H902l153 1245H706q-47-272-95-471.5T512.5 434 409 206.5t-109.5-137T183 2.5 59-15q-69 0-98.5 12.5T-66 34l20 162h73q23 0 47.5 6.5t51 26.5 54.5 57.5T237 387t59.5 155T358 762.5t63 297 64 385.5h855l-74-601h207z"/><glyph unicode="Њ" horiz-adv-x="2024" d="M1438 202q70 0 120 18.5t82 52.5 47.5 83 15.5 109q0 40-11 73t-36.5 56-66 35.5T1491 642h-204l-54-440h205zm79 642q119 0 203.5-27t138-73.5T1937 634t25-135q0-111-38-203t-109-158-173-102-230-36H946l79 635H416L338 0H77l178 1446h261l-77-627h608l78 627h261l-74-602h205z"/><glyph unicode="Ћ" horiz-adv-x="1410" d="M665 839q109 28 204 42t172.5 8.5 136-31.5 95-78.5T1322 646t-1-195L1266-1h-261l56 452q7 57 5.5 101t-15.5 75-43.5 48.5-78.5 21-119.5-7T642 654L562 0H303l152 1240H107l25 205h987l-26-205H714z"/><glyph unicode="Ќ" horiz-adv-x="1299" d="M936 864q-28-38-62.5-62.5T800 763q55-17 90-52.5t63-98.5L1218 0H982q-36 0-58 19.5T885 77L674 569q-18 41-43 56t-71 15H413L335 0H76l177 1446h259l-75-610h124q37 0 65.5 14t57.5 52l340 474q23 31 51.5 50.5t64.5 19.5h222zm288 997l-330-286q-21-18-37.5-22t-42.5-4H650l223 271q11 14 21 22.5t21.5 12.5 25 5 31.5 1h252z"/><glyph unicode="Ѝ" horiz-adv-x="1433" d="M1384 1446L1206 0H946l109 897q7 51 16.5 106t26.5 118q-26-55-54.5-102.5T989 935L395 80q-11-14-24.5-28.5t-29.5-26T307 7t-37-7H76l177 1446h261L404 549q-7-50-16-104.5T363 329q26 54 53.5 100.5T470 511l594 855q11 15 25 29t29.5 25.5 33.5 18.5 36 7h196zm-627 415q18 0 31.5-1t23.5-5.5 18-12.5 17-22l169-271H852q-27 0-41.5 3.5T780 1573l-261 288h238z"/><glyph unicode="Ў" horiz-adv-x="1214" d="M1318 1445L628 199q-37-64-75-105.5T476 28 397-5.5 315-15Q239-15 203.5.5T173 54l17 142h72q27 0 49.5 4.5t43 17T394 252t40 58l67 119L90 1445h237q34 0 51.5-16t28.5-42l182-547q15-48 26.5-95t18.5-95q19 48 41 95t47 95l283 547q13 21 37 39.5t56 18.5h220zm-575 210q35 0 58.5 7t39.5 24.5 25 47.5 14 76h133q24 0 33.5-22t6.5-48q-6-51-32-90t-68-65-99-39.5-124-13.5q-68 0-122 13.5t-90.5 39.5-53 65-10.5 90q2 26 16 48t38 22h134q-5-46-2.5-76t14-47.5T687 1662t56-7z"/><glyph unicode="Џ" horiz-adv-x="1387" d="M1338 1445L1161 0H737l-33-270q-5-33-30.5-54T613-345H457L499 0H76l177 1445h261L361 199h563l153 1246h261z"/><glyph unicode="А" horiz-adv-x="1304" d="M856 544l-98 495q-6 34-14.5 79t-16.5 98q-20-53-39-98t-34-80L435 544h421zM1232 0h-200q-34 0-52.5 16.5T953 59l-60 302H354L220 59q-11-23-36-41T127 0H-76l699 1446h265z"/><glyph unicode="Б" horiz-adv-x="1181" d="M413 642l-53-440h210q70 0 120 18.5t82 52.5 47.5 83T835 465q0 40-11 73t-36 56-65.5 35.5T623 642H413zm74 602l-49-400h211q119 0 203.5-27T991 743.5t79-109.5 25-135q0-111-38-203T947.5 138 774 36 544 0H76l177 1445h912l-25-201H487z"/><glyph unicode="В" horiz-adv-x="1228" d="M607 202q69 0 119.5 19t82.5 53.5 47.5 83T872 464q0 79-50 126t-164 47H414l-53-435h246zM489 1246l-53-430h192q134 0 206.5 63t72.5 193q0 91-51.5 132.5T695 1246H489zm230 200q120 0 205.5-23.5t140-66.5 80.5-104 26-136q0-62-16.5-118.5T1103 893t-89-86-129-63q123-31 183-100.5t60-176.5q0-100-37-185.5t-107-148-170.5-98T586 0H77l178 1446h464z"/><glyph unicode="Г" horiz-adv-x="1014" d="M1053 1245H489L336 0H76l177 1445h825z"/><glyph unicode="Д" horiz-adv-x="1500" d="M943 199l129 1046H721q-38-217-78-385t-81-294.5-84-216T392 199h551zm409-469q-5-33-30-54t-61-21h-156l42 345H184l-33-270q-4-33-29.5-54T60-345H-96l67 544h140q27 15 57 47t62 92 65 152 67 225.5 69 313.5 70 416h856L1204 199h205z"/><glyph unicode="Е" horiz-adv-x="1073" d="M491 1239l-51-411h457l-25-199H415l-52-422h584L921 0H77l178 1446h843l-26-207H491z"/><glyph unicode="Ж" horiz-adv-x="1984" d="M1639 885q-33-45-66-75t-78-47q48-18 83.5-53.5T1640 614L1904 0h-172q-57 0-94 24t-56 66l-205 470q-19 43-47 61.5t-73 18.5h-140L1038 0H794l79 640H735q-45 0-78-18.5T594 560L275 90q-29-42-72.5-66T103 0H-70l415 614q41 60 84.5 95.5T526 763q-40 17-65.5 47T412 885l-267 561h205q39 0 70.5-19.5T467 1372l205-464q19-44 46-58t65-14h114l75 610h244l-75-610h116q37 0 67.5 14t60.5 58l319 464q24 35 60 54.5t74 19.5h206z"/><glyph unicode="З" horiz-adv-x="1088" d="M160 1309q93 71 209 111t246 40q100 0 177.5-25t130.5-69.5 81-106.5 28-136q0-121-62-215T787 764q95-44 148-120.5T988 467q0-99-38-187T842 127 672.5 24 450-14q-75 0-145 14T173.5 39.5 60.5 100-28 178l91 121q11 14 27.5 23.5T125 332q17 0 33.5-10t37-24.5 45-32 56-32 72-24.5 91.5-10q135 0 209 68.5T743 463q0 89-60.5 141T507 656H322l26 209h171q126 0 196.5 57t70.5 162q0 75-50 120.5T582 1250q-66 0-116.5-16t-89-35.5T310 1163t-48-16-32 10-21 30z"/><glyph unicode="И" horiz-adv-x="1433" d="M1384 1446L1206 0H946l109 897q7 51 16.5 106t26.5 118q-26-55-54.5-102.5T989 935L395 80q-11-14-24.5-28.5t-29.5-26T307 7t-37-7H76l177 1446h261L404 549q-7-50-16-104.5T363 329q26 54 53.5 100.5T470 511l594 855q11 15 25 29t29.5 25.5 33.5 18.5 36 7h196z"/><glyph unicode="Й" horiz-adv-x="1433" d="M1384 1446L1206 0H946l109 897q7 51 16.5 106t26.5 118q-26-55-54.5-102.5T989 935L395 80q-11-14-24.5-28.5t-29.5-26T307 7t-37-7H76l177 1446h261L404 549q-7-50-16-104.5T363 329q26 54 53.5 100.5T470 511l594 855q11 15 25 29t29.5 25.5 33.5 18.5 36 7h196zm-539 209q35 0 58.5 7t39.5 24.5 25 47.5 14 76h133q24 0 33.5-22t6.5-48q-6-51-32-90t-68-65-99-39.5-124-13.5q-68 0-122 13.5t-90.5 39.5-53 65-10.5 90q2 26 16 48t38 22h134q-5-46-2.5-76t14-47.5T789 1662t56-7z"/><glyph unicode="К" horiz-adv-x="1299" d="M936 864q-28-38-62.5-62.5T800 763q55-17 90-52.5t63-98.5L1218 0H982q-36 0-58 19.5T885 77L674 569q-18 41-43 56t-71 15H413L335 0H76l177 1446h259l-75-610h124q37 0 65.5 14t57.5 52l340 474q23 31 51.5 50.5t64.5 19.5h222z"/><glyph unicode="Л" horiz-adv-x="1389" d="M1163 0H902l153 1245H706q-47-272-95-471.5T512.5 434 409 206.5t-109.5-137T183 2.5 59-15q-69 0-98.5 12.5T-66 34l20 162h73q23 0 47.5 6.5t51 26.5 54.5 57.5T237 387t59.5 155T358 762.5t63 297 64 385.5h855z"/><glyph unicode="М" horiz-adv-x="1758" d="M1709 1446L1531 0h-228l116 942q4 26 9.5 56t12.5 62L944 236q-17-28-42.5-42T846 180h-36q-30 0-52.5 14T725 236l-298 824q-1-31-2.5-60t-4.5-54L306 0H77l178 1446h195q17 0 28.5-1.5t20.5-6 17-13 17-21.5l299-826q18-53 30-108 13 28 26.5 55t29.5 53l502 826q12 13 21.5 21.5t19.5 13 22 6 29 1.5h197z"/><glyph unicode="Н" horiz-adv-x="1435" d="M1386 1446L1208 0H946l79 635H416L338 0H77l178 1446h261l-77-627h608l78 627h261z"/><glyph unicode="О" horiz-adv-x="1506" d="M1453 820q0-120-26.5-228.5T1351 390t-119-168-156.5-128T888 12.5 676-16q-138 0-248 49T240.5 168 122 371 81 625q0 120 26.5 228.5t76 201.5 119 168 156 128.5 187.5 82 213 28.5q138 0 248-49t187-135 118-203.5 41-254.5zm-266-6q0 98-24.5 178t-71 137-113.5 88-151 31q-108 0-196.5-44T479 1079t-97.5-195T347 631q0-98 24-178t70-136.5 112.5-87T705 199q109 0 198 44t152 124 97.5 193.5T1187 814z"/><glyph unicode="П" horiz-adv-x="1387" d="M1161 0H900l153 1245H489L336 0H76l177 1445h1085z"/><glyph unicode="Р" horiz-adv-x="1162" d="M604 714q77 0 133 23t92.5 64.5 54 98.5 17.5 126q0 49-14 90t-43 69.5-72.5 44.5-103.5 16H488l-65-532h181zm89 732q123 0 211.5-29.5T1050 1334t84.5-125.5T1162 1049q0-116-36.5-214.5t-109.5-170-182.5-112T578 512H398L335 0H77l176 1446h440z"/><glyph unicode="С" horiz-adv-x="1241" d="M685 204q61 0 106 9.5t79 24.5 57.5 31.5T969 301t32 24.5 28 9.5q13 0 21-5t13-10l91-113Q1060 99 933 41.5T641-16q-134 0-238 47.5T227.5 163t-109 199T81 613q0 125 27 236.5t77 206T304.5 1225t155 128 184 81 205.5 28q79 0 144-14.5t117.5-40.5 95-62.5 76.5-81.5l-90-108q-10-12-23.5-21t-33.5-9q-22 0-42 18t-50.5 39.5-79 39.5-127.5 18q-104 0-193.5-42.5T487 1076 383.5 885.5 346 635q0-101 25.5-181t71-135.5 107.5-85T685 204z"/><glyph unicode="Т" horiz-adv-x="1114" d="M1158 1233H763L611 0H353l150 1233H106l26 213h1053z"/><glyph unicode="У" horiz-adv-x="1214" d="M1318 1445L628 199q-37-64-75-105.5T476 28 397-5.5 315-15Q239-15 203.5.5T173 54l17 142h72q27 0 49.5 4.5t43 17T394 252t40 58l67 119L90 1445h237q34 0 51.5-16t28.5-42l182-547q15-48 26.5-95t18.5-95q19 48 41 95t47 95l283 547q13 21 37 39.5t56 18.5h220z"/><glyph unicode="Ф" horiz-adv-x="1498" d="M843 373q76 2 141.5 37t114 93.5 76 136.5 27.5 167q0 67-18.5 126.5t-52.5 104-83.5 71T937 1137zm-152 764q-76-2-141.5-37t-114-93.5-76-136.5T332 704q0-67 18.5-126.5t53-104.5 83.5-71.5T598 373zm270 201q112-5 204.5-47.5t158-113T1425 1014t36-197q0-87-23-168t-64.5-151.5-100-129-130-101-154-67.5T818 172L797 0H552l21 172q-113 4-205.5 47t-158 114T108 497 72 695q0 87 23 167.5t64.5 151 100.5 129 130.5 101 153.5 67 171 27.5l21 169h246z"/><glyph unicode="Х" horiz-adv-x="1261" d="M832 784L1195 0H962q-26 0-40.5 14T899 45L649 624q-9-17-19-32L256 45q-17-25-37.5-35T175 0H-84l558 773-326 673h235q26 0 38-7.5t20-25.5l221-498q5 10 11 20t13 21l308 454q24 36 59 36h271z"/><glyph unicode="Ц" horiz-adv-x="1474" d="M1374 199l-57-469q-5-33-30.5-54t-61.5-21h-155l41 345H76l177 1445h261L361 199h563l153 1246h261L1185 199h189z"/><glyph unicode="Ч" horiz-adv-x="1263" d="M1213 1445L1035 0H775l72 585q-112-29-213-43.5t-186.5-10T295 562t-110.5 78T124 773t-3 196l58 476h261l-59-476q-11-86 7-142t74.5-82T618 724.5 869 769l83 676h261z"/><glyph unicode="Ш" horiz-adv-x="2012" d="M1963 1445L1785 0H76l177 1445h261L361 199h463l153 1246h261L1085 199h464l153 1246h261z"/><glyph unicode="Щ" horiz-adv-x="2099" d="M1999 199l-58-469q-5-33-30-54t-61-21h-156l43 345H76l177 1445h261L361 199h463l153 1246h261L1085 199h464l153 1246h261L1810 199h189z"/><glyph unicode="Ъ" horiz-adv-x="1406" d="M823 202q70 0 120 18.5t82 52.5 47.5 83 15.5 109q0 40-11 73t-36 56-65.5 35.5T876 642H667l-54-440h210zm79 642q119 0 203.5-27t138.5-73.5 79-109.5 25-135q0-111-38-203t-109.5-158T1027 36 797 0H329l152 1238H101l26 207h638l-74-601h211z"/><glyph unicode="Ы" horiz-adv-x="1678" d="M570 202q70 0 120 18.5t82 52.5 47.5 83T835 465q0 40-11 73t-36 56-65.5 35.5T623 642H414l-54-440h210zm79 642q119 0 203.5-27T991 743.5t79-109.5 25-135q0-111-38-203T947.5 138 774 36 544 0H76l177 1445h259l-74-601h211zM1452 0h-261l176 1446h261z"/><glyph unicode="Ь" horiz-adv-x="1157" d="M570 202q70 0 120 18.5t82 52.5 47.5 83T835 465q0 40-11 73t-36 56-65.5 35.5T623 642H414l-54-440h210zm79 642q119 0 203.5-27T991 743.5t79-109.5 25-135q0-111-38-203T947.5 138 774 36 544 0H76l177 1445h259l-74-601h211z"/><glyph unicode="Э" horiz-adv-x="1244" d="M138 1277q94 85 213 134.5t267 49.5q132 0 238-47.5t179.5-132 113-201T1188 825q0-181-53-335T986 223.5t-231-176T456-16q-165 0-279.5 58.5T-12 206l116 111q19 16 39 16 24 0 41-19 27-30 55.5-51.5T300 228t71-19 87-6q77 0 149 29t131 84.5T840.5 453 905 638H292l24 192h606q-2 95-26 171.5t-67 130-104 82.5-136 29q-77 0-130-17.5t-91-38.5-64-38.5-48-17.5q-20 0-31 9t-18 20z"/><glyph unicode="Ю" horiz-adv-x="2017" d="M1254 199q101 0 182.5 44.5t139 126.5 88.5 198 31 258q0 95-20.5 172.5t-60.5 133-98.5 85.5-133.5 30q-101 0-182.5-45t-139-127.5T972 876t-31-257q0-96 20.5-173.5t60.5-132 98.5-84.5 133.5-30zM695 820q27 141 90.5 259t156 203 211 132 256.5 47q131 0 233.5-48t173-132.5T1923 1081t37-250q0-182-54-336.5t-150.5-268-231-177.5T1228-15q-131 0-233.5 47.5T821 164.5t-108 200T676 615v6H414L338 0H77l176 1446h261l-76-626h257z"/><glyph unicode="Я" horiz-adv-x="1265" d="M877 803l54 440H714q-70 0-120-18t-82.5-51.5-47.5-82T449 983q0-41 11-74t36-56.5 65-36.5 99-13h217zM1038 0H779l74 601H724q-23 0-43.5-4.5t-41-16T599 549t-41-51L281 90q-29-42-71.5-66T110 0H-86l362 511q69 97 165 138-64 19-111 50.5T252 773t-46 92.5T191 973q0 103 38 189.5T338 1312t172.5 98 228.5 35h477z"/><glyph unicode="а" horiz-adv-x="1042" d="M720 864q-14 1-26.5 1.5t-24.5.5q-83 0-154-38T392.5 725.5t-81-150T282 395q0-108 34-158t93-50q41 0 80.5 28.5t75 78 65 116.5T681 554zm-68-650Q584 109 498.5 47T312-15q-58 0-108.5 23t-88 68.5-59 114T35 351t23 179 65.5 163.5T226 834t134.5 110 161 71.5T704 1041q69 0 138.5-10T978 995L855 0H724q-47 0-63.5 23.5T644 82z"/><glyph unicode="б" horiz-adv-x="1091" d="M638 823q-69 0-126-38t-98.5-99T349 549t-23-151q0-114 43.5-172.5T491 167q64 0 117.5 39t91 102.5T758 454t21 168q0 101-34.5 151T638 823zm451 700v-125q0-39-20-67.5t-59-37.5l-285-46q-117-19-194.5-67T404 1065t-73.5-146T295 759q33 53 78 96.5t99.5 75 118 49T725 997q65 0 120-21t95-64.5 62.5-111T1025 641q0-82-18-162.5T955.5 325t-82-135T764 82.5 630.5 11 476-15q-83 0-154.5 29t-124 91-82 159T86 496q0 58 4 126t15.5 140 31 145.5 50 143.5 74 133.5 102 115.5 134 89.5T667 1444z"/><glyph unicode="в" horiz-adv-x="965" d="M284 429q-2-62 8-111t31.5-83 55.5-51.5 80-15.5q41 1 75 16.5t59 41 38.5 58.5 13.5 69q0 30-10 55.5t-32.5 42-58 22T457 468zm169 184q68 13 109.5 32t64.5 41.5 31 46.5 8 48q0 39-21 66.5T571 875q-45 0-87-21.5T407 793t-62-94-43-122zm188-48q50-3 92.5-18t73.5-41 48.5-64 17.5-87q0-68-30.5-134.5t-87.5-119T616.5 17 432-15q-95 0-168 29T141.5 97t-75 130T41 397q0 129 42 245.5t117 205T377.5 988t223.5 52q69 0 121-17t86.5-46 52-68 17.5-82q0-79-57.5-149T641 565z"/><glyph unicode="г" horiz-adv-x="815" d="M446 1039q62 0 118.5-15t99-45 68-75T757 799q0-54-21.5-99.5t-57-83.5-81-71-92.5-62-92.5-56.5-81-55-57-56T253 254q0-32 31-55.5t91-23.5q44 0 80 12.5t65.5 27.5 52.5 27.5 41 12.5q17 0 28-6t22-21l57-88q-40-39-86-67.5t-96-48-102-29T334-14q-76 0-136.5 19T95 57t-64.5 79T8 236q0 73 38 132t95 107 123 88 123 76.5 95 71 38 71.5q0 26-25.5 47T417 850q-36 0-68.5-10T289 818t-49.5-22.5T200 785q-10 0-21.5 5T157 815l-53 101q69 57 158.5 90t183.5 33z"/><glyph unicode="д" horiz-adv-x="1071" d="M463 176q62 0 115.5 35.5t93 110T734 512t23 277q-31 26-72 43t-89 17q-68 0-124-33.5t-96-91T314.5 589 293 422q0-66 12-112.5t34.5-76 54-43.5 69.5-14zM245 1450q113 13 213 8.5t184-31.5 150.5-77.5T905 1221t70.5-185.5T1000 787q0-188-44.5-337t-121-252.5T655 39.5 434-15q-84 0-155 27.5T156 95 75 232 46 423q0 116 36 224.5T182.5 840 338 974.5t202 50.5q72 0 128-22.5T770 938q-14 104-51.5 171.5t-98 107T475 1271t-194 13q-32 0-42 13t-6 42z"/><glyph unicode="е" horiz-adv-x="982" d="M575 868q-50 0-93-20.5T404.5 790t-60-88.5T304 589q124 17 199.5 37.5t116.5 44 54.5 51T688 779q0 15-6.5 31t-20 28.5-35 21T575 868zM283 418q0-242 205-242 44 0 78 8.5t59.5 20.5 46 27 38 27 34.5 20.5 37 8.5q12 0 23.5-6t20.5-16l63-76q-53-53-104-92T680 34 568-3 440-15q-90 0-163 30.5t-125 86-80.5 134T43 411q0 81 17.5 159T111 718t81 129 108.5 102 133 67 155.5 24q80 0 140.5-23t101-59.5T891 876t20-88q0-69-27.5-126t-98-102T593 482.5 283 431v-13z"/><glyph unicode="ж" horiz-adv-x="1753" d="M965 484q75 138 158 242t163.5 173.5 153.5 105 127 35.5q49 0 95.5-17t91.5-58l-60-103q-13-23-26-30t-27-7q-10 0-19 2.5t-19.5 6-22 6.5-25.5 3q-37 0-75-31.5t-68.5-90-50-142.5-19.5-190q0-60 6.5-101t18.5-66 30.5-35.5T1440 176q17 0 31.5 6t27.5 12.5 24.5 12.5 22.5 6q13 1 25.5-3.5T1592 191l54-106q-31-27-65-46t-68.5-31T1445-9.5t-62-5.5q-57 0-103 19.5t-78.5 58T1151 159t-18 136q0 159 52 298-41-53-82-116t-76.5-134.5T963 194 919 36l-4-36H708l56 545q-74-139-157-243.5t-164-175-154-106T161-15q-48 0-95 17.5T-26 61l60 102q13 23 26.5 30.5T87 201q10 0 19.5-2.5t19.5-6 21.5-6.5 25.5-3q37 0 74.5 31.5t68.5 90T366.5 447 386 637q0 60-6 101t-18.5 66-31 35.5T288 850q-17 0-31.5-6T229 831t-25-13-22-6q-13 0-25.5 4T136 834L82 941q31 27 65 46t68.5 30.5 67.5 17 62 5.5q57 0 103-19.5t79-58 51-96.5 18-135q0-81-13.5-155.5T544 432q41 53 81.5 116.5T702 684t64.5 150T811 994l3 33 208-1z"/><glyph unicode="з" horiz-adv-x="882" d="M94 896q31 31 74.5 57.5t94.5 46 108 30.5 117 11q85 0 147-20t102.5-54 60-77.5T817 800q0-36-11.5-72t-38-68.5-68-59.5T598 557q88-20 135-75.5T780 341q0-63-27.5-126.5t-84-114.5T526 17 322-15q-98 0-185 30T-30 117l63 100q7 12 20 22t29 10q22 0 42.5-13t47.5-28.5 65.5-28.5 97.5-13q54 0 95 14t69 38 42 57 14 71q0 34-11 57t-31.5 37-49.5 20.5-65 6.5q-31 0-73.5-6T245 449q0 46 4 89.5t22 88.5q27-4 53-7.5t53-3.5q58 0 99.5 12.5T544 661t38.5 44.5T595 754q0 46-35.5 76T440 860q-56 0-94.5-11.5T279 823t-47-26.5-35-13.5q-16-2-27 3t-25 25z"/><glyph unicode="и" horiz-adv-x="1082" d="M1017 1026L893 0H768q-88 0-88 85l6 118Q608 93 515.5 39T324-15q-64 0-115 26t-84 75.5T78.5 209 77 375l77 651h247l-77-651q-13-101 10-144.5t84-43.5q40 0 81.5 22t80.5 63 72 98.5T707 499l63 527h247z"/><glyph unicode="й" horiz-adv-x="1082" d="M1017 1026L893 0H768q-88 0-88 85l6 118Q608 93 515.5 39T324-15q-64 0-115 26t-84 75.5T78.5 209 77 375l77 651h247l-77-651q-13-101 10-144.5t84-43.5q40 0 81.5 22t80.5 63 72 98.5T707 499l63 527h247zm-391 260q34 0 58 8t39.5 26.5 25 49.5 14.5 76h134q24 0 33-21.5t6-47.5q-6-51-32-92.5t-68.5-70-99.5-44-125-15.5-121.5 15.5-89.5 44-53 70-11 92.5q3 26 17.5 47.5T391 1446h135q-5-45-3-76t13.5-49.5 33-26.5 56.5-8z"/><glyph unicode="к" horiz-adv-x="1012" d="M621 826q39 55 66.5 93.5t55 62.5 62 34.5T893 1027h103l-25-127q-5-27-17.5-35.5t-29.5-13-37-13-40-36.5L734 648q-30-43-59-67t-73-34q63-12 101-45.5t62-96.5L924 0H783q-32 0-54.5 5.5T689 21t-29 25-21 35L527 370q-12 37-41.5 60.5T419 454l-89-17L277 0H39l125 1026h238l-53-431 58 13q19 4 33 8.5t25 11 20.5 16T506 668z"/><glyph unicode="л" horiz-adv-x="1103" d="M242 555q30 126 73 215t108 146 156.5 83 219.5 26h240L914 0H676l103 843h-30q-58 0-101-14.5t-75-49-56-92.5-43-145q-34-159-75.5-266T307 104.5t-110.5-92T63-15Q7-15-14.5-5.5T-33 29l17 140h32q45 0 76 19t55.5 64 46 119T242 555z"/><glyph unicode="м" horiz-adv-x="1425" d="M1361 1028L1235 0h-223l77 616q3 25 8.5 54t13.5 58L730 64q-13-20-31-31.5T658 21h-35q-45 0-61 43L375 721q-5-33-10.5-68.5T352 589q-13-63-24-123t-24.5-122T273 216 231 74q-12-35-36-54.5T134 0H-16q36 116 72.5 240.5T127 495t63.5 264 52.5 269h197q25 0 49.5-10.5T524 975l161-504q20-66 30-116 17 42 40 82l296 538q21 32 47 42.5t50 10.5h213z"/><glyph unicode="н" horiz-adv-x="1081" d="M1015 1026L892 0H646l53 446H340L287 0H41l123 1026h246l-48-402h359l48 402h246z"/><glyph unicode="о" horiz-adv-x="1047" d="M462 175q62 0 112 35.5t85 95T713 444t19 166q0 125-42 183.5T562 852q-62 0-112.5-35T364 722.5 310 584t-19-167q0-125 42-183.5T462 175zM439-15q-85 0-157 28.5T157 97 74 232 44 415q0 133 43 248t116.5 199T375 994t209 48q85 0 157.5-28.5t125-83.5T949 795t30-183q0-132-43-246.5t-116.5-199T648 33.5 439-15z"/><glyph unicode="п" horiz-adv-x="1082" d="M365 814q78 115 173 171.5t196 56.5q64 0 115-26t84-75.5 46.5-122T981 653L904 0H657l77 653q13 100-10 143.5T640 840q-41 0-84-23.5t-83-67-73.5-104T345 510L288 0H41l123 1027h125q39 0 60.5-19t21.5-61z"/><glyph unicode="р" horiz-adv-x="1078" d="M310 240q34-37 78-52t86-15q66 0 120 41t93 107 60 148.5T768 635q0 108-35.5 160.5T634 848q-41 0-83-28t-81-76.5T397.5 629 340 487zm55 560q74 111 167.5 176.5T731 1042q64 0 116-23.5t89-70.5 57-119 20-169q0-87-18-171t-51-159-78.5-138T764 83 644.5 11 513-15q-70 0-125.5 25T290 78l-51-413H-1l166 1362h125q39 0 60.5-19t21.5-61z"/><glyph unicode="с" horiz-adv-x="907" d="M831 182q-51-56-97.5-94T639 27 538.5-5.5 423-15q-89 0-159.5 30.5T144 102 69 237 43 413q0 83 18 162t52 149 82 128 108 100 130.5 65.5T583 1041q102 0 173.5-36T883 897l-79-94q-8-9-20-16.5t-26-7.5q-17 0-30.5 10.5t-32 22.5-46 22.5T578 845q-57 0-109-31t-92-88-63.5-137T290 412q0-113 50-174.5T476 176q38 0 67 8t51.5 19.5 39.5 25 32 25 28.5 19.5 29.5 8q13 0 24.5-6.5T769 258l62-76z"/><glyph unicode="т" horiz-adv-x="1586" d="M40 0l124 1027h126q39 0 60.5-19t21.5-61l-5-113q69 105 150 156.5t169 51.5q94 0 149-63t64-182q72 126 159.5 185.5T1249 1042q65 0 114-26t80-75.5 42-122-1-165.5L1407 0h-244l77 653q13 100-5.5 143.5T1160 840q-38 0-74-20t-68.5-58-60-93T909 545L845 0H601l78 653q12 100-5 143.5T600 840q-40 0-76.5-21t-69-60.5-60-96T346 536L282 0H40z"/><glyph unicode="у" horiz-adv-x="983" d="M1032 1026L354-284q-14-26-33-38.5T274-335H91L319 79 60 1026h207q27 0 40.5-13.5T326 980l126-532q10-51 15-102 11 26 22.5 51.5T513 449l253 532q10 20 29 32.5t39 12.5h198z"/><glyph unicode="ф" horiz-adv-x="1491" d="M817 196q22-13 45.5-18t49.5-5q63 0 112.5 40t83 105 51.5 148 18 169q0 114-34.5 163.5T1039 848q-42 0-83-19t-70-54zM650 830q-23 13-47 18.5t-50 5.5q-63 0-112.5-40t-83-105T306 561t-18-169q0-114 35-163.5T427 179q43 0 83.5 19t69.5 54zm258 130q45 42 98.5 62t123.5 20q66 0 120-22t92.5-68.5 59-119.5 20.5-175q0-132-35-253.5T1290 189 1143 40.5 958-15q-50 0-90 18.5T799 49l-34-283q-3-23-14-43t-28-35-40.5-24-51.5-9H509l49 411q-45-41-98.5-61T336-15q-66 0-120.5 22T123 75.5 64 195 43 370q0 132 35 253.5T175 838t147 148.5 185 55.5q50 0 90.5-18.5T667 978l48 398q3 22 14 42t28 35 40.5 24 51.5 9h122z"/><glyph unicode="х" horiz-adv-x="975" d="M637 554L900 0H676q-25 0-39.5 13.5T614 45L456 406q-5-12-10.5-22.5T433 363L205 45q-13-17-28.5-31T137 0H-80l407 554-237 472h224q25 0 36-7t19-24l140-305q6 12 13 24t16 25l181 252q22 35 54 35h224z"/><glyph unicode="ц" d="M1088 177L977-273q-5-33-26.5-52.5T900-345H751L849 0h-81q-88 0-88 85l6 118Q608 93 515.5 39T324-15q-64 0-115 26t-84 75.5T78.5 209 77 375l77 651h247l-77-651q-13-101 10-144.5t84-43.5q40 0 81.5 22t80.5 63 72 98.5T707 499l63 527h247L914 177h174z"/><glyph unicode="ч" horiz-adv-x="989" d="M924 1026L801 0H554l52 433q-64-67-140-102t-166-35q-68 0-116.5 25T105 392 65 501.5 64 642l48 384h247l-48-384q-8-63 14-103.5t82-40.5q35 0 69 12t64 35.5 54.5 58T636 683l41 343h247z"/><glyph unicode="ш" horiz-adv-x="1585" d="M1521 1026L1397 0h-126q-39 0-61 19t-21 61l5 113q-70-105-150.5-156.5T875-15q-95 0-149.5 63T662 229Q590 104 502.5 44.5T312-15q-65 0-114 26t-80 75.5T76 209t1 166l77 651h244l-77-651q-13-101 5.5-144.5T401 187q37 0 73.5 20t69 58 60 92.5T651 481l65 545h244l-78-651q-12-101 5-144.5t74-43.5q39 0 76 21t69.5 61 59.5 96 48 127l65 534h242z"/><glyph unicode="щ" horiz-adv-x="1662" d="M1589 177l-112-450q-4-33-25.5-52.5T1401-345h-149l98 345h-79q-39 0-61 19t-21 61l5 113q-70-105-150.5-156.5T875-15q-95 0-149.5 63T662 229Q590 104 502.5 44.5T312-15q-65 0-114 26t-80 75.5T76 209t1 166l77 651h244l-77-651q-13-101 5.5-144.5T401 187q37 0 73.5 20t69 58 60 92.5T651 481l65 545h244l-78-651q-12-101 5-144.5t74-43.5q39 0 76 21t69.5 61 59.5 96 48 127l65 534h242l-103-849h171z"/><glyph unicode="ъ" horiz-adv-x="1066" d="M560 155q47 0 87 25t69 64.5 45.5 89T778 432q0 22-4.5 43t-15 37-28.5 25.5-45 9.5q-42 0-84-22.5t-76.5-60-56-87T447 275q0-61 32-90.5t81-29.5zm50 747q-26-42-46-82t-35-80-26-81.5-19-85.5q32 34 68 61t74 45 76.5 27.5T777 716q50 0 92-17.5t73-50.5 48-79.5 17-104.5q0-53-14.5-109.5T950 245t-69-100.5-94.5-83-119-56T526-15q-73 0-131.5 20.5T294.5 68t-64 105.5T208 323q0 63 8 125.5t27.5 127 52.5 132T378 847H46l11 87q6 41 34 66.5t76 25.5h464z"/><glyph unicode="ы" horiz-adv-x="1344" d="M1279 1026L1156 0H910l123 1026h246zM305 248q-5-39 24.5-66t89.5-27q46 0 85.5 25.5t68.5 65 46 88 17 95.5q0 23-4.5 44.5t-15 38-29.5 26-47 9.5q-39 0-78-23t-71.5-60.5-54.5-84-27-92.5zm38 322q63 69 138.5 107.5T625 716q54 0 98-17.5t75.5-50.5 49-80T865 463q0-97-41.5-184t-113-152T544 23.5 343-15q-154 0-223.5 74.5T67 266l91 760h241z"/><glyph unicode="ь" horiz-adv-x="924" d="M305 248q-5-39 24.5-66t89.5-27q46 0 85.5 25.5t68.5 65 46 88 17 95.5q0 23-4.5 44.5t-15 38-29.5 26-47 9.5q-39 0-78-23t-71.5-60.5-54.5-84-27-92.5zm38 322q63 69 138.5 107.5T625 716q54 0 98-17.5t75.5-50.5 49-80T865 463q0-97-41.5-184t-113-152T544 23.5 343-15q-154 0-223.5 74.5T67 266l91 760h241z"/><glyph unicode="э" horiz-adv-x="916" d="M73 915q78 59 165 92.5t199 33.5q98 0 174-32t128-91.5 79-144T845 583q0-129-41.5-238.5T689 155 515.5 30 297-15q-103 0-177.5 36T-10 129l71 86q8 9 20 16.5t26 7.5q16 0 31.5-10.5t36-23 49-23T296 172q58 0 106.5 19t86.5 54 64 85 40 112H190l20 163h395q-6 127-61 189.5T391 857q-41 0-73-11t-58-23.5-47-23-40-10.5q-27 0-39 10t-18 22z"/><glyph unicode="ю" horiz-adv-x="1437" d="M885 175q55 0 99 36t74.5 97 47 141.5T1122 619q-1 120-36 176.5T979 852q-55 0-98.5-35.5T806 720t-47-141-16-170q1-120 35.5-177T885 175zM533 605q24 97 69 177t106.5 138 136.5 90 159 32q78 0 144.5-28.5T1264 931t77-133 28-180q0-133-40.5-248.5t-110.5-201T1055.5 34 859-15q-77 0-141 28T608 95t-71.5 133T511 409v25H330L277 0H39l126 1025h238l-52-420h182z"/><glyph unicode="я" horiz-adv-x="1024" d="M716 870H551q-52 0-86.5-17.5t-55-44.5-29-59-8.5-60q0-63 36.5-95t99.5-32h170zm245 155L835 0H609l51 414h-95q-30 0-51-6t-36-17-26-26-22-34L312 127q-25-45-53.5-72T198 13.5t-66-19T63-10Q6-10-16-1t-20 34l18 139h33q38 0 67.5 16t52.5 52l75 116q26 40 58.5 65.5T344 461q-58 12-98 35.5T181 552t-36 69-11 76q0 57 24 115.5t74.5 106 129 77T550 1025h411z"/><glyph unicode="ѐ" horiz-adv-x="982" d="M575 868q-50 0-93-20.5T404.5 790t-60-88.5T304 589q124 17 199.5 37.5t116.5 44 54.5 51T688 779q0 15-6.5 31t-20 28.5-35 21T575 868zM283 418q0-242 205-242 44 0 78 8.5t59.5 20.5 46 27 38 27 34.5 20.5 37 8.5q12 0 23.5-6t20.5-16l63-76q-53-53-104-92T680 34 568-3 440-15q-90 0-163 30.5t-125 86-80.5 134T43 411q0 81 17.5 159T111 718t81 129 108.5 102 133 67 155.5 24q80 0 140.5-23t101-59.5T891 876t20-88q0-69-27.5-126t-98-102T593 482.5 283 431v-13zm249 1044q36 0 53-13.5t28-39.5l103-243H587q-26 0-41.5 7.5T516 1201l-198 261h214z"/><glyph unicode="ё" horiz-adv-x="982" d="M575 868q-50 0-93-20.5T404.5 790t-60-88.5T304 589q124 17 199.5 37.5t116.5 44 54.5 51T688 779q0 15-6.5 31t-20 28.5-35 21T575 868zM283 418q0-242 205-242 44 0 78 8.5t59.5 20.5 46 27 38 27 34.5 20.5 37 8.5q12 0 23.5-6t20.5-16l63-76q-53-53-104-92T680 34 568-3 440-15q-90 0-163 30.5t-125 86-80.5 134T43 411q0 81 17.5 159T111 718t81 129 108.5 102 133 67 155.5 24q80 0 140.5-23t101-59.5T891 876t20-88q0-69-27.5-126t-98-102T593 482.5 283 431v-13zm267 874q0-28-11-52.5t-30.5-42.5-45-28.5T410 1158q-27 0-51.5 10.5T315 1197t-30 42.5-11 52.5q0 29 11 54.5t30 44.5 43.5 30 51.5 11q28 0 53.5-11t45-30 30.5-44.5 11-54.5zm384 0q0-28-11-52.5t-29.5-42.5-44-28.5T796 1158q-29 0-53.5 10.5T699 1197t-29.5 42.5T659 1292q0 29 10.5 54.5T699 1391t43.5 30 53.5 11q28 0 53.5-11t44-30 29.5-44.5 11-54.5z"/><glyph unicode="ђ" horiz-adv-x="1050" d="M372 779q72 82 151.5 127T696 951q65 0 114-24.5t81.5-71 49-113.5T957 590q0-116-23-232t-65-231-101.5-229T635-327l-183 73q73 126 123.5 237t82 210 45 188T716 553q0 109-30.5 160.5T595 765q-62 0-127.5-58.5T343 542L277 0H39l133 1083H25l22 180h147l27 222h238l-27-222h287l-23-180H410z"/><glyph unicode="ѓ" horiz-adv-x="815" d="M446 1039q62 0 118.5-15t99-45 68-75T757 799q0-54-21.5-99.5t-57-83.5-81-71-92.5-62-92.5-56.5-81-55-57-56T253 254q0-32 31-55.5t91-23.5q44 0 80 12.5t65.5 27.5 52.5 27.5 41 12.5q17 0 28-6t22-21l57-88q-40-39-86-67.5t-96-48-102-29T334-14q-76 0-136.5 19T95 57t-64.5 79T8 236q0 73 38 132t95 107 123 88 123 76.5 95 71 38 71.5q0 26-25.5 47T417 850q-36 0-68.5-10T289 818t-49.5-22.5T200 785q-10 0-21.5 5T157 815l-53 101q69 57 158.5 90t183.5 33zm405 423l-257-261q-19-20-36-27.5t-43-7.5H379l158 243q17 26 37 39.5t57 13.5h220z"/><glyph unicode="є" horiz-adv-x="913" d="M831 182q-51-56-97.5-94T639 27 538.5-5.5 423-15q-89 0-159.5 30.5T144 102 69 237 43 413q0 83 18 162t52 149 82 128 108 100 130.5 65.5T583 1041q102 0 173.5-36T883 897l-71-86q-8-10-20-17t-26-7q-17 0-30.5 10.5t-32 22.5-46 22.5T586 853q-47 0-89.5-17.5T418 786t-63.5-78T309 605h387l-20-163H283v-23q0-56 13.5-102t39-79 63-51.5T484 168q57 0 94 16.5t63.5 36 46.5 36 44 16.5q26 0 44-23l55-68z"/><glyph unicode="ѕ" horiz-adv-x="811" d="M724 833q-11-16-21-22.5t-26-6.5q-18 0-36 10t-41.5 22.5-54 22.5-72.5 10q-79 0-121-35.5T310 745q0-41 29.5-66t74.5-44 96.5-38.5 96.5-49 74.5-76T711 352q0-74-29.5-141T597 93.5t-132.5-80T290-16q-48 0-94 9.5T110.5 20 38 60t-56 50l61 94q11 17 26 26t37 9q21 0 38-13t39.5-28.5 55-28.5 83.5-13q41 0 72.5 11t53.5 30 33 44 11 53q0 34-17 56.5t-45.5 39-64.5 29-73.5 26.5-73 32-64 45.5-45.5 67T92 686q0 68 26 132.5t76 114 123.5 79.5 168.5 30q98 0 174-33.5T787 923z"/><glyph unicode="і" horiz-adv-x="490" d="M416 1026L293 0H50l123 1026h243zm63 299q0-32-13.5-60t-35.5-49-50-33.5-58-12.5q-29 0-56 12.5t-48 33.5-33.5 49-12.5 60 13 61 34 50.5 48.5 34T324 1483q30 0 58-12.5t49.5-33.5 34.5-50 13-62z"/><glyph unicode="ї" horiz-adv-x="490" d="M416 1026L293 0H50l123 1026h243zm-109 266q0-28-11-52.5t-30.5-42.5-45-28.5T166 1158q-27 0-51.5 10.5t-43 28.5-29.5 42.5-11 52.5q0 29 11 54.5t29.5 44.5 43 30 51.5 11q29 0 54.5-11t45-30 30.5-44.5 11-54.5zm320 0q0-28-11-52.5t-30-42.5-44.5-28.5T488 1158t-53 10.5-43.5 28.5-29.5 42.5-11 52.5q0 29 11 54.5t29.5 44.5 43.5 30 53 11 53.5-11 44.5-30 30-44.5 11-54.5z"/><glyph unicode="ј" horiz-adv-x="488" d="M415 1026L286-35q-8-67-33.5-126T184-264.5t-103.5-70T-58-360q-40 0-68 4.5t-56 14.5l24 133q5 20 18.5 25.5T-92-177q33 0 56.5 7.5t39.5 24T29.5-102 44-35l129 1061h242zm55 299q0-32-13.5-60t-35.5-49-50-33.5-58-12.5q-29 0-56 12.5t-48 33.5-33.5 49-12.5 60 13 61 34 50.5 48.5 34T315 1483q30 0 58-12.5t49.5-33.5 34.5-50 13-62z"/><glyph unicode="љ" horiz-adv-x="1572" d="M953 248q-5-39 24.5-66t89.5-27q46 0 85.5 25.5t68.5 65 46 88 17 95.5q0 23-4.5 44.5t-15 38-29.5 26-47 9.5q-39 0-78-23t-71.5-60.5-54.5-84-27-92.5zm38 322q63 69 138.5 107.5T1273 716q54 0 98-17.5t75.5-50.5 49-80 17.5-105q0-97-41.5-184t-113-152T1192 23.5 991-15q-154 0-223.5 74.5T715 266l69 577h-15q-58 0-104-14.5t-82-49-63-92.5-46-145q-34-159-75.5-266T307 104.5t-110.5-92T63-15Q7-15-14.5-5.5T-33 29l17 140h32q45 0 76 19t55.5 64 46 119T242 555q30 124 75 213t112.5 145.5T589 997t217 28v1h241z"/><glyph unicode="њ" horiz-adv-x="1533" d="M915 248q-5-39 24.5-66t89.5-27q46 0 85.5 25.5t68.5 65 46 88 17 95.5q0 23-4.5 44.5t-15 38-29.5 26-47 9.5q-39 0-78-23t-71.5-60.5-54.5-84-27-92.5zm38 322q63 69 138.5 107.5T1235 716q54 0 98-17.5t75.5-50.5 49-80 17.5-105q0-97-41.5-184t-113-152T1154 23.5 953-15q-154 0-223.5 74.5T677 266l22 183H340L287 0H40l123 1026h246l-47-399h358l48 399h241z"/><glyph unicode="ћ" horiz-adv-x="1082" d="M386 820q75 97 162.5 144t178.5 47q65 0 116.5-26t85-75.5 46.5-122 1-165.5L902 0H656l74 622q12 100-11 144.5T633 811q-38 0-79-22t-79.5-62-71.5-97-55-126L287 0H40l137 1131H34l20 153h142l24 202h247l-24-202h249l-13-88q-5-31-25-48t-54-17H424z"/><glyph unicode="ќ" horiz-adv-x="1012" d="M621 826q39 55 66.5 93.5t55 62.5 62 34.5T893 1027h103l-25-127q-5-27-17.5-35.5t-29.5-13-37-13-40-36.5L734 648q-30-43-59-67t-73-34q63-12 101-45.5t62-96.5L924 0H783q-32 0-54.5 5.5T689 21t-29 25-21 35L527 370q-12 37-41.5 60.5T419 454l-89-17L277 0H39l125 1026h238l-53-431 58 13q19 4 33 8.5t25 11 20.5 16T506 668zm319 636l-257-261q-19-20-36-27.5t-43-7.5H468l158 243q17 26 37 39.5t57 13.5h220z"/><glyph unicode="ѝ" horiz-adv-x="1082" d="M1017 1026L893 0H768q-88 0-88 85l6 118Q608 93 515.5 39T324-15q-64 0-115 26t-84 75.5T78.5 209 77 375l77 651h247l-77-651q-13-101 10-144.5t84-43.5q40 0 81.5 22t80.5 63 72 98.5T707 499l63 527h247zm-473 436q36 0 53-13.5t28-39.5l103-243H599q-26 0-41.5 7.5T528 1201l-198 261h214z"/><glyph unicode="ў" horiz-adv-x="983" d="M1032 1026L354-284q-14-26-33-38.5T274-335H91L319 79 60 1026h207q27 0 40.5-13.5T326 980l126-532q10-51 15-102 11 26 22.5 51.5T513 449l253 532q10 20 29 32.5t39 12.5h198zm-455 260q34 0 58 8t39.5 26.5 25 49.5 14.5 76h134q24 0 33-21.5t6-47.5q-6-51-32-92.5t-68.5-70-99.5-44-125-15.5-121.5 15.5-89.5 44-53 70-11 92.5q3 26 17.5 47.5T342 1446h135q-5-45-3-76t13.5-49.5 33-26.5 56.5-8z"/><glyph unicode="џ" horiz-adv-x="1082" d="M1017 1026L893 0H768q-88 0-88 85l6 118q-38-54-79-93.5T521 43l-39-316q-5-33-26.5-52.5T405-345H256l41 331q-58 5-104 33.5t-75 78-40.5 119T77 375l77 651h247l-77-651q-13-101 10-144.5t84-43.5q40 0 81.5 22t80.5 63 72 98.5T707 499l63 527h247z"/><glyph unicode="Ѡ" horiz-adv-x="2005" d="M1204 1331q63 57 143 93t189 36q110 0 187.5-45t126.5-122.5 71.5-180.5 22.5-219q0-205-41-372.5t-121-287T1584.5 49 1314-16q-118 0-208.5 42.5T945 148Q856 69 754.5 26.5T535-16q-111 0-194 42T202 145t-84 187-28 245q0 114 14 224t44.5 208 77 181 112 143 150 93.5T677 1460q54 0 98.5-9.5t81.5-27 66.5-41T977 1331l-70-128q-16-21-28-27.5t-29-6.5q-15 0-29.5 11t-33.5 24-45 24-65 11q-77 0-138-45t-104-131-65.5-210T347 571q0-86 14.5-154.5t44-115.5 74.5-72 105-25q71 0 132.5 28T834 314l58 470h262l-58-470q43-54 97.5-82t125.5-28q79 0 146 38t116 119 76.5 207.5T1685 872q0 178-52.5 272.5T1481 1239q-39 0-67.5-11t-51-24-39.5-24-32-11q-17 0-27.5 6.5T1242 1203z"/><glyph unicode="ѡ" horiz-adv-x="1457" d="M1384 1025q1-19 2.5-43.5t2.5-49 1.5-47 .5-37.5q0-147-24.5-267.5t-71.5-222-115.5-189T1024 0H884q-19 0-29 7t-23 24q-42 57-79 133t-61 166q-45-89-101-166T479 30q-17-16-26-23t-29-7H281q-48 58-87 127t-65 144.5T92.5 429 92 595l54 430h162q36 0 49-21.5t10-47.5l-42-335q-15-125 12.5-224.5T421 222q34 36 65.5 81t57.5 96 44 107 25 115l50 404h163q35 0 48.5-21.5T885 956l-41-327q-14-115 11-220t83-186q42 42 81.5 96t70.5 123 50 155 19 192q0 63-6 105t-6 65q0 26 15.5 46t41.5 20h180z"/><glyph unicode="Ѣ" horiz-adv-x="1370" d="M783 202q70 0 120 18.5t82 52.5 47.5 83 15.5 109q0 40-11 73t-36 56-65.5 35.5T836 642H627l-54-440h210zm79 642q119 0 203.5-27t138.5-73.5 79-109.5 25-135q0-111-38-203t-109.5-158T987 36 757 0H289l129 1051H100l24 190h317l25 204h259l-25-204h389l-23-190H676l-25-207h211z"/><glyph unicode="ѣ" horiz-adv-x="1080" d="M446 248q-5-39 24.5-66t89.5-27q46 0 85.5 25.5t68.5 65 46 88 17 95.5q0 23-4.5 44.5t-15 38-29.5 26-47 9.5q-39 0-78-23t-71.5-60.5-54.5-84-27-92.5zm38 322q63 69 138.5 107.5T766 716q54 0 98-17.5t75.5-50.5 49-80 17.5-105q0-97-41.5-184t-113-152T685 23.5 484-15q-154 0-223.5 74.5T208 266l55 463 14 118H48l22 179h229l33 269h241l-33-269h271l-23-179H518z"/><glyph unicode="Ѥ" horiz-adv-x="1774" d="M675 830q30 142 95.5 258.5t158.5 199 209.5 128T1387 1461q141 0 244-51.5t167-135.5l-101-121q-10-11-23-20t-33-9q-14 0-27 8.5t-28 21.5-34 27.5-46 27.5-63 21.5-85 8.5q-75 0-142.5-28t-122-80.5-94-128.5T940 830h555l-24-192H920v-6q0-100 23.5-179.5T1009 318t99.5-84.5T1234 204q46 0 83.5 6t71 19.5 64 35T1515 316q11 8 22.5 13.5t23.5 5.5q9 0 18-4t16-12l89-112q-90-108-213-165.5T1190-16q-128 0-228 47T793.5 161.5 689 359.5 653 610v28H415L336 0H76l177 1445h261l-76-615h237z"/><glyph unicode="ѥ" horiz-adv-x="1290" d="M1207 821q-13-14-24-22t-30-8q-18 0-34.5 11t-38 23.5-51 23.5-73.5 11q-43 0-81-18t-69.5-52-55-81.5T714 603h365l-22-170H697q2-126 50.5-196.5T882 166q46 0 77 13t54.5 29 42.5 29 41 13q17 0 26-6.5t20-21.5l52-77q-35-36-78-65.5T1027 29 929.5-3.5 828-15q-79 0-146.5 30.5t-117 88T487 243t-28 186v4H322L269 0H39l126 1025h229l-52-422h137q22 95 66.5 175t107 138.5 140 91.5 165.5 33q101 0 180-36.5T1276 899z"/><glyph unicode="Ѧ" horiz-adv-x="1363" d="M851 763l-63 277q-9 34-18 80t-16 100q-20-54-40-100.5t-38-81.5L547 763h304zM1297 0h-208q-33 0-52.5 16.5T1010 59L892 580h-95L726 0H480l72 580h-92L215 59q-11-23-35.5-41T122 0H-87l745 1445h249z"/><glyph unicode="ѧ" horiz-adv-x="1082" d="M636 523l-40 151q-8 29-15.5 68.5T567 828q-17-47-34.5-86.5T501 673l-75-150h210zM1012 0H828q-29 0-46 14.5T759 51l-81 310h-61L573 0H357l44 361h-57L188 51q-10-20-31-35.5T107 0H-79l562 1026h220z"/><glyph unicode="Ѩ" horiz-adv-x="1920" d="M1407 763l-63 277q-9 34-17.5 80t-15.5 100q-20-54-40-100.5t-38-81.5l-129-275h303zM1855 0h-209q-34 0-53 16.5T1567 59l-118 521h-94L1283 0h-245l71 580h-92L772 59q-11-23-35.5-41T680 0H469l299 580H407L336 0H76l177 1445h261l-84-682h432l352 682h251z"/><glyph unicode="ѩ" horiz-adv-x="1519" d="M1073 523l-39 151q-8 29-15.5 68.5T1005 828q-17-47-34.5-86.5T938 673l-75-150h210zM1449 0h-184q-30 0-46.5 14.5T1196 51l-81 310h-60L1011 0H795l44 361h-58L625 51q-9-20-30.5-35.5T544 0H358l198 361H313L269 0H39l126 1026h230l-62-503h311l276 503h220z"/><glyph unicode="Ѫ" horiz-adv-x="1585" d="M693 994q23-36 42.5-65t34.5-56.5 25-54.5 15-58q12 31 29 58t38.5 54.5T926 929t59 65l217 267H542zm387-177q68-11 118.5-37.5t87.5-68 61.5-98T1389 487L1502 0h-210q-32 0-52 18t-26 41l-72 406q-10 52-23 86t-34.5 53.5-54 27.5-81.5 8h-22l-2-2h-9L838 0H591l79 638h-5l-1 2h-19q-49 0-83.5-8t-61-27.5-48-53.5-43.5-86L237 59q-11-23-35.5-41T145 0H-65l232 487q34 70 72.5 126t85 97.5 103 68T554 816l-391 629h1463z"/><glyph unicode="ѫ" horiz-adv-x="1249" d="M514 743l37-55.5 30-48.5 22-46.5 13-50.5q10 27 25 50.5t33.5 46.5 42 48.5T768 743l106 120H437zm341-157q48-11 83.5-33.5t61.5-55 44.5-75.5 33.5-95l88-327H980q-29 0-46 15.5T911 51l-51 258q-8 40-18.5 64.5t-27.5 38-42 18.5-61 5h-3L655 0H439l53 435q-35 0-60.5-5.5t-45.5-19-36.5-38T316 309L203 51q-11-20-32-35.5T121 0H-64l167 327q27 52 56.5 94.5t63 75T296 551t90 34L93 1025h1163z"/><glyph unicode="Ѭ" horiz-adv-x="2160" d="M1269 994q23-35 42.5-64.5T1346 873t25-53.5 15-57.5q12 31 29 57.5t38.5 53.5 48 56.5T1560 994l217 267h-660zm386-177q68-11 119-37.5t87.5-68 61.5-98 41-126.5L2077 0h-209q-33 0-53 18t-26 41l-72 406q-10 52-23 86t-34.5 53.5-54 27.5-81.5 8h-22l-2-2h-9L1413 0h-246l79 638h-5l-1 2h-26q-43 0-76-7.5t-59.5-27.5-49.5-54-45-86L810 59q-11-23-35.5-41T717 0H508l231 485q23 51 65.5 89.5T901 640H415L336 0H76l177 1445h261l-77-622h689l-388 622h1463z"/><glyph unicode="ѭ" horiz-adv-x="1692" d="M958 743q21-31 38-56t30-48.5 21.5-47T1060 541q11 27 25.5 50.5t33 47 42 48.5 51.5 56l106 120H881zm342-157q48-11 83-33.5t61-55 44.5-75.5 33.5-95l87-327h-185q-29 0-46.5 15.5T1355 51l-50 258q-8 40-18.5 64.5t-28 38T1216 430t-61 5h-2L1100 0H884l52 435q-33 0-58-5t-45.5-18.5-38-38T760 309L643 51q-10-20-30.5-35.5T563 0H378l167 327q17 35 47 61.5t68 46.5H322L269 0H39l126 1026h230l-53-429h481l-285 428h1163z"/><glyph unicode="Ѯ" horiz-adv-x="1063" d="M641-398q3 51-21 70.5T532-308q-22 0-39.5-1.5t-37-3.5-44.5-3.5-62-1.5q-205 0-303 61T-52-73q0 74 23.5 132t68 98T147 218t143 21q29 0 54.5-3t49-6 46-6 45.5-3q56 0 99.5 19t73 52 45 78 15.5 98q0 95-62.5 142.5T486 656H297l25 209h171q127 0 197.5 57t70.5 162q0 75-53.5 120.5T549 1250q-65 0-114.5-16t-87-35.5T283 1163t-47-16-31.5 10-20.5 30l-49 122q86 72 198.5 111.5T577 1460q101 0 180.5-25t135-69.5 85-106.5 29.5-136q0-115-53.5-209T793 764q76-42 122.5-112T962 481q0-88-32.5-172.5t-98-151T666.5 50 434 9q-30 0-53 2t-41.5 5-33.5 5-30 2q-43 0-63.5-20.5T192-56q0-34 31-51.5T335-125q60 0 122 5t107 5q60 0 100-13.5t64.5-37 35-55.5 10.5-70q0-53-13.5-80T708-398h-67z"/><glyph unicode="ѯ" horiz-adv-x="825" d="M564 1021q48-15 84-38.5t60.5-54 37-65.5 12.5-72q0-32-9.5-67.5t-31.5-69-57.5-62.5-87.5-48q75-32 111-89.5T719 331q0-71-27.5-132.5T612 90.5t-125.5-73T322-9q-37 0-71.5 4T195-1q-32 0-50.5-16T126-70q0-35 24-50.5t69-15.5q19 0 45.5 1.5t54 3.5 55 3.5T423-126q60 0 100-13t64.5-36.5 35-56T633-302q0-52-13-79.5T568-409h-68q4 51-20.5 71T392-318q-45 0-89.5-5t-87.5-5q-60 0-111.5 15.5t-89 45.5-58.5 73.5T-65-93q0 56 18 104.5t52.5 84 86 56T209 172q28 0 57.5-3.5T319 165q41 0 73 13t54.5 35.5T481 266t12 64q0 60-40.5 92.5T323 455H216l19 155h107q93 0 144.5 39.5T538 752q0 46-36.5 77T392 860q-48 0-82.5-11t-60-24-44-24-33.5-11q-17 0-27 6.5T124 824l-43 91q51 46 117 78.5t151 43.5l-163 253h136q26 0 42-7t27-25l55-100q5-10 11-21t11-24q18 27 34 45l70 90q20 26 51 39t68 13q23 0 42.5-4.5T770 1285l-13-110h-16q-25 0-41-13.5t-30-27.5z"/><glyph unicode="Ѱ" horiz-adv-x="1546" d="M1566 1445l-64-518q-16-127-64.5-230T1309 519t-190.5-119T868 348L825 0H564l43 348q-137 8-236.5 52t-161 119T125 697.5 118 927l64 518h174q41 0 60.5-25.5T432 1358l-53-431q-11-85-4-151t36.5-112.5 83.5-73T633 557l109 888h260L893 556q86 7 147.5 33.5t102.5 73 64 112.5 34 152l53 431q5 36 30 61.5t67 25.5h175z"/><glyph unicode="ѱ" horiz-adv-x="1469" d="M1386 1026q1-26 2-59t2-67 1.5-64 .5-50q0-149-22.5-263.5t-63-200.5-96.5-145.5-124-98-145.5-59T780-9l-40-326H502l40 324Q407 0 313.5 39.5T165 144 91 298t-5 199l65 529h165q15 0 27-8t20.5-20.5 12-29T377 935l-53-438q-17-138 46.5-216.5T565 180l156 1265h237L803 177q83 9 147.5 38t108 87.5 66 151T1147 682q0 41-2.5 76t-4.5 67-3 62 1 60q5 43 28 61t48 18h172z"/><glyph unicode="Ѳ" horiz-adv-x="1506" d="M347 631q0-98 24-178t70-136.5 112.5-87T705 199q91 0 168 30.5t137 87.5 101 138 60 183H347v-7zm840 199q-2 95-27.5 172t-72 132-112.5 84.5-148 29.5q-88 0-162.5-29T531 1136t-101-131.5T367 830h820zm-328 632q138 0 248-49t187-135 118-203.5 41-254.5q0-120-26.5-228.5T1351 390t-119-168-156.5-128T888 12.5 676-16q-138 0-248 49T240.5 168 122 371 81 625q0 120 26.5 228.5t76 201.5 119 168 156 128.5 187.5 82 213 28.5z"/><glyph unicode="ѳ" horiz-adv-x="1047" d="M283 442q-1-8-1-15v-15q0-130 43.5-191.5T459 159q49 0 90.5 21.5t75 59 58 89.5T722 442H283zm458 173q0 131-43.5 192T564 868q-48 0-88.5-20T402 792t-58-85.5T304 598h437v17zm-157 427q85 0 157.5-28.5t125-83.5T949 795t30-183q0-132-43-246.5t-116.5-199T648 33.5 439-15q-85 0-157 28.5T157 97 74 232 44 415q0 133 43 248t116.5 199T375 994t209 48z"/><glyph unicode="Ѵ" horiz-adv-x="1333" d="M987 1238q47 109 123 162.5t196 53.5q34 0 55-2.5t32-10 13.5-20-.5-32.5l-18-145h-51q-82 0-129-104L689 0H454L94 1445h203q34 0 54-16.5t26-42.5l193-900q11-42 20-91.5T605 291q18 54 38 103.5t41 91.5z"/><glyph unicode="ѵ" horiz-adv-x="1020" d="M673 839q23 63 52.5 101.5T789 1001t72 29.5 79 7.5q32 0 52-3.5t30.5-9 14-11.5 3.5-11l-17-131h-28q-38 0-66.5-17T882 798L522 0H306L56 1025h198q26 0 42.5-13t20.5-32l112-562q8-38 13.5-75t8.5-74q13 36 26.5 73t27.5 76z"/><glyph unicode="Ѷ" horiz-adv-x="1333" d="M987 1238q47 109 123 162.5t196 53.5q34 0 55-2.5t32-10 13.5-20-.5-32.5l-18-145h-51q-82 0-129-104L689 0H454L94 1445h203q34 0 54-16.5t26-42.5l193-900q11-42 20-91.5T605 291q18 54 38 103.5t41 91.5zm-214 586q37 0 58.5-14t33.5-39l101-222H859q-26 0-40.5 9.5T787 1585l-162 239h148zm-343 0q36 0 58.5-14.5T528 1771l143-222H548q-26 0-43.5 9t-34.5 27l-211 239h171z"/><glyph unicode="ѷ" horiz-adv-x="1021" d="M674 839q23 63 52.5 101.5T790 1001t72 29.5 79 7.5q32 0 52-3.5t30.5-9 14-11.5 3.5-11l-17-131h-28q-38 0-66.5-17T883 798L523 0H307L57 1025h198q26 0 42.5-13t20.5-32l112-562q8-38 13.5-75t8.5-74q13 36 26.5 73t27.5 76zm-97 623q37 0 54-13.5t27-39.5l89-243h-93q-26 0-42.5 7.5T583 1201l-154 261h148zm-305 0q37 0 52.5-13.5T353 1409l136-243H382q-26 0-42 7.5t-30 27.5l-201 261h163z"/><glyph unicode="Ѹ" horiz-adv-x="2478" d="M1453 820q0-120-26.5-228.5T1351 390t-119-168-156.5-128T888 12.5 676-16q-138 0-248 49T240.5 168 122 371 81 625q0 120 26.5 228.5t76 201.5 119 168 156 128.5 187.5 82 213 28.5q138 0 248-49t187-135 118-203.5 41-254.5zm-266-6q0 98-24.5 178t-71 137-113.5 88-151 31q-108 0-196.5-44T479 1079t-97.5-195T347 631q0-98 24-178t70-136.5 112.5-87T705 199q109 0 198 44t152 124 97.5 193.5T1187 814zm1340 212L1849-284q-14-26-33-38.5t-47-12.5h-183l228 414-259 947h207q27 0 40.5-13.5T1821 980l126-532q10-51 15-102 11 26 22.5 51.5T2008 449l253 532q10 20 29 32.5t39 12.5h198z"/><glyph unicode="ѹ" horiz-adv-x="2062" d="M462 175q62 0 112 35.5t85 95T713 444t19 166q0 125-42 183.5T562 852q-62 0-112.5-35T364 722.5 310 584t-19-167q0-125 42-183.5T462 175zM439-15q-85 0-157 28.5T157 97 74 232 44 415q0 133 43 248t116.5 199T375 994t209 48q85 0 157.5-28.5t125-83.5T949 795t30-183q0-132-43-246.5t-116.5-199T648 33.5 439-15zm1672 1041L1433-284q-14-26-33-38.5t-47-12.5h-183l228 414-259 947h207q27 0 40.5-13.5T1405 980l126-532q10-51 15-102 11 26 22.5 51.5T1592 449l253 532q10 20 29 32.5t39 12.5h198z"/><glyph unicode="Ѻ" horiz-adv-x="1606" d="M895 207q90 17 162.5 67.5t123.5 129 78.5 182T1287 814q0 79-16 146.5t-46.5 120.5-74.5 90.5-101 57.5q-28-32-66.5-50t-83.5-18q-48 0-88 22t-66 58q-91-16-164.5-66T455 1046t-80-184-28-231q0-81 16.5-149.5t48-121.5 77.5-90 105-55q26 32 63.5 50t81.5 18q48 0 88.5-20.5T895 207zm658 613q0-161-47.5-301t-133-248.5-204-180T909-5q-26-43-71-69.5T739-101q-51 0-94 25T576-9Q460 8 368 63T212.5 201.5 115 393 81 625q0 163 48.5 304.5T265 1180t207.5 180 264.5 93q26 42 68.5 67t93.5 25q53 0 97-24.5t70-66.5q114-18 204.5-73.5t153-139 96-191T1553 820z"/><glyph unicode="ѻ" horiz-adv-x="1215" d="M700 188q46 18 83.5 58.5t63 96.5T886 467.5 900 610q0 170-81 221-27-37-69-59t-91-22q-51 0-94 25t-69 67q-48-17-86-57.5t-64.5-97-40.5-126T291 417q0-169 81-220 26 39 67.5 62.5T530 283q54 0 99-26t71-69zm447 424q0-118-34.5-222T1018 204.5 876 68 700-6q-26-43-71-69t-99-26q-51 0-94 25t-69 66Q296 1 236.5 34.5t-102 87.5T68 249.5 44 415q0 118 34.5 222T173 823t141.5 136.5T491 1033q25 45 69.5 73t98.5 28q55 0 100.5-27t71.5-72q70-12 128-45.5t100-87.5 65-127 23-163z"/><glyph unicode="Ѽ" horiz-adv-x="2006" d="M1534 1656q-93 0-160 20.5t-118.5 45.5-93 45.5-84.5 20.5q-50 0-82.5-33t-40.5-99H810q15 126 88.5 192.5T1086 1915q44 0 81-10t71-25 67-33 69.5-33 79-25 95.5-10zm-496-247q1 22 42 30 31 8 47.5 22t21.5 46q-5-1-9-1.5t-9-.5q-50 0-70 22t-20 51q0 45 29 75.5t80 30.5q50 0 74.5-31.5t24.5-80.5q0-42-13.5-79t-40.5-64.5-68-43-95-15.5zm167-78q62 57 142.5 93t189.5 36q110 0 187.5-45t126.5-122.5 71.5-180.5 22.5-219q0-205-41-372.5t-121-287T1585.5 49 1315-16q-118 0-208.5 42.5T946 148Q857 69 755.5 26.5T536-16q-111 0-194 42T203 145t-84 187-28 245q0 114 14 224t44.5 208 77 181 112 143 150 93.5T678 1460q54 0 98.5-9.5t81-27 66-41T977 1331l-70-128q-15-21-27-27.5t-29-6.5q-15 0-29.5 11t-33.5 24-45.5 24-65.5 11q-77 0-137.5-45T436 1063t-65.5-210T348 571q0-86 14.5-154.5t44-115.5 74-72T586 204q99 0 170.5 54.5T882 413h194q29-100 87.5-154.5T1320 204q79 0 146 38t115.5 119 76 207.5T1685 872q0 178-52 272.5t-151 94.5q-39 0-68-11t-51-24-39.5-24-32.5-11q-16 0-26.5 6.5T1243 1203z"/><glyph unicode="ѽ" horiz-adv-x="1455" d="M1215 1278q-62 0-112 10t-91.5 24.5-75.5 32-64 32-58 24.5-56 10q-50 0-82-33.5t-40-98.5H490q16 126 90 192.5t187 66.5q44 0 81-10t71-25.5 67-33 69.5-33 79-25.5 95.5-10zm-497-246q2 12 11.5 19t31.5 12q31 7 47.5 21.5T830 1131q-10-2-18-2-51 0-71 21.5t-20 50.5q0 45 29.5 75.5T831 1307q50 0 74.5-32t24.5-81q0-42-13.5-78.5T876 1052t-67.5-42.5T714 994zm115-92q46 42 107 69t143 27q81 0 137-32t91.5-87.5 51.5-129 16-155.5q0-141-27.5-259t-84-203.5-141.5-133T927-11q-84 0-147.5 28T665 99q-64-54-134.5-82T376-11q-83 0-143.5 30.5T132 105 72.5 237 53 408q0 80 10 158t31.5 148 55 129T230 945t108.5 67 138.5 24q81 0 135.5-27t89.5-69l-61-115q-14-19-25-24t-25-5q-13 0-23.5 7t-23 15.5T516 834t-39 7q-44 0-81-28.5T332.5 728t-41-139T277 397q0-99 34-156.5T420 183q63 0 107 36t82 111h169q19-75 54-111t99-36q52 0 92.5 24.5t69 77 43.5 134 15 195.5-30.5 170.5T1035 841q-23 0-41-7t-33-15.5-27.5-15.5-25.5-7q-14 0-23.5 5T866 825z"/><glyph unicode="Ѿ" horiz-adv-x="2005" d="M1204 1331q63 57 143 93t189 36q110 0 187.5-45t126.5-122.5 71.5-180.5 22.5-219q0-205-41-372.5t-121-287T1584.5 49 1314-16q-118 0-208.5 42.5T945 148Q856 69 754.5 26.5T535-16q-111 0-194 42T202 145t-84 187-28 245q0 114 14 224t44.5 208 77 181 112 143 150 93.5T677 1460q54 0 98.5-9.5t81.5-27 66.5-41T977 1331l-70-128q-16-21-28-27.5t-29-6.5q-15 0-29.5 11t-33.5 24-45 24-65 11q-77 0-138-45t-104-131-65.5-210T347 571q0-86 14.5-154.5t44-115.5 74.5-72 105-25q71 0 132.5 28T834 314l58 470h262l-58-470q43-54 97.5-82t125.5-28q79 0 146 38t116 119 76.5 207.5T1685 872q0 178-52.5 272.5T1481 1239q-39 0-67.5-11t-51-24-39.5-24-32-11q-17 0-27.5 6.5T1242 1203zm362 461q-2-14-4.5-24t-6.5-22l-79-202q-6-15-16-22t-20.5-7-19 7.5-10.5 21.5l-19 127h-180l-50-127q-6-15-16-22t-20.5-7-19 7.5-10.5 21.5l-19 127H894l-50-127q-6-15-16.5-22t-20.5-7-18.5 7.5T778 1544l-30 201q-1 11-1.5 22t1.5 25h818z"/><glyph unicode="ѿ" horiz-adv-x="1457" d="M1384 1025q1-19 2.5-43.5t2.5-49 1.5-47 .5-37.5q0-147-24.5-267.5t-71.5-222-115.5-189T1024 0H884q-19 0-29 7t-23 24q-42 57-79 133t-61 166q-45-89-101-166T479 30q-17-16-26-23t-29-7H281q-48 58-87 127t-65 144.5T92.5 429 92 595l54 430h162q36 0 49-21.5t10-47.5l-42-335q-15-125 12.5-224.5T421 222q34 36 65.5 81t57.5 96 44 107 25 115l50 404h163q35 0 48.5-21.5T885 956l-41-327q-14-115 11-220t83-186q42 42 81.5 96t70.5 123 50 155 19 192q0 63-6 105t-6 65q0 26 15.5 46t41.5 20h180zm-142 347q-2-14-4.5-24t-6.5-22l-79-202q-6-15-16-22t-20.5-7-19 7.5-10.5 21.5l-19 127H887l-50-127q-6-15-16-22t-20.5-7-19 7.5T771 1124l-19 127H570l-50-127q-6-15-16.5-22t-20.5-7-18.5 7.5T454 1124l-30 201q-1 11-1.5 22t1.5 25h818z"/><glyph unicode="Ҁ" horiz-adv-x="1199" d="M725-6q-23-2-45.5-2.5T643-9Q509-9 404.5 37.5T228 166.5 118.5 363 81 613q0 125 27 236.5t77 206T305 1225t155.5 128 184 81 205.5 28q79 0 144-14.5t117.5-40.5 95-62.5 76.5-81.5l-90-108q-11-12-24-21t-33-9q-22 0-42 18t-50.5 39.5-79 39.5-127.5 18q-104 0-193.5-42.5T488 1076 384.5 885.5 347 635q0-101 25.5-181T443 318.5t107-85T686 204q55 0 87 5t53 10.5 36 10.5 36 5h74l-63-508q-5-33-26.5-52.5T832-345H684z"/><glyph unicode="ҁ" horiz-adv-x="880" d="M488-11q-18-2-34.5-3T423-15q-89 0-159.5 30.5T144 102 69 237 43 413q0 83 18 162t52 149 82 128 108 100 130.5 65.5T583 1041q102 0 173.5-36T883 897l-79-94q-8-9-20-16.5t-26-7.5q-17 0-30.5 10.5t-32 22.5-46 22.5T578 845q-57 0-109-31t-92-88-63.5-137T290 412q0-119 51-182.5T478 166q31 0 58 5t48 10.5 35.5 10.5 20.5 5h91l-58-471q-5-33-26.5-52T596-345H447z"/><glyph unicode="҂" horiz-adv-x="1359" d="M906 817L658 487l307-250L826 64 525 310 278-17 95 115l255 338L42 704l139 172 302-246 249 329-311 253 139 173 305-249 246 326 183-131-254-337 304-248-138-173z"/><glyph unicode="҃" horiz-adv-x="736" d="M299 1178l-11-96h-60q-26 0-48.5 8.5t-39 25-24.5 41-4 57.5q4 36 17 61.5t32.5 42 44.5 24 52 7.5h464l11 97h60q25 0 48-8.5t39.5-25.5 24.5-41.5 4-57.5q-4-36-17.5-61.5t-33-42-44-24-51.5-7.5H299z"/><glyph unicode="҄" horiz-adv-x="736" d="M635 1303q-37 0-69.5-11t-65.5-27-69.5-35-80.5-35-98.5-27-123.5-11l18 148q59 0 106.5 11t89 27.5 79 35.5 76 35.5T577 1442t92 11q69 0 115-19t72.5-56.5 34.5-93-1-127.5H730q5 43-1.5 71.5t-20 45-33 23-40.5 6.5z"/><glyph unicode="҅" horiz-adv-x="736" d="M609 1110q-58-1-99 17.5t-66 50-34 73.5-4 89q8 72 47 111t105 39q55 0 81-33t21-84q-3-20-11-39t-23.5-33-39-22.5-56.5-8.5h-11l-10 1q1-32 16.5-49t47.5-25q25-6 34-15t7-24z"/><glyph unicode="҆" horiz-adv-x="736" d="M406 1156q2 15 13 24t37 15q37 8 56 24.5t26 51.5q-11-3-23-3-33 0-54.5 8.5T427 1299t-16 33-2 39q6 51 40 83.5t88 32.5q33 0 57-12.5t38.5-34 20-51.5 1.5-66q-5-47-23.5-87t-50.5-68.5-77-44.5-103-16z"/><glyph unicode="҈" horiz-adv-x="2256" d="M1128 24q67 0 117.5-19t84-52.5T1380-128t17-103h-173q0 52-20 77.5t-76 25.5-75-25.5-19-77.5H861q0 56 17 103t50.5 80.5T1012 5t116 19zm0 1578q67 0 117.5-19t84-53 50.5-81 17-103h-173q0 52-20 78t-76 26-75-26-19-78H861q0 56 17 103t50.5 81 83.5 53 116 19zM335 813q67 0 117.5-19t84-52.5 50-80.5T603 558H431q0 52-20 77.5T335 661t-75.5-25.5T240 558H68q0 56 16.5 103t50 80.5T218 794t117 19zm1587 0q67 0 117-19t83.5-52.5T2173 661t17-103h-173q0 52-19.5 77.5T1922 661t-75.5-25.5T1827 558h-173q0 56 17 103t50.5 80.5T1805 794t117 19zM528 364q67 0 117.5-19t84-52.5 50-80.5T796 109H623q0 51-19.5 77T528 212t-75.5-26-19.5-77H261q0 56 16.5 103t50 80.5T411 345t117 19zm1201 0q67 0 117.5-19t84-52.5 50-80.5 16.5-103h-173q0 51-19.5 77t-75.5 26-75.5-26-19.5-77h-173q0 56 17 103t50.5 80.5T1612 345t117 19zM528 1262q67 0 117.5-19t84-52.5 50-80.5 16.5-103H623q0 52-19.5 77.5T528 1110t-75.5-25.5T433 1007H261q0 56 16.5 103t50 80.5T411 1243t117 19zm1201 0q67 0 117.5-19t84-52.5 50-80.5 16.5-103h-173q0 52-19.5 77.5T1729 1110t-75.5-25.5-19.5-77.5h-173q0 56 17 103t50.5 80.5 83.5 52.5 117 19z"/><glyph unicode="҉" horiz-adv-x="2198" d="M1907 1273q2-12-1-19.5t-11-15.5q-5-5-15-7.5t-20-2.5q-15-1-36.5-2t-46.5-5.5-51-13-50-24.5q40-41 38.5-92.5T1671 997q-18-18-40.5-27t-46.5-8.5-47.5 10.5-44.5 30q-24 25-33.5 51.5t-7 53.5 16.5 52.5 36 47.5q31 30 74.5 55t96 41.5 111 22.5 120.5-1zM96 761q14 17 33 16 8 0 16.5-5t15.5-12q11-10 27-24.5t36.5-29 45-27T322 661q1 57 39.5 92.5T458 789q26 0 48.5-9.5t39-26.5 26-40.5T581 660q0-35-12.5-60.5t-33.5-42-49-25-59-8.5q-44 0-92 13t-96.5 38.5-94.5 63T60 724zM307 11q-2 12 1 19.5T319 46q5 5 15 7.5t20 2.5q15 1 36.5 2t46.5 5.5 51 13 50 24.5q-40 41-38 92.5t43 93.5q18 18 40.5 27t46.5 8.5 47.5-10.5 44.5-30q24-25 33.5-51.5t7-53.5-16.5-52.5T710 77q-31-30-74.5-55t-96-41.5T428-42t-120 1zm168 1431q12 1 19.5-2t15.5-11q6-5 8.5-14.5t1.5-19.5q1-15 2.5-36.5t6-46 13-51T565 1211q42 40 93.5 38t93.5-43q36-37 36-87t-41-91q-25-24-52-33.5t-54-7-52.5 16.5-47.5 36q-31 31-56 74.5t-41 95.5-22 110.5 1 119.5zM988-369q-16 13-16 34 0 7 5 15.5t13 15.5q10 11 24 27t28.5 37 27 45.5T1088-142q-57 1-92.5 39T959-7q0 25 10 47.5t27 39 41 26 53 9.5q34 0 60-12t43-33 25.5-49 8.5-59q0-43-13-91.5t-38.5-96.5-63-94-86.5-84zm238 2022q10-8 13.5-15.5t2.5-18.5q0-7-5-15.5t-12-15.5q-10-11-24.5-27t-29-37-27-45.5-18.5-52.5q58-1 93-39t36-96q0-26-9.5-48t-27-38.5-41.5-26-53-9.5q-35 0-60.5 12t-42.5 33-25.5 49-8.5 59q0 43 13 91.5t38.5 96.5 63 94 86.5 84zm513-1811q-12-1-19.5 2t-15.5 11q-6 5-8.5 14.5T1694-111q-1 15-2.5 36.5t-6 46-13 51T1649 73q-41-40-93-38t-94 43q-18 18-27 40.5t-8.5 46.5 10.5 47.5 31 43.5q24 24 51 33.5t54 7 52.5-16.5 47.5-36q31-31 56-74.5t41-95.5 22-110.5-1-119.5zm380 681q-14-17-34-16-8 0-16.5 5t-15.5 12q-11 10-27 24.5t-36.5 29-45 27T1892 623q0-29-10.5-52.5t-28.5-40-43-26-54-9.5q-26 0-48.5 9.5t-39 26.5-26 40.5-9.5 52.5q0 34 12.5 60t33.5 42.5 48.5 25 59.5 8.5q43 0 91.5-13t97-38.5 94.5-63 84-85.5z"/><glyph unicode="Ҋ" horiz-adv-x="1499" d="M1140 1810q24 0 33.5-22t6.5-48q-6-51-32-90t-68-65-99-39.5-124-13.5q-68 0-122 13.5t-90.5 39.5-53 65-10.5 90q2 26 16 48t38 22h134q-5-46-2.5-76t14-47.5T814 1662t56-7q35 0 58.5 7t39.5 24.5 25 47.5 14 76h133zm283-1611l-213-544H956L1098 0H946l109 897q7 51 16.5 106t26.5 118q-26-55-54.5-102.5T989 935L395 80q-11-14-24.5-28.5t-29.5-26T307 7t-37-7H76l177 1446h261L404 549q-7-50-16-104.5T363 329q26 54 53.5 100.5T470 511l594 855q11 15 25 29t29.5 25.5 33.5 18.5 36 7h196L1230 199h193z"/><glyph unicode="ҋ" d="M889 1446q24 0 33-21.5t6-47.5q-6-51-32-92.5t-68.5-70-99.5-44-125-15.5-121.5 15.5-89.5 44-53 70-11 92.5q3 26 17.5 47.5T383 1446h135q-5-45-3-76t13.5-49.5 33-26.5 56.5-8q34 0 58 8t39.5 26.5 25 49.5 14.5 76h134zm197-1269L975-273q-5-33-26.5-52.5T898-345H749L848 0h-80q-88 0-88 85l6 118Q608 93 515.5 39T324-15q-64 0-115 26t-84 75.5T78.5 209 77 375l77 651h247l-77-651q-13-101 10-144.5t84-43.5q40 0 81.5 22t80.5 63 72 98.5T707 499l63 527h247L914 177h172z"/><glyph unicode="Ҍ" horiz-adv-x="1252" d="M665 202q70 0 120 18.5t82 52.5 47.5 83T930 465q0 40-11 73t-36 56-65.5 35.5T718 642H509l-54-440h210zm79 642q119 0 203.5-27t138.5-73.5 79-109.5 25-135q0-111-38-203t-109.5-158T869 36 639 0H171l129 1056H87l24 193h213l24 196h259l-24-196h320l-23-193H559l-26-212h211z"/><glyph unicode="ҍ" horiz-adv-x="996" d="M373 248q-5-39 24.5-66t89.5-27q46 0 85.5 25.5t69 65 46 88T704 429q0 23-4 44.5t-15 38-29.5 26T608 547q-39 0-78-23t-71-60.5-54-84-28-92.5zm39 321q63 70 138.5 108.5T694 716q53 0 97-17.5t75.5-50.5 49-80T933 463q0-65-19-125.5T861 224t-82-97-106-75.5-124.5-49T411-15q-153 0-222.5 74.5T135 266l62 514H57l21 169h139l12 98h242l-12-98h148l-20-169H438z"/><glyph unicode="Ҏ" horiz-adv-x="1162" d="M817 788q43 42 63.5 102.5T901 1026q0 49-14 90t-43 69.5-72.5 44.5-103.5 16H488l-65-532h197.5l16.5 1-71 145 168 98zm-124 658q123 0 211.5-29.5T1050 1334t84.5-125.5T1162 1049q0-152-62-272T914 588l67-138-167-99-85 174q-35-7-72.5-10t-78.5-3H398L335 0H77l176 1446h440z"/><glyph unicode="ҏ" horiz-adv-x="1079" d="M310 240q34-37 78-52t86-15q6 0 12 .5t12 .5l-74 152 168 98 69-142q25 34 45 75t34 87 21 94.5 7 96.5q0 108-35.5 160.5T634 848q-41 0-83-28t-81-76.5T397.5 629 340 487zm55 560q74 111 167.5 176.5T731 1042q64 0 116-23.5t89-70.5 57-119 20-169q0-88-18.5-172.5t-52-160-80-139T760 79l79-163-167-99L586-7q-38-8-73-8-70 0-125.5 25T290 78l-51-413H-1l166 1362h125q39 0 60.5-19t21.5-61z"/><glyph unicode="Ґ" horiz-adv-x="1014" d="M1053 1245H489L336 0H76l177 1445h625l39 322h200z"/><glyph unicode="ґ" horiz-adv-x="788" d="M879 1272l-88-416H580q-55 0-89.5-37T442 701l-69-394Q347 159 265.5 74.5T45-10q-48 0-67.5 9T-40 33l18 140h16q55 0 93 36t51 109l67 373q16 90 47 153t75.5 103.5 102 59T556 1025h62l39 149q13 48 45.5 73t82.5 25h94z"/><glyph unicode="Ғ" horiz-adv-x="1104" d="M574 1245l-50-407h333l-24-192H500L421 0H161l79 646H40l24 192h200l74 607h825l-25-200H574z"/><glyph unicode="ғ" horiz-adv-x="872" d="M483 1039q54 0 104.5-11.5t91.5-35 69-58.5 39-81q4-17 5-33.5t0-34.5q-3-32-16-60t-32.5-54-45.5-50-54-46l144-17-19-147-289 43q-39-23-73.5-46.5t-61-48.5-41.5-51.5-15-53.5q0-32 31.5-55.5T412 175q41 0 75 11.5t62.5 25.5 52 26.5T645 253q11 1 18.5.5T677 250q9-5 19.5-17.5T718 204t21-33.5 19-30.5q-40-39-86-67.5t-96-48-102-29T371-14q-67 0-122 15t-96 41.5T86 106t-35 81q-6 30-3 63 6 68 51 125.5T208 476L44 497l20 146 305-44q38 22 72.5 44.5t60 45.5 40.5 46.5 15 46.5q0 26-25.5 47T454 850q-36 0-68.5-10T326 818t-49.5-22.5T237 785q-10 0-22 5t-21 25l-53 101q69 57 158.5 90t183.5 33z"/><glyph unicode="Ҕ" horiz-adv-x="1190" d="M423 709q77 75 158 112t162 37q82 0 148.5-28.5t113.5-88 72.5-151T1103 374q0-168-43-304T940-161.5t-184.5-147T519-360q-50 0-101.5 7.5T323-325l22 126q5 21 20.5 34t41.5 13q16 0 40-7t62-7q76 0 139.5 33.5T758.5-32 831 134.5 857 366q0 84-12.5 142T807 602t-61 52.5-83 16.5q-36 0-73-13.5T518.5 619 452 559t-57-78L336 0H76l177 1445h825l-25-200H489z"/><glyph unicode="ҕ" horiz-adv-x="929" d="M382-190q49 0 88 24t66.5 74 42 128.5T593 223q0 57-7.5 95.5T563 380t-37.5 33-51.5 10q-39 0-81.5-29T315 309L277 0H39l104 848 22 177h645l-22-177H381l-44-357q51 50 105 80t114 30q70 0 122.5-27.5t86.5-76 51-116T833 233q0-137-31-247t-86.5-187T582-320t-172-42q-49 0-94.5 10.5T232-322l32 98q5 20 19 32t37 12q11 0 26.5-5t35.5-5z"/><glyph unicode="Җ" horiz-adv-x="2099" d="M2051 199l-58-469q-4-33-29.5-54t-61.5-21h-157l43 345h-56q-57 0-94 24t-56 66l-205 470q-19 43-47 61.5t-73 18.5h-140L1038 0H794l79 640H735q-45 0-78-18.5T594 560L275 90q-29-42-72.5-66T103 0H-70l415 614q41 60 84.5 95.5T526 763q-40 17-65.5 47T412 885l-267 561h205q39 0 70.5-19.5T467 1372l205-464q19-44 46-58t65-14h114l75 610h244l-75-610h116q37 0 67.5 14t60.5 58l319 464q24 35 60 54.5t74 19.5h206l-405-561q-33-45-66-75t-78-47q48-18 83.5-53.5T1640 614l178-415h233z"/><glyph unicode="җ" horiz-adv-x="1753" d="M965 484q75 138 158 242t163.5 173.5 153.5 105 127 35.5q49 0 95.5-17t91.5-58l-60-103q-13-23-26-30t-27-7q-10 0-19 2.5t-19.5 6-22 6.5-25.5 3q-37 0-75-31.5t-68.5-90-50-142.5-19.5-190q0-60 6.5-101t18.5-66 30.5-35.5T1440 176q17 0 31.5 6t27.5 12.5 24.5 12.5 22.5 6q13 1 25.5-3.5T1592 191l54-106-87-358q-4-33-25.5-52.5T1483-345h-149l94 333q-24-3-45-3-57 0-103 19.5t-78.5 58T1151 159t-18 136q0 159 52 298-41-53-82-116t-76.5-134.5T963 194 919 36l-4-36H708l56 545q-74-139-157-243.5t-164-175-154-106T161-15q-48 0-95 17.5T-26 61l60 102q13 23 26.5 30.5T87 201q10 0 19.5-2.5t19.5-6 21.5-6.5 25.5-3q37 0 74.5 31.5t68.5 90T366.5 447 386 637q0 60-6 101t-18.5 66-31 35.5T288 850q-17 0-31.5-6T229 831t-25-13-22-6q-13 0-25.5 4T136 834L82 941q31 27 65 46t68.5 30.5 67.5 17 62 5.5q57 0 103-19.5t79-58 51-96.5 18-135q0-81-13.5-155.5T544 432q41 53 81.5 116.5T702 684t64.5 150T811 994l3 33 208-1z"/><glyph unicode="Ҙ" horiz-adv-x="1088" d="M162 1309q86 72 198.5 111.5T604 1460q101 0 181-25t135.5-69.5T1005 1259t29-136q0-116-55-211.5T815 761q79-45 127-115t48-161q0-90-31.5-172T868 165 724 54 532-7q41-23 62-58t21-76q0-43-16-80.5t-45.5-65T483-330t-91-16q-51 0-95.5 14T225-295l47 87q6 16 24 16 5 0 9-2.5t10.5-5.5 16.5-5.5 27-2.5q45 0 69.5 34.5T453-89q0 23-8 43t-30 32q-68 1-132 15.5t-121 39-105 59-84 76.5l92 123q11 14 27.5 23.5T126 332t34-10 37-24.5 44.5-32 56-32T369 209t91-10q135 0 210 67.5T745 465q0 44-16 80t-46 60.5-73 38-97 12.5H324l25 209h172q126 0 196.5 57t70.5 162q0 75-53.5 120.5T577 1250q-66 0-115.5-16t-87-35.5T310 1163t-47-16q-19 0-31 10t-21 30z"/><glyph unicode="ҙ" horiz-adv-x="883" d="M214-192q5 0 9-2.5t10.5-5.5 16.5-5.5 27-2.5q45 0 69.5 34.5T371-89q0 23-8 42.5T334-15h-10q-98 0-185 30T-28 117l63 100q7 12 20 22t29 10q22 0 42.5-13t47.5-28.5 65.5-28.5 97.5-13q54 0 95 14t69 38 42 57 14 71q0 34-11 57t-31.5 37-49.5 20.5-65 6.5q-31 0-73.5-6T247 449q0 46 4 89.5t22 88.5q27-4 53-7.5t53-3.5q58 0 99.5 12.5T546 661t38.5 44.5T597 754q0 46-35.5 76T442 860q-56 0-94.5-11.5T281 823t-47-26.5-35-13.5q-16-2-27 3t-25 25l-51 85q31 31 74.5 57.5t94.5 46 108 30.5 117 11q85 0 147-20t102.5-54 60-77.5T819 800q0-36-11.5-72t-38-68.5-68-59.5T600 557q88-20 135-75.5T782 341q0-54-20-109t-61.5-102.5-104.5-83T447-4q42-24 64-59.5t22-77.5q0-43-16-80.5t-45.5-65T401-330t-91-16q-51 0-95.5 14T143-295l47 87q6 16 24 16z"/><glyph unicode="Қ" horiz-adv-x="1368" d="M1132 199h175l-58-469q-5-33-30-54t-61-21h-156l42 345h-62q-36 0-58 19.5T885 77L674 569q-18 41-43 56t-71 15H413L335 0H76l177 1446h259l-75-610h124q37 0 65.5 14t57.5 52l340 474q23 31 51.5 50.5t64.5 19.5h222L936 864q-28-38-62.5-62.5T800 763q55-17 90-52.5t63-98.5z"/><glyph unicode="қ" horiz-adv-x="1090" d="M621 826q39 55 66.5 93.5t55 62.5 62 34.5T893 1027h103l-25-127q-5-27-17.5-35.5t-29.5-13-37-13-40-36.5L734 648q-30-43-59-67t-73-34q63-12 101-45.5t62-96.5l89-228h175L918-273q-8-32-28-52t-49-20H693L790 0h-7q-32 0-54.5 5.5T689 21t-29 25-21 35L527 370q-12 37-41.5 60.5T419 454l-89-17L277 0H39l125 1026h238l-53-431 58 13q19 4 33 8.5t25 11 20.5 16T506 668z"/><glyph unicode="Ҝ" horiz-adv-x="1383" d="M1034 864q-26-38-57.5-62.5T908 763q57-15 92-50.5t59-100.5L1288 0h-236q-70 0-97 77L781 569q-13 36-34.5 51.5T691 639l-31-255H478l31 256h-96L335 0H76l177 1445h259l-75-609h97l35 289h182l-35-285q23 5 43 19.5t39 42.5l303 473q21 32 50.5 51t65.5 19h214z"/><glyph unicode="ҝ" horiz-adv-x="1123" d="M1107 1027l-25-127q-5-27-17.5-35.5t-29.5-13-37-13-40-36.5L845 648q-30-42-58.5-66.5T714 547q62-12 100.5-45.5T876 405L1035 0H894q-32 0-54.5 5.5T800 21t-29 25-21 35L638 370q-11 32-35 56.5T548 454l-33-266H371l30 250-72-10L277 0H39l125 1025h238l-54-442 72 8 29 237h145l-27-218q17 7 30.5 18t27.5 30l107 168q29 52 55 89.5t56.5 62.5 68.5 37 92 12h103z"/><glyph unicode="Ҟ" horiz-adv-x="1469" d="M1106 864q-28-38-62.5-62.5T970 763q55-17 90-52.5t63-98.5L1388 0h-236q-36 0-58 19.5T1055 77L844 569q-18 41-43 56t-71 15H583L505 0H246l129 1056H60l24 193h315l24 197h259l-24-197h135l-23-193H634l-27-220h124q37 0 65.5 14t57.5 52l340 474q23 31 51.5 50.5t64.5 19.5h222z"/><glyph unicode="ҟ" horiz-adv-x="1117" d="M1100 1027l-26-127q-5-27-17.5-35.5t-29.5-13-37-13-40-36.5L838 648q-30-42-59-66t-73-35q63-12 101-45.5t61-96.5L1028 0H887q-63 0-94.5 21T742 81L630 370q-12 37-41.5 60.5T523 454l-113-22L357 0H120l93 759H58l21 169h154l12 97h237l-12-97h140l-21-169H450l-21-169 82 18q19 4 33 8.5t25 11 20 16 20 24.5l115 158q39 55 66.5 93.5T846 982t62.5 34.5T997 1027h103z"/><glyph unicode="Ҡ" horiz-adv-x="1554" d="M1191 864q-28-38-62.5-62.5T1055 763q55-17 90-52.5t63-98.5L1473 0h-236q-36 0-58 19.5T1140 77L929 569q-18 41-43 56t-71 15H668L590 0H331l152 1238H106l27 207h375v1h259l-75-610h124q37 0 65.5 14t57.5 52l340 474q23 31 51.5 50.5t64.5 19.5h222z"/><glyph unicode="ҡ" horiz-adv-x="1206" d="M1190 1027l-25-127q-5-27-17.5-35.5t-29.5-13-37-13-40-36.5L928 648q-30-43-59-67t-73-34q63-12 101-45.5t62-96.5L1118 0H977q-32 0-54.5 5.5T883 21t-29 25-21 35L721 370q-12 37-41.5 60.5T613 454l-89-17L471 0H233l103 846H48l22 180h526l-53-431 58 13q19 4 33 8.5t25 11 20.5 16T700 668l115 158q39 55 66.5 93.5t55 62.5 62 34.5 88.5 10.5h103z"/><glyph unicode="Ң" horiz-adv-x="1520" d="M1420 199l-58-469q-5-33-30-54t-61-21h-156l42 345H946l78 636H414L336 0H76l177 1445h261l-77-624h610l76 624h261L1231 199h189z"/><glyph unicode="ң" horiz-adv-x="1137" d="M1064 177L953-273q-5-33-26.5-52.5T876-345H727L826 0H631l56 456H333L277 0H39l126 1025h238l-48-391h354l48 391h238L891 177h173z"/><glyph unicode="Ҥ" horiz-adv-x="1884" d="M1948 1445l-25-200h-564L1206 0H946l78 636H414L336 0H76l177 1445h261l-77-624h610l76 624h825z"/><glyph unicode="ҥ" horiz-adv-x="1375" d="M1380 848H973L869 0H631l56 456H333L277 0H39l126 1025h238l-48-391h354l26 214 22 177h645z"/><glyph unicode="Ҧ" horiz-adv-x="2012" d="M1248 710q76 74 157 111t162 37q82 0 148.5-28.5t113.5-88 72.5-151T1927 374q0-168-43-304t-120.5-231.5-184.5-147-236-51.5q-50 0-101.5 7.5T1147-325l22 126q5 21 20.5 34t41.5 13q16 0 40-7t62-7q76 0 139.5 33.5T1582-32t72 166.5 26 231.5q0 84-12.5 142t-37.5 94-61 52.5-82 16.5q-36 0-72.5-13.5t-71.5-38-66.5-59T1220 483L1161 0H900l153 1245H489L336 0H76l177 1445h1085z"/><glyph unicode="ҧ" horiz-adv-x="1516" d="M929 489q51 51 105.5 81.5T1150 601q70 0 122-27.5t86.5-76 51-116T1426 233q0-137-30.5-247t-86-187T1176-320t-172-42q-50 0-95 10.5T826-322l31 98q5 20 19 32t37 12q11 0 27-5t35-5q49 0 88.5 24t66.5 74 41.5 128.5T1186 223q0 57-7.5 95.5T1156 380t-37.5 33-51.5 10q-39 0-82-30.5T907 305L869 0H631l104 848H381L277 0H39l126 1025h830z"/><glyph unicode="Ҩ" horiz-adv-x="1531" d="M902 576q0-98 21-164.5T977 301q87 75 129 192.5t42 259.5q0 33-5 65.5t-15.5 58.5-27.5 42-42 16q-33 0-61.5-22.5T947 845t-33-112.5T902 576zm539-554q-57-17-123.5-26T1188-13q-60 0-124 15T939 51Q796-16 639-16q-129 0-232 47.5t-175 132T121.5 364 83 617q0 184 54 338.5T292.5 1222 540 1397t329 63q31 0 57.5-2.5t52-7 50.5-11.5 54-16l-27-97q-5-20-14-38t-21-31.5-25.5-22-28.5-8.5-29.5 2-32 4.5-40 4.5-53.5 2q-98 0-182.5-41.5t-146.5-120T385.5 886 350 630q0-100 24-179t68.5-134 109-84T697 204q19 0 36.5 1.5T768 209q-44 66-69.5 155T673 569q0 132 26.5 235.5T778 980t127.5 110 173.5 38q79 0 135.5-29t92.5-79 53-117 17-143q0-88-16.5-168T1314 440.5t-72.5-133T1147 195q23-5 42.5-6.5t35.5-1.5q50 0 83 7t61 7q29 0 49.5-21t20.5-60z"/><glyph unicode="ҩ" horiz-adv-x="1166" d="M781 647q-49 0-73.5-53T683 453q0-60 14.5-111.5T741 250q51 54 77.5 127.5T845 533q0 51-16 82.5T781 647zm-83 271q-9-38-28.5-50T620 856q-10 1-23 2.5t-25 1.5q-71 0-124-31t-87.5-86T309 611.5 292 445q0-66 15-119.5t44-91 72-57.5 99-20h12l12 1q-42 57-64.5 129T459 442q0 95 25.5 168t71 123 108 75.5T801 834q66 0 118.5-24t87.5-66 51-99 9-123q-9-103-61.5-195.5T873 162q25-6 55-6 23 0 36 3.5t27 4.5q38 0 54-14.5t17-52.5l2-92q-30-9-69.5-14.5T912-15q-66 0-123 14T683 39Q624 13 562.5-1T439-15q-83 0-155 31t-124.5 89T77 246.5 47 435q0 127 36 238t104.5 192.5 167 128.5 224.5 47q38 0 75-5.5t71-19.5z"/><glyph unicode="Ҫ" horiz-adv-x="1242" d="M642-16q-134 0-238 47.5T228.5 163t-109 199T82 613q0 125 27 236.5t77 206T305.5 1225t155 128 184 81 205.5 28q79 0 144-14.5t117.5-40.5 95-62.5 76.5-81.5l-90-108q-10-12-23.5-21t-33.5-9q-22 0-42 18t-50.5 39.5-79 39.5-127.5 18q-104 0-193.5-42.5T488 1076 384.5 885.5 347 635q0-101 25.5-181t71-135.5 107.5-85T686 204q61 0 106 9.5t79 24.5 57.5 31.5T970 301t32 24.5 28 9.5q13 0 21-5t13-10l91-113q-77-88-175-142.5T759-8q40-23 60.5-58t20.5-75q0-43-16-80.5t-45.5-65T708-330t-91-16q-51 0-95.5 14T450-295l47 87q6 16 24 16 5 0 9-2.5t10.5-5.5 16.5-5.5 27-2.5q45 0 69.5 34.5T678-89q0 22-7.5 41.5T643-16h-1z"/><glyph unicode="ҫ" horiz-adv-x="907" d="M804 803q-8-9-20-16.5t-26-7.5q-17 0-30.5 10.5t-32 22.5-46 22.5T578 845q-57 0-109-31t-92-88-63.5-137T290 412q0-113 50-174.5T476 176q38 0 67 8t51.5 19.5 39.5 25 32 25 28.5 19.5 29.5 8q13 0 24.5-6.5T769 258l62-76q-35-39-68-69.5T697 60t-67-37-70-24q45-23 69-60t24-80-16-80.5-45.5-65T521-330t-91-16q-51 0-95.5 14T263-295l47 87q6 16 24 16 5 0 9-2.5t10.5-5.5 16.5-5.5 27-2.5q45 0 69.5 34.5T491-89q0 23-8 43t-29 32q-8-1-15.5-1H423q-89 0-159.5 30.5T144 102 69 237 43 413q0 83 18 162t52 149 82 128 108 100 130.5 65.5T583 1041q102 0 173.5-36T883 897z"/><glyph unicode="Ҭ" horiz-adv-x="1122" d="M763 1233L636 199h180l-58-469q-4-33-29.5-54T667-345H511L553 0H353l150 1233H106l26 213h1053l-27-213H763z"/><glyph unicode="ҭ" horiz-adv-x="1670" d="M1601 177l-111-450q-5-33-26.5-52.5T1413-345h-148l98 345h-200l77 653q13 100-5.5 143.5T1160 840q-38 0-74-20t-68.5-57.5-60-92.5T909 546L845 0H601l78 653q12 100-5 143.5T600 840q-39 0-76-21t-69.5-60.5-59.5-96T347 536L282 0H40l124 1027h126q39 0 60.5-19t21.5-61l-5-113q70 105 150.5 156.5T686 1042q95 0 149.5-62.5T899 798q72 125 159.5 184.5T1249 1042q65 0 114-26t80-75.5 42-122-1-165.5l-56-476h173z"/><glyph unicode="Ү" horiz-adv-x="1215" d="M731 564L661 0H402l70 562-377 884h231q34 0 53-16t28-43l186-500q13-37 22-71.5t16-66.5q16 33 34.5 66.5T706 887l311 500q14 23 37 41t55 18h215z"/><glyph unicode="ү" horiz-adv-x="979" d="M543 76l-51-412H254l50 412-246 949h192q26 0 42-13.5t21-31.5l110-517q11-43 16.5-84t9.5-83q14 42 30.5 83t38.5 84l240 517q9 19 28 32t42 13h193z"/><glyph unicode="Ұ" horiz-adv-x="1249" d="M750 569h274l-24-193H726L680 0H421l46 376H193l24 193h274l8 68-386 808h229q34 0 51-16.5t29-41.5l178-449q17-38 30.5-68.5T652 810q16 29 36 60t46 68l286 449q14 20 37 39t55 19h230L758 637z"/><glyph unicode="ұ" horiz-adv-x="984" d="M538 7h192l-21-169H518l-22-174H258l21 174H97L118 7h182l8 69-246 949h192q26 0 42-13.5t21-31.5l110-517q11-43 16.5-84t9.5-83q14 42 30.5 83t38.5 84l240 517q9 19 28 32t42 13h193L547 76z"/><glyph unicode="Ҳ" horiz-adv-x="1326" d="M1103 199h162l-57-469q-5-33-30.5-54t-60.5-21H961l42 345h-41q-26 0-40.5 14T899 45L649 624q-9-17-19-32L256 45q-17-25-37.5-35T175 0H-84l558 773-326 673h235q26 0 38-7.5t20-25.5l221-498q5 10 11 20t13 21l308 454q24 36 59 36h271L832 784z"/><glyph unicode="ҳ" horiz-adv-x="1085" d="M1031 177L920-273q-5-33-26.5-52.5T843-345H694L793 0H674q-25 0-39.5 13.5T612 45L454 406q-5-12-10.5-22.5T431 363L203 45q-13-17-28.5-31T135 0H-82l407 554-237 472h224q25 0 36-7t19-24l140-305q6 12 13 24t16 25l181 252q22 35 54 35h224L635 554l179-377h217z"/><glyph unicode="Ҵ" horiz-adv-x="1728" d="M1628 199l-58-469q-4-33-29.5-54t-61.5-21h-156l42 345H330l152 1238H106l26 207h1011l-26-207H743L615 199h563l153 1246h261L1439 199h189z"/><glyph unicode="ҵ" horiz-adv-x="1360" d="M1287 177l-110-450q-5-33-26.5-52.5T1100-345H951l98 345h-81q-89 0-89 85l6 117Q808 93 715.5 39T524-15q-65 0-116 26t-84 75.5T278 209t-1 166l56 471H45l23 180h745l-23-180H579l-56-471q-12-101 11-144.5t84-43.5q39 0 80.5 22t80 62 71.5 97 56 127l64 531h247l-103-849h173z"/><glyph unicode="Ҷ" horiz-adv-x="1341" d="M1238 199l-58-469q-4-33-29.5-54t-60.5-21H934L976 0H775l72 585q-112-29-213-43.5t-186.5-10T295 562t-110.5 78T124 773t-3 196l58 476h261l-59-476q-11-86 7-142t74.5-82T618 724.5 869 769l83 676h261L1060 199h178z"/><glyph unicode="ҷ" horiz-adv-x="1067" d="M995 177L884-273q-5-33-26.5-52.5T807-345H659L757 0H554l52 433q-64-67-140-102t-166-35q-68 0-116.5 25T105 392 65 501.5 64 642l48 384h247l-48-384q-8-63 14-103.5t82-40.5q35 0 69 12t64 35.5 54.5 58T636 683l41 343h247L822 177h173z"/><glyph unicode="Ҹ" horiz-adv-x="1261" d="M1211 1445L1033 0H773l72 585q-39-11-77-19t-74-15l-32-257H480l29 237q-99-3-178.5 18T199 622t-73.5 137-6.5 210l58 476h261l-59-476q-7-54-2.5-97t22.5-73.5 51-48.5 83-24l38 308h182l-37-297q34 5 71.5 13t79.5 19l83 676h261z"/><glyph unicode="ҹ" horiz-adv-x="989" d="M925 1026L802 0H555l52 433q-26-27-54-49t-58-39l-19-157H355l14 113q-17-2-34-3.5t-34-1.5q-68 0-116.5 25T106 392 66 501.5 65 642l48 384h247l-48-384q-8-59 11-98.5t70-44.5l40 329h121l-36-298q38 23 68.5 61t50.5 92l41 343h247z"/><glyph unicode="Һ" horiz-adv-x="1214" d="M442 861q111 28 209 42.5t179 10T973 883t101.5-78.5 54-133.5.5-196L1070 0H809l58 476q11 86-1 142.5T805 701t-142 20.5T419 677L336 0H76l177 1445h261z"/><glyph unicode="һ" horiz-adv-x="988" d="M351 616q64 93 137.5 135.5T652 794q65 0 116-26t83.5-75.5T897 570t1-166L847 0H600l51 404q13 100-9 144t-85 44q-73 0-132.5-73.5T326 306L287 0H40l124 1026h125q88 0 88-85z"/><glyph unicode="Ҽ" horiz-adv-x="1590" d="M1075 1248q-97 0-180-37t-146-105-103-164.5T595 727q144 8 253.5 24t189.5 38.5 133.5 51 85.5 63 45.5 74 13.5 83.5q0 37-15.5 71t-46 60-75.5 41-104 15zM238 950q26-5 35-20.5t9-28.5q0-18-11-44t-11-62 17-52.5 51-20.5q15 160 79 295.5T573 1252t234.5 154.5T1092 1462q116 0 204.5-32t148.5-85 91-123 31-145q0-67-16-129.5T1494 830t-111-102-178-83-258.5-60T595 551q18-178 107-259.5T943 210q81 0 142.5 21t110 46 85.5 46 68 21q41 0 57-29l68-98q-65-67-137.5-112t-147-72T1040-5 895-16q-115 0-213.5 37t-173 108T387 304t-59 239h-5q-54 0-105 10t-90 35-63 68-24 109q0 25 3 48.5T54 862t18.5 53 29.5 61z"/><glyph unicode="ҽ" horiz-adv-x="1207" d="M801 868q-50 0-93.5-20.5t-78-57.5-60-89T529 587q124 17 199.5 37.5t117 44.5 55 51.5T914 779q0 15-6.5 31t-20 28.5-35 21T801 868zM509 418q0-242 205-242 44 0 78 8.5t59.5 20.5 46 27 38 27 34.5 20.5 37 8.5q12 0 23.5-6t20.5-16l63-76q-53-53-104-92T906 34 794-3 665-15q-89 0-162 30.5t-125 86-80.5 134T269 411v18q-52 3-96 16t-76 37-50 61-18 90q0 27 3 50.5t10 48T60.5 783 90 843l87-18q24-7 32-20t8-26q0-10-3.5-21t-8-24.5-8-29.5-3.5-36q0-38 25-61.5t70-27.5q22 95 69 179t114.5 146.5 154 99T815 1040q80 0 140.5-23t101-59.5T1117 876t20-88q0-69-27.5-126t-98-102T819 482.5 509 431v-13z"/><glyph unicode="Ҿ" horiz-adv-x="1590" d="M1075 1248q-97 0-180-37t-146-105-103-164.5T595 727q144 8 253.5 24t189.5 38.5 133.5 51 85.5 63 45.5 74 13.5 83.5q0 37-15.5 71t-46 60-75.5 41-104 15zM238 950q26-5 35-20.5t9-28.5q0-18-11-44t-11-62 17-52.5 51-20.5q15 160 79 295.5T573 1252t234.5 154.5T1092 1462q116 0 204.5-32t148.5-85 91-123 31-145q0-67-16-129.5T1494 830t-111-102-178-83-258.5-60T595 551q18-178 107-259.5T943 210q81 0 142.5 21t110 46 85.5 46 68 21q41 0 57-29l68-98q-51-53-106.5-91.5T1254 60t-117-43.5T1020-8l-40-328H742L782-6q-93 16-171.5 60t-138 113.5-97 164T328 543h-5q-54 0-105 10t-90 35-63 68-24 109q0 25 3 48.5T54 862t18.5 53 29.5 61z"/><glyph unicode="ҿ" horiz-adv-x="1208" d="M801 868q-50 0-93.5-20.5t-78-57.5-60-89T529 587q124 17 199.5 37.5t117 44.5 55 51.5T914 779q0 15-6.5 31t-20 28.5-35 21T801 868zm313-678q-43-43-83.5-76T948 56.5 862.5 16 770-7l-33-266q-4-33-25.5-52.5T661-345H513L554-2q-66 17-118.5 53T346 140t-57 121.5T269 411v18q-52 3-96 16t-76 37-50 61-18 90q0 27 3 50.5t10 48T60.5 783 90 843l87-18q24-7 32-20t8-26q0-10-3.5-21t-8-24.5-8-29.5-3.5-36q0-38 25-61.5t70-27.5q22 95 69 179t114.5 146.5 154 99T815 1040q80 0 140.5-23t101-59.5T1117 876t20-88q0-69-27.5-126t-98-102T819 482.5 509 431v-13q0-242 205-242 44 0 78 8.5t59.5 20.5 46 27 38 27 34.5 20.5 37 8.5q12 0 23.5-6t20.5-16z"/><glyph unicode="Ӏ" horiz-adv-x="564" d="M338 0H77l176 1446h261z"/><glyph unicode="Ӂ" horiz-adv-x="1984" d="M1639 885q-33-45-66-75t-78-47q48-18 83.5-53.5T1640 614L1904 0h-172q-57 0-94 24t-56 66l-205 470q-19 43-47 61.5t-73 18.5h-140L1038 0H794l79 640H735q-45 0-78-18.5T594 560L275 90q-29-42-72.5-66T103 0H-70l415 614q41 60 84.5 95.5T526 763q-40 17-65.5 47T412 885l-267 561h205q39 0 70.5-19.5T467 1372l205-464q19-44 46-58t65-14h114l75 610h244l-75-610h116q37 0 67.5 14t60.5 58l319 464q24 35 60 54.5t74 19.5h206zm-524 770q35 0 58.5 7t39.5 24.5 25 47.5 14 76h133q24 0 33.5-22t6.5-48q-6-51-32-90t-68-65-99-39.5-124-13.5q-68 0-122 13.5t-90.5 39.5-53 65-10.5 90q2 26 16 48t38 22h134q-5-46-2.5-76t14-47.5 33.5-24.5 56-7z"/><glyph unicode="ӂ" horiz-adv-x="1753" d="M965 484q75 138 158 242t163.5 173.5 153.5 105 127 35.5q49 0 95.5-17t91.5-58l-60-103q-13-23-26-30t-27-7q-10 0-19 2.5t-19.5 6-22 6.5-25.5 3q-37 0-75-31.5t-68.5-90-50-142.5-19.5-190q0-60 6.5-101t18.5-66 30.5-35.5T1440 176q17 0 31.5 6t27.5 12.5 24.5 12.5 22.5 6q13 1 25.5-3.5T1592 191l54-106q-31-27-65-46t-68.5-31T1445-9.5t-62-5.5q-57 0-103 19.5t-78.5 58T1151 159t-18 136q0 159 52 298-41-53-82-116t-76.5-134.5T963 194 919 36l-4-36H708l56 545q-74-139-157-243.5t-164-175-154-106T161-15q-48 0-95 17.5T-26 61l60 102q13 23 26.5 30.5T87 201q10 0 19.5-2.5t19.5-6 21.5-6.5 25.5-3q37 0 74.5 31.5t68.5 90T366.5 447 386 637q0 60-6 101t-18.5 66-31 35.5T288 850q-17 0-31.5-6T229 831t-25-13-22-6q-13 0-25.5 4T136 834L82 941q31 27 65 46t68.5 30.5 67.5 17 62 5.5q57 0 103-19.5t79-58 51-96.5 18-135q0-81-13.5-155.5T544 432q41 53 81.5 116.5T702 684t64.5 150T811 994l3 33 208-1zm-20 802q34 0 58 8t39.5 26.5 25 49.5 14.5 76h134q24 0 33-21.5t6-47.5q-6-51-32-92.5t-68.5-70-99.5-44-125-15.5-121.5 15.5-89.5 44-53 70-11 92.5q3 26 17.5 47.5T710 1446h135q-5-45-3-76t13.5-49.5 33-26.5 56.5-8z"/><glyph unicode="Ӄ" horiz-adv-x="1346" d="M936 864q-31-40-66-65 72-11 137-38.5t113.5-79T1198 551t29-193q0-163-42.5-294.5t-120-224-185.5-143T641-354q-50 0-98 6.5T444-327q8 38 16.5 77t16.5 77q5 21 20.5 34t42.5 13q15 0 38.5-7.5T640-141q75 0 137.5 27.5T885-28t70 147.5T980 332q0 95-25 155t-66 94-95.5 46.5T681 640H413L335 0H76l177 1445h259l-75-609h124q37 0 65.5 14t57.5 52l340 473q23 31 51.5 50.5t64.5 19.5h222z"/><glyph unicode="ӄ" horiz-adv-x="1035" d="M467-188q97 0 155 108t58 319q0 57-13 95t-42 62.5-75 37.5-111 18l-19 2h-1l-89-17L277 0H39l126 1025h238l-53-430 58 13q19 4 32.5 8.5t24.5 11 20.5 16T506 668l115 158q39 55 66.5 93.5T743 982t62.5 34.5T894 1027h103l-26-127q-5-27-17.5-35.5t-29.5-13-37-13-40-36.5L734 648q-24-35-47-57t-54-35q140-15 212.5-98T918 228q0-132-36-240.5t-97.5-186-142.5-120T471-361q-38 0-71 4.5T328-341l21 118q4 20 18.5 32t37.5 12q11 0 26.5-4.5T467-188z"/><glyph unicode="Ӆ" horiz-adv-x="1462" d="M1385 199l-214-544H918L1060 0H902l153 1245H706q-47-272-95-471.5T512.5 434 409 206.5t-109.5-137T183 2.5 59-15q-69 0-98.5 12.5T-66 34l20 162h73q23 0 47.5 6.5t51 26.5 54.5 57.5T237 387t59.5 155T358 762.5t63 297 64 385.5h855L1187 199h198z"/><glyph unicode="ӆ" horiz-adv-x="1183" d="M1107 177L996-273q-4-33-25.5-52.5T920-345H770L869 0H676l103 843h-30q-58 0-101-14.5t-75-49-56-92.5-43-145q-34-159-75.5-266T307 104.5t-110.5-92T63-15Q7-15-14.5-5.5T-33 29l17 140h32q45 0 76 19t55.5 64 46 119T242 555q30 126 73 215t108 146 156.5 83 219.5 26h240L936 177h171z"/><glyph unicode="Ӈ" horiz-adv-x="1433" d="M1384 1445L1221 124q-14-113-52.5-202.5t-101-152.5T918-327.5 722-361q-50 0-98 6.5T524-334q8 38 17 77t17 77q5 21 20.5 34t41.5 13q16 0 39.5-7t61.5-7q52 0 92.5 13.5t70 44.5T932-7.5 960 118l64 518H414L336 0H76l177 1445h261l-77-624h609l77 624h261z"/><glyph unicode="ӈ" horiz-adv-x="1059" d="M995 1025L875 43q-14-110-47-186.5T742-269t-125.5-71T453-362q-39 0-71.5 4.5T310-342q4 18 7.5 32t7 26.5T331-257t7 32q5 20 19 32.5t37 12.5q11 0 24.5-4.5T461-189q31 0 59 9t51 34.5 39.5 71T636 45l51 411H333L277 0H39l126 1025h238l-48-391h354l48 391h238z"/><glyph unicode="Ӊ" horiz-adv-x="1507" d="M1429 199l-214-544H962L1104 0H946l78 636H414L336 0H76l177 1445h261l-77-624h610l76 624h261L1231 199h198z"/><glyph unicode="ӊ" horiz-adv-x="1121" d="M1048 177L937-273q-4-33-25.5-52.5T860-345H711L809 0H611l56 456H333L277 0H39l126 1025h238l-48-391h334l48 391h238L871 177h177z"/><glyph unicode="Ӌ" horiz-adv-x="1263" d="M1213 1445L1035 0H842l-33-263q-3-33-28.5-53T719-336H563l66 535h170l48 386q-112-29-213-43.5t-186.5-10T295 562t-110.5 78T124 773t-3 196l58 476h261l-59-476q-11-86 7-142t74.5-82T618 724.5 869 769l83 676h261z"/><glyph unicode="ӌ" horiz-adv-x="991" d="M803 0H595l33-273q3-16-3-29.5t-17.5-23-26-14.5-29.5-5H429l-45 461h185l1-3 38 320q-64-67-140-102t-166-35q-68 0-116.5 25T107 392 67 501.5 66 642l48 384h247l-48-384q-8-63 14-103.5t82-40.5q35 0 69 12t64 35.5 54.5 58T638 683l41 343h247z"/><glyph unicode="Ӎ" horiz-adv-x="1830" d="M1752 199l-213-544h-254L1428 0h-125l115 942q4 26 9.5 56t12.5 62L943 236q-17-28-42-42t-56-14h-35q-31 0-53.5 14T724 236l-298 826q-1-31-2.5-61t-4.5-55L305 0H76l178 1446h195q17 0 28.5-1.5t20.5-6 17-13 17-21.5l299-826q18-53 30-108 13 28 26.5 55t29.5 53l503 826q12 13 21.5 21.5t19.5 13 22 6 29 1.5h196L1554 199h198z"/><glyph unicode="ӎ" horiz-adv-x="1501" d="M1423 177l-111-450q-5-33-26.5-52.5T1235-345h-149l98 345h-173l77 616q3 25 8.5 54t13.5 58L729 64q-13-20-31-31.5T657 21h-35q-45 0-61 43L374 721q-5-33-10.5-68.5T351 589q-13-63-24-123t-24.5-122T272 216 230 74q-12-35-36-54.5T133 0H-17q36 116 72.5 240.5T126 495t63.5 264 52.5 269h197q25 0 49.5-10.5T523 975l161-504q20-66 30-116 17 42 40 82l296 538q21 32 47 42.5t50 10.5h213l-104-851h167z"/><glyph unicode="ӏ" horiz-adv-x="564" d="M338 0H77l176 1446h261z"/><glyph unicode="Ӑ" horiz-adv-x="1304" d="M856 544l-98 495q-6 34-14 79t-16 98q-20-53-39-98t-34-80L436 544h420zM1233 0h-201q-34 0-52.5 16.5T953 59l-60 302H354L220 59q-11-23-35.5-41T128 0H-76l699 1446h265zM775 1655q35 0 58.5 7t39.5 24.5 25 47.5 14 76h133q24 0 33.5-22t6.5-48q-6-51-32-90t-68-65-99-39.5-124-13.5q-68 0-122 13.5t-90.5 39.5-53 65-10.5 90q2 26 16 48t38 22h134q-5-46-2.5-76t14-47.5T719 1662t56-7z"/><glyph unicode="ӑ" horiz-adv-x="1042" d="M720 864q-14 1-26.5 1.5t-24.5.5q-83 0-154-38T392.5 725.5t-81-150T282 395q0-108 34-158t93-50q41 0 80.5 28.5t75 78 65 116.5T681 554zm-68-650Q584 109 498.5 47T312-15q-58 0-108.5 23t-88 68.5-59 114T35 351t23 179 65.5 163.5T226 834t134.5 110 161 71.5T704 1041q69 0 138.5-10T978 995L855 0H724q-47 0-63.5 23.5T644 82zm38 1072q34 0 58 8t39.5 26.5 25 49.5 14.5 76h134q24 0 33-21.5t6-47.5q-6-51-32-92.5t-68.5-70-99.5-44-125-15.5-121.5 15.5-89.5 44-53 70-11 92.5q3 26 17.5 47.5T455 1446h135q-5-45-3-76t13.5-49.5 33-26.5 56.5-8z"/><glyph unicode="Ӓ" horiz-adv-x="1304" d="M856 544l-98 495q-6 34-14 79t-16 98q-20-53-39-98t-34-80L436 544h420zM1233 0h-201q-34 0-52.5 16.5T953 59l-60 302H354L220 59q-11-23-35.5-41T128 0H-76l699 1446h265zM712 1665q0-28-11-52.5t-30.5-43-45-29T572 1530q-27 0-51.5 10.5t-43.5 29-30 43-11 52.5 11 53.5 30 44.5 43.5 30 51.5 11q28 0 53.5-11t45-30 30.5-44.5 11-53.5zm399 0q0-28-11-52.5t-29.5-43-44-29T972 1530q-28 0-53 10.5t-43.5 29-29.5 43-11 52.5 11 53.5 29.5 44.5 43.5 30 53 11q29 0 54.5-11t44-30 29.5-44.5 11-53.5z"/><glyph unicode="ӓ" horiz-adv-x="1042" d="M720 864q-14 1-26.5 1.5t-24.5.5q-83 0-154-38T392.5 725.5t-81-150T282 395q0-108 34-158t93-50q41 0 80.5 28.5t75 78 65 116.5T681 554zm-68-650Q584 109 498.5 47T312-15q-58 0-108.5 23t-88 68.5-59 114T35 351t23 179 65.5 163.5T226 834t134.5 110 161 71.5T704 1041q69 0 138.5-10T978 995L855 0H724q-47 0-63.5 23.5T644 82zm-17 1078q0-28-11-52.5t-30.5-42.5-45-28.5T495 1158q-27 0-51.5 10.5T400 1197t-30 42.5-11 52.5q0 29 11 54.5t30 44.5 43.5 30 51.5 11q28 0 53.5-11t45-30 30.5-44.5 11-54.5zm384 0q0-28-11-52.5t-29.5-42.5-44-28.5T881 1158q-29 0-53.5 10.5T784 1197t-29.5 42.5T744 1292q0 29 10.5 54.5T784 1391t43.5 30 53.5 11q28 0 53.5-11t44-30 29.5-44.5 11-54.5z"/><glyph unicode="Ӕ" horiz-adv-x="1743" d="M854 544v691q-35-89-74-157L488 544h366zm245 695V827h467l-24-199h-443V207h516L1589 0H854v361H388L223 59q-14-23-40-41T124 0H-78l838 1446h1007l-25-207h-643z"/><glyph unicode="ӕ" horiz-adv-x="1497" d="M593 461q-105-5-174-21.5t-110.5-43-58-61T234 261q0-57 29.5-85.5T347 147q44 0 84 15.5t71.5 48.5 53.5 83.5T587 415zm484 408q-52 0-93-19t-72-54.5-51.5-85.5T830 598q112 9 183 25t111 38 55 49 15 56q0 45-28.5 74t-88.5 29zm346-679q-53-53-103.5-92t-104-64T1103-3 974-15q-96 0-176.5 49.5T672 186q-34-54-77.5-92T502 31.5t-100.5-36T301-16Q153-16 78.5 47.5T4 231q0 67 29 132.5t99 118T319 568t292 39l5 41q13 106-20 156t-107 50q-54 0-91.5-14.5t-67-31.5-54-31.5T223 762q-24 0-39.5 12.5T159 805l-33 77q91 81 186 121.5t204 40.5q105 0 167.5-41T774 889q62 72 145.5 112t188.5 40q64 0 119-20.5t95.5-56.5 63.5-84 23-102q0-37-10.5-74t-36-72-68.5-65.5-108.5-54-156.5-38T818 457v-8q0-141 54-207t151-66q67 0 110 17.5t74 38.5 55.5 38.5T1316 288q12 0 23.5-6t20.5-16z"/><glyph unicode="Ӗ" horiz-adv-x="1073" d="M491 1239l-51-411h457l-25-199H415l-52-422h584L921 0H77l178 1446h843l-26-207H491zm227 416q35 0 58.5 7t39.5 24.5 25 47.5 14 76h133q24 0 33.5-22t6.5-48q-6-51-32-90t-68-65-99-39.5-124-13.5q-68 0-122 13.5t-90.5 39.5-53 65-10.5 90q2 26 16 48t38 22h134q-5-46-2.5-76t14-47.5T662 1662t56-7z"/><glyph unicode="ӗ" horiz-adv-x="982" d="M575 868q-50 0-93-20.5T404.5 790t-60-88.5T304 589q124 17 199.5 37.5t116.5 44 54.5 51T688 779q0 15-6.5 31t-20 28.5-35 21T575 868zM283 418q0-242 205-242 44 0 78 8.5t59.5 20.5 46 27 38 27 34.5 20.5 37 8.5q12 0 23.5-6t20.5-16l63-76q-53-53-104-92T680 34 568-3 440-15q-90 0-163 30.5t-125 86-80.5 134T43 411q0 81 17.5 159T111 718t81 129 108.5 102 133 67 155.5 24q80 0 140.5-23t101-59.5T891 876t20-88q0-69-27.5-126t-98-102T593 482.5 283 431v-13zm314 868q34 0 58 8t39.5 26.5 25 49.5 14.5 76h134q24 0 33-21.5t6-47.5q-6-51-32-92.5t-68.5-70-99.5-44-125-15.5-121.5 15.5-89.5 44-53 70-11 92.5q3 26 17.5 47.5T362 1446h135q-5-45-3-76t13.5-49.5 33-26.5 56.5-8z"/><glyph unicode="Ә" horiz-adv-x="1366" d="M318 585q-11-85 3-156t50-122 93.5-79.5T600 199q82 0 150.5 27T872 303t90 121.5 57 160.5H318zm-159 647q65 66 137 111t146 72 148.5 39 144.5 12q124 0 229.5-43t182-125.5 120-203T1310 819q0-118-24-225.5T1216.5 393 1106 224.5t-146.5-129T781 13 575-16q-116 0-210 37.5T204 130 101 303.5 65 536q0 75 7 119.5T92.5 724t32 31 42.5 7h874q1 11 1 23v24q0 213-92.5 322T680 1240q-77 0-137-21t-107.5-46-84.5-46-68-21q-40 0-57 30z"/><glyph unicode="ә" horiz-adv-x="993" d="M245 396q-6-50 1-93.5t27-76 54.5-51.5 83.5-19q102 0 165.5 64.5T666 396H245zM99 879q88 85 194.5 123.5T509 1041q89 0 164.5-30.5t130-89.5T889 776t31-197q0-126-37.5-234.5T776.5 156 612 30.5 399-15q-82 0-149.5 26.5t-116 77-75 123.5T32 377q0 54 5 86.5t14.5 50T75 536t31 5h578q1 8 1 16.5V574q0 142-57.5 212T469 856q-54 0-95-13.5T301 813t-56.5-29.5T198 770q-29 0-40 22z"/><glyph unicode="Ӛ" horiz-adv-x="1366" d="M318 585q-11-85 3-156t50-122 93.5-79.5T600 199q82 0 150.5 27T872 303t90 121.5 57 160.5H318zm-159 647q65 66 137 111t146 72 148.5 39 144.5 12q124 0 229.5-43t182-125.5 120-203T1310 819q0-118-24-225.5T1216.5 393 1106 224.5t-146.5-129T781 13 575-16q-116 0-210 37.5T204 130 101 303.5 65 536q0 75 7 119.5T92.5 724t32 31 42.5 7h874q1 11 1 23v24q0 213-92.5 322T680 1240q-77 0-137-21t-107.5-46-84.5-46-68-21q-40 0-57 30zm557 433q0-28-11-52.5t-30.5-43-45-29T576 1530q-27 0-51.5 10.5t-43.5 29-30 43-11 52.5 11 53.5 30 44.5 43.5 30 51.5 11q28 0 53.5-11t45-30 30.5-44.5 11-53.5zm399 0q0-28-11-52.5t-29.5-43-44-29T976 1530q-28 0-53 10.5t-43.5 29-29.5 43-11 52.5 11 53.5 29.5 44.5 43.5 30 53 11q29 0 54.5-11t44-30 29.5-44.5 11-53.5z"/><glyph unicode="ӛ" horiz-adv-x="993" d="M245 396q-6-50 1-93.5t27-76 54.5-51.5 83.5-19q102 0 165.5 64.5T666 396H245zM99 879q88 85 194.5 123.5T509 1041q89 0 164.5-30.5t130-89.5T889 776t31-197q0-126-37.5-234.5T776.5 156 612 30.5 399-15q-82 0-149.5 26.5t-116 77-75 123.5T32 377q0 54 5 86.5t14.5 50T75 536t31 5h578q1 8 1 16.5V574q0 142-57.5 212T469 856q-54 0-95-13.5T301 813t-56.5-29.5T198 770q-29 0-40 22zm402 413q0-28-11-52.5t-30.5-42.5-45-28.5T361 1158q-27 0-51.5 10.5T266 1197t-30 42.5-11 52.5q0 29 11 54.5t30 44.5 43.5 30 51.5 11q28 0 53.5-11t45-30 30.5-44.5 11-54.5zm384 0q0-28-11-52.5t-29.5-42.5-44-28.5T747 1158q-29 0-53.5 10.5T650 1197t-29.5 42.5T610 1292q0 29 10.5 54.5T650 1391t43.5 30 53.5 11q28 0 53.5-11t44-30 29.5-44.5 11-54.5z"/><glyph unicode="Ӝ" horiz-adv-x="1984" d="M1639 885q-33-45-66-75t-78-47q48-18 83.5-53.5T1640 614L1904 0h-172q-57 0-94 24t-56 66l-205 470q-19 43-47 61.5t-73 18.5h-140L1038 0H794l79 640H735q-45 0-78-18.5T594 560L275 90q-29-42-72.5-66T103 0H-70l415 614q41 60 84.5 95.5T526 763q-40 17-65.5 47T412 885l-267 561h205q39 0 70.5-19.5T467 1372l205-464q19-44 46-58t65-14h114l75 610h244l-75-610h116q37 0 67.5 14t60.5 58l319 464q24 35 60 54.5t74 19.5h206zm-576 780q0-28-11-52.5t-30.5-43-45-29T923 1530q-27 0-51.5 10.5t-43.5 29-30 43-11 52.5 11 53.5 30 44.5 43.5 30 51.5 11q28 0 53.5-11t45-30 30.5-44.5 11-53.5zm399 0q0-28-11-52.5t-29.5-43-44-29-54.5-10.5q-28 0-53 10.5t-43.5 29-29.5 43-11 52.5 11 53.5 29.5 44.5 43.5 30 53 11q29 0 54.5-11t44-30 29.5-44.5 11-53.5z"/><glyph unicode="ӝ" horiz-adv-x="1753" d="M965 484q75 138 158 242t163.5 173.5 153.5 105 127 35.5q49 0 95.5-17t91.5-58l-60-103q-13-23-26-30t-27-7q-10 0-19 2.5t-19.5 6-22 6.5-25.5 3q-37 0-75-31.5t-68.5-90-50-142.5-19.5-190q0-60 6.5-101t18.5-66 30.5-35.5T1440 176q17 0 31.5 6t27.5 12.5 24.5 12.5 22.5 6q13 1 25.5-3.5T1592 191l54-106q-31-27-65-46t-68.5-31T1445-9.5t-62-5.5q-57 0-103 19.5t-78.5 58T1151 159t-18 136q0 159 52 298-41-53-82-116t-76.5-134.5T963 194 919 36l-4-36H708l56 545q-74-139-157-243.5t-164-175-154-106T161-15q-48 0-95 17.5T-26 61l60 102q13 23 26.5 30.5T87 201q10 0 19.5-2.5t19.5-6 21.5-6.5 25.5-3q37 0 74.5 31.5t68.5 90T366.5 447 386 637q0 60-6 101t-18.5 66-31 35.5T288 850q-17 0-31.5-6T229 831t-25-13-22-6q-13 0-25.5 4T136 834L82 941q31 27 65 46t68.5 30.5 67.5 17 62 5.5q57 0 103-19.5t79-58 51-96.5 18-135q0-81-13.5-155.5T544 432q41 53 81.5 116.5T702 684t64.5 150T811 994l3 33 208-1zm-75 808q0-28-11-52.5t-30.5-42.5-45-28.5T750 1158q-27 0-51.5 10.5T655 1197t-30 42.5-11 52.5q0 29 11 54.5t30 44.5 43.5 30 51.5 11q28 0 53.5-11t45-30 30.5-44.5 11-54.5zm384 0q0-28-11-52.5t-29.5-42.5-44-28.5-53.5-10.5q-29 0-53.5 10.5T1039 1197t-29.5 42.5T999 1292q0 29 10.5 54.5t29.5 44.5 43.5 30 53.5 11q28 0 53.5-11t44-30 29.5-44.5 11-54.5z"/><glyph unicode="Ӟ" horiz-adv-x="1088" d="M160 1309q93 71 209 111t246 40q100 0 177.5-25t130.5-69.5 81-106.5 28-136q0-121-62-215T787 764q95-44 148-120.5T988 467q0-99-38-187T842 127 672.5 24 450-14q-75 0-145 14T173.5 39.5 60.5 100-28 178l91 121q11 14 27.5 23.5T125 332q17 0 33.5-10t37-24.5 45-32 56-32 72-24.5 91.5-10q135 0 209 68.5T743 463q0 89-60.5 141T507 656H322l26 209h171q126 0 196.5 57t70.5 162q0 75-50 120.5T582 1250q-66 0-116.5-16t-89-35.5T310 1163t-48-16-32 10-21 30zm432 356q0-28-11-52.5t-30.5-43-45-29T452 1530q-27 0-51.5 10.5t-43.5 29-30 43-11 52.5 11 53.5 30 44.5 43.5 30 51.5 11q28 0 53.5-11t45-30 30.5-44.5 11-53.5zm399 0q0-28-11-52.5t-29.5-43-44-29T852 1530q-28 0-53 10.5t-43.5 29-29.5 43-11 52.5 11 53.5 29.5 44.5 43.5 30 53 11q29 0 54.5-11t44-30 29.5-44.5 11-53.5z"/><glyph unicode="ӟ" horiz-adv-x="882" d="M94 896q31 31 74.5 57.5t94.5 46 108 30.5 117 11q85 0 147-20t102.5-54 60-77.5T817 800q0-36-11.5-72t-38-68.5-68-59.5T598 557q88-20 135-75.5T780 341q0-63-27.5-126.5t-84-114.5T526 17 322-15q-98 0-185 30T-30 117l63 100q7 12 20 22t29 10q22 0 42.5-13t47.5-28.5 65.5-28.5 97.5-13q54 0 95 14t69 38 42 57 14 71q0 34-11 57t-31.5 37-49.5 20.5-65 6.5q-31 0-73.5-6T245 449q0 46 4 89.5t22 88.5q27-4 53-7.5t53-3.5q58 0 99.5 12.5T544 661t38.5 44.5T595 754q0 46-35.5 76T440 860q-56 0-94.5-11.5T279 823t-47-26.5-35-13.5q-16-2-27 3t-25 25zm349 396q0-28-11-52.5t-30.5-42.5-45-28.5T303 1158q-27 0-51.5 10.5T208 1197t-30 42.5-11 52.5q0 29 11 54.5t30 44.5 43.5 30 51.5 11q28 0 53.5-11t45-30 30.5-44.5 11-54.5zm384 0q0-28-11-52.5t-29.5-42.5-44-28.5T689 1158q-29 0-53.5 10.5T592 1197t-29.5 42.5T552 1292q0 29 10.5 54.5T592 1391t43.5 30 53.5 11q28 0 53.5-11t44-30 29.5-44.5 11-54.5z"/><glyph unicode="Ӡ" horiz-adv-x="1099" d="M1072 1350q-2-22-12.5-46t-37.5-48L634 900q89-8 159-39t118.5-79.5 74-111T1011 538q0-131-48.5-234T833 130.5 646.5 23 428-14q-123 0-234.5 49T-14 191L93 304q15 16 26.5 18t19.5 2q14 0 25-4.5t32-24.5q13-16 37.5-32.5t56.5-30 71-22 83-8.5q76 0 132.5 25.5t93 68.5 54.5 99 18 117q0 43-16.5 80t-51 64.5-89 43T456 715H298l14 111q2 20 12.5 40.5T358 907l354 331H154l25 207h905z"/><glyph unicode="ӡ" horiz-adv-x="837" d="M776 948q-3-22-7.5-38.5t-12-30.5-18-27-24.5-28L409 482q80-11 139-40t98-72 58-99 19-120q0-103-34-196T589-208.5t-163-112T203-362Q89-362 5-325.5T-130-235l64 89q12 17 27.5 26t36.5 9q22 0 41.5-11.5t43.5-26 56-26 81-11.5q63 0 112.5 22t84 62.5 52.5 99T487 128q0 44-11.5 80.5t-37.5 63-67 41.5-100 15H113l6 51q2 16 4 25.5t6 17.5 11.5 18 20.5 26l315 376H60l23 183h702z"/><glyph unicode="Ӣ" horiz-adv-x="1433" d="M1384 1446L1206 0H946l109 897q7 51 16.5 106t26.5 118q-26-55-54.5-102.5T989 935L395 80q-11-14-24.5-28.5t-29.5-26T307 7t-37-7H76l177 1446h261L404 549q-7-50-16-104.5T363 329q26 54 53.5 100.5T470 511l594 855q11 15 25 29t29.5 25.5 33.5 18.5 36 7h196zm-808 266h552l-16-142H559z"/><glyph unicode="ӣ" horiz-adv-x="1082" d="M1017 1026L893 0H768q-88 0-88 85l6 118Q608 93 515.5 39T324-15q-64 0-115 26t-84 75.5T78.5 209 77 375l77 651h247l-77-651q-13-101 10-144.5t84-43.5q40 0 81.5 22t80.5 63 72 98.5T707 499l63 527h247zm-663 346h551l-18-158H337z"/><glyph unicode="Ӥ" horiz-adv-x="1433" d="M1384 1446L1206 0H946l109 897q7 51 16.5 106t26.5 118q-26-55-54.5-102.5T989 935L395 80q-11-14-24.5-28.5t-29.5-26T307 7t-37-7H76l177 1446h261L404 549q-7-50-16-104.5T363 329q26 54 53.5 100.5T470 511l594 855q11 15 25 29t29.5 25.5 33.5 18.5 36 7h196zm-594 219q0-28-11-52.5t-30.5-43-45-29T650 1530q-27 0-51.5 10.5t-43.5 29-30 43-11 52.5 11 53.5 30 44.5 43.5 30 51.5 11q28 0 53.5-11t45-30 30.5-44.5 11-53.5zm399 0q0-28-11-52.5t-29.5-43-44-29-54.5-10.5q-28 0-53 10.5t-43.5 29-29.5 43-11 52.5 11 53.5 29.5 44.5 43.5 30 53 11q29 0 54.5-11t44-30 29.5-44.5 11-53.5z"/><glyph unicode="ӥ" horiz-adv-x="1082" d="M1017 1026L893 0H768q-88 0-88 85l6 118Q608 93 515.5 39T324-15q-64 0-115 26t-84 75.5T78.5 209 77 375l77 651h247l-77-651q-13-101 10-144.5t84-43.5q40 0 81.5 22t80.5 63 72 98.5T707 499l63 527h247zm-460 266q0-28-11-52.5t-30.5-42.5-45-28.5T417 1158q-27 0-51.5 10.5T322 1197t-30 42.5-11 52.5q0 29 11 54.5t30 44.5 43.5 30 51.5 11q28 0 53.5-11t45-30 30.5-44.5 11-54.5zm384 0q0-28-11-52.5t-29.5-42.5-44-28.5T803 1158q-29 0-53.5 10.5T706 1197t-29.5 42.5T666 1292q0 29 10.5 54.5T706 1391t43.5 30 53.5 11q28 0 53.5-11t44-30 29.5-44.5 11-54.5z"/><glyph unicode="Ӧ" horiz-adv-x="1506" d="M1453 820q0-120-26.5-228.5T1351 390t-119-168-156.5-128T888 12.5 676-16q-138 0-248 49T240.5 168 122 371 81 625q0 120 26.5 228.5t76 201.5 119 168 156 128.5 187.5 82 213 28.5q138 0 248-49t187-135 118-203.5 41-254.5zm-266-6q0 98-24.5 178t-71 137-113.5 88-151 31q-108 0-196.5-44T479 1079t-97.5-195T347 631q0-98 24-178t70-136.5 112.5-87T705 199q109 0 198 44t152 124 97.5 193.5T1187 814zm-353 851q0-28-11-52.5t-30.5-43-45-29T694 1530q-27 0-51.5 10.5t-43.5 29-30 43-11 52.5 11 53.5 30 44.5 43.5 30 51.5 11q28 0 53.5-11t45-30 30.5-44.5 11-53.5zm399 0q0-28-11-52.5t-29.5-43-44-29-54.5-10.5q-28 0-53 10.5t-43.5 29-29.5 43-11 52.5 11 53.5 29.5 44.5 43.5 30 53 11q29 0 54.5-11t44-30 29.5-44.5 11-53.5z"/><glyph unicode="ӧ" horiz-adv-x="1047" d="M462 175q62 0 112 35.5t85 95T713 444t19 166q0 125-42 183.5T562 852q-62 0-112.5-35T364 722.5 310 584t-19-167q0-125 42-183.5T462 175zM439-15q-85 0-157 28.5T157 97 74 232 44 415q0 133 43 248t116.5 199T375 994t209 48q85 0 157.5-28.5t125-83.5T949 795t30-183q0-132-43-246.5t-116.5-199T648 33.5 439-15zm104 1307q0-28-11-52.5t-30.5-42.5-45-28.5T403 1158q-27 0-51.5 10.5T308 1197t-30 42.5-11 52.5q0 29 11 54.5t30 44.5 43.5 30 51.5 11q28 0 53.5-11t45-30 30.5-44.5 11-54.5zm384 0q0-28-11-52.5t-29.5-42.5-44-28.5T789 1158q-29 0-53.5 10.5T692 1197t-29.5 42.5T652 1292q0 29 10.5 54.5T692 1391t43.5 30 53.5 11q28 0 53.5-11t44-30 29.5-44.5 11-54.5z"/><glyph unicode="Ө" horiz-adv-x="1506" d="M347 631q0-98 24-178t70-136.5 112.5-87T705 199q91 0 168 30.5t137 87.5 101 138 60 183H347v-7zm840 199q-2 95-27.5 172t-72 132-112.5 84.5-148 29.5q-88 0-162.5-29T531 1136t-101-131.5T367 830h820zm-328 632q138 0 248-49t187-135 118-203.5 41-254.5q0-120-26.5-228.5T1351 390t-119-168-156.5-128T888 12.5 676-16q-138 0-248 49T240.5 168 122 371 81 625q0 120 26.5 228.5t76 201.5 119 168 156 128.5 187.5 82 213 28.5z"/><glyph unicode="ө" horiz-adv-x="1063" d="M285 442q-1-7-1-14v-14q0-129 45.5-189.5T467 164q49 0 91 21t76 58 59.5 88T734 442H285zm469 171q0 130-46 190t-137 60q-48 0-89-19.5t-75-55-59-84T307 598h447v15zm-165 429q88 0 162.5-28.5T880 930t84-135 30-183q0-132-42.5-246.5T835 166.5t-173-133T449-15q-88 0-162 28.5T159 97 74.5 232 44 415q0 133 42.5 248T203 862t173 132 213 48z"/><glyph unicode="Ӫ" horiz-adv-x="1506" d="M347 631q0-98 24-178t70-136.5 112.5-87T705 199q91 0 168 30.5t137 87.5 101 138 60 183H347v-7zm840 199q-2 95-27.5 172t-72 132-112.5 84.5-148 29.5q-88 0-162.5-29T531 1136t-101-131.5T367 830h820zm-328 632q138 0 248-49t187-135 118-203.5 41-254.5q0-120-26.5-228.5T1351 390t-119-168-156.5-128T888 12.5 676-16q-138 0-248 49T240.5 168 122 371 81 625q0 120 26.5 228.5t76 201.5 119 168 156 128.5 187.5 82 213 28.5zm-20 203q0-28-11-52.5t-30.5-43-45-29T699 1530q-27 0-51.5 10.5t-43.5 29-30 43-11 52.5 11 53.5 30 44.5 43.5 30 51.5 11q28 0 53.5-11t45-30 30.5-44.5 11-53.5zm399 0q0-28-11-52.5t-29.5-43-44-29-54.5-10.5q-28 0-53 10.5t-43.5 29-29.5 43-11 52.5 11 53.5 29.5 44.5 43.5 30 53 11q29 0 54.5-11t44-30 29.5-44.5 11-53.5z"/><glyph unicode="ӫ" horiz-adv-x="1063" d="M285 442q-1-7-1-14v-14q0-129 45.5-189.5T467 164q49 0 91 21t76 58 59.5 88T734 442H285zm469 171q0 130-46 190t-137 60q-48 0-89-19.5t-75-55-59-84T307 598h447v15zm-165 429q88 0 162.5-28.5T880 930t84-135 30-183q0-132-42.5-246.5T835 166.5t-173-133T449-15q-88 0-162 28.5T159 97 74.5 232 44 415q0 133 42.5 248T203 862t173 132 213 48zm-46 250q0-28-11-52.5t-30.5-42.5-45-28.5T403 1158q-27 0-51.5 10.5T308 1197t-30 42.5-11 52.5q0 29 11 54.5t30 44.5 43.5 30 51.5 11q28 0 53.5-11t45-30 30.5-44.5 11-54.5zm384 0q0-28-11-52.5t-29.5-42.5-44-28.5T789 1158q-29 0-53.5 10.5T692 1197t-29.5 42.5T652 1292q0 29 10.5 54.5T692 1391t43.5 30 53.5 11q28 0 53.5-11t44-30 29.5-44.5 11-54.5z"/><glyph unicode="Ӭ" horiz-adv-x="1244" d="M138 1277q94 85 213 134.5t267 49.5q132 0 238-47.5t179.5-132 113-201T1188 825q0-181-53-335T986 223.5t-231-176T456-16q-165 0-279.5 58.5T-12 206l116 111q19 16 39 16 24 0 41-19 27-30 55.5-51.5T300 228t71-19 87-6q77 0 149 29t131 84.5T840.5 453 905 638H292l24 192h606q-2 95-26 171.5t-67 130-104 82.5-136 29q-77 0-130-17.5t-91-38.5-64-38.5-48-17.5q-20 0-31 9t-18 20zm494 388q0-28-11-52.5t-30.5-43-45-29T492 1530q-27 0-51.5 10.5t-43.5 29-30 43-11 52.5 11 53.5 30 44.5 43.5 30 51.5 11q28 0 53.5-11t45-30 30.5-44.5 11-53.5zm399 0q0-28-11-52.5t-29.5-43-44-29T892 1530q-28 0-53 10.5t-43.5 29-29.5 43-11 52.5 11 53.5 29.5 44.5 43.5 30 53 11q29 0 54.5-11t44-30 29.5-44.5 11-53.5z"/><glyph unicode="ӭ" horiz-adv-x="917" d="M74 915q78 59 165 92.5t199 33.5q98 0 174-32t128-91.5 79-144T846 583q0-129-41.5-238.5T690 155 516.5 30 298-15q-103 0-177.5 36T-9 129l71 86q8 9 20 16.5t26 7.5q16 0 31.5-10.5t36-23 49-23T297 172q58 0 106.5 19t86.5 54 64 85 40 112H191l20 163h395q-6 127-61 189.5T392 857q-41 0-73-11t-58-23.5-47-23-40-10.5q-27 0-39 10t-18 22zm324 377q0-28-11-52.5t-30.5-42.5-45-28.5T258 1158q-27 0-51.5 10.5T163 1197t-30 42.5-11 52.5q0 29 11 54.5t30 44.5 43.5 30 51.5 11q28 0 53.5-11t45-30 30.5-44.5 11-54.5zm384 0q0-28-11-52.5t-29.5-42.5-44-28.5T644 1158q-29 0-53.5 10.5T547 1197t-29.5 42.5T507 1292q0 29 10.5 54.5T547 1391t43.5 30 53.5 11q28 0 53.5-11t44-30 29.5-44.5 11-54.5z"/><glyph unicode="Ӯ" horiz-adv-x="1214" d="M1318 1445L628 199q-37-64-75-105.5T476 28 397-5.5 315-15Q239-15 203.5.5T173 54l17 142h72q27 0 49.5 4.5t43 17T394 252t40 58l67 119L90 1445h237q34 0 51.5-16t28.5-42l182-547q15-48 26.5-95t18.5-95q19 48 41 95t47 95l283 547q13 21 37 39.5t56 18.5h220zm-868 267h552l-16-142H433z"/><glyph unicode="ӯ" horiz-adv-x="983" d="M1032 1026L354-284q-14-26-33-38.5T274-335H91L319 79 60 1026h207q27 0 40.5-13.5T326 980l126-532q10-51 15-102 11 26 22.5 51.5T513 449l253 532q10 20 29 32.5t39 12.5h198zm-745 346h551l-18-158H270z"/><glyph unicode="Ӱ" horiz-adv-x="1214" d="M1318 1445L628 199q-37-64-75-105.5T476 28 397-5.5 315-15Q239-15 203.5.5T173 54l17 142h72q27 0 49.5 4.5t43 17T394 252t40 58l67 119L90 1445h237q34 0 51.5-16t28.5-42l182-547q15-48 26.5-95t18.5-95q19 48 41 95t47 95l283 547q13 21 37 39.5t56 18.5h220zm-662 220q0-28-11-52.5t-30.5-43-45-29T516 1530q-27 0-51.5 10.5t-43.5 29-30 43-11 52.5 11 53.5 30 44.5 43.5 30 51.5 11q28 0 53.5-11t45-30 30.5-44.5 11-53.5zm399 0q0-28-11-52.5t-29.5-43-44-29T916 1530q-28 0-53 10.5t-43.5 29-29.5 43-11 52.5 11 53.5 29.5 44.5 43.5 30 53 11q29 0 54.5-11t44-30 29.5-44.5 11-53.5z"/><glyph unicode="ӱ" horiz-adv-x="983" d="M1032 1026L354-284q-14-26-33-38.5T274-335H91L319 79 60 1026h207q27 0 40.5-13.5T326 980l126-532q10-51 15-102 11 26 22.5 51.5T513 449l253 532q10 20 29 32.5t39 12.5h198zm-534 266q0-28-11-52.5t-30.5-42.5-45-28.5T358 1158q-27 0-51.5 10.5T263 1197t-30 42.5-11 52.5q0 29 11 54.5t30 44.5 43.5 30 51.5 11q28 0 53.5-11t45-30 30.5-44.5 11-54.5zm384 0q0-28-11-52.5t-29.5-42.5-44-28.5T744 1158q-29 0-53.5 10.5T647 1197t-29.5 42.5T607 1292q0 29 10.5 54.5T647 1391t43.5 30 53.5 11q28 0 53.5-11t44-30 29.5-44.5 11-54.5z"/><glyph unicode="Ӳ" horiz-adv-x="1214" d="M1318 1445L628 199q-37-64-75-105.5T476 28 397-5.5 315-15Q239-15 203.5.5T173 54l17 142h72q27 0 49.5 4.5t43 17T394 252t40 58l67 119L90 1445h237q34 0 51.5-16t28.5-42l182-547q15-48 26.5-95t18.5-95q19 48 41 95t47 95l283 547q13 21 37 39.5t56 18.5h220zm-472 379l-217-239q-20-17-36-26.5t-42-9.5H443l153 222q17 25 41.5 39t61.5 14h147zm366 0l-265-239q-21-18-40.5-27t-45.5-9H739l194 222q21 24 46.5 38.5t62.5 14.5h170z"/><glyph unicode="ӳ" horiz-adv-x="983" d="M1032 1026L354-284q-14-26-33-38.5T274-335H91L319 79 60 1026h207q27 0 40.5-13.5T326 980l126-532q10-51 15-102 11 26 22.5 51.5T513 449l253 532q10 20 29 32.5t39 12.5h198zm-349 436l-212-261q-17-20-35.5-27.5T391 1166h-93l144 243q16 26 36.5 39.5T536 1462h147zm321 0l-261-261q-20-20-36.5-27.5T664 1166H556l192 243q19 26 37.5 39.5T841 1462h163z"/><glyph unicode="Ӵ" horiz-adv-x="1263" d="M1213 1445L1035 0H775l72 585q-112-29-213-43.5t-186.5-10T295 562t-110.5 78T124 773t-3 196l58 476h261l-59-476q-11-86 7-142t74.5-82T618 724.5 869 769l83 676h261zm-551 220q0-28-11-52.5t-30.5-43-45-29T522 1530q-27 0-51.5 10.5t-43.5 29-30 43-11 52.5 11 53.5 30 44.5 43.5 30 51.5 11q28 0 53.5-11t45-30 30.5-44.5 11-53.5zm399 0q0-28-11-52.5t-29.5-43-44-29T922 1530q-28 0-53 10.5t-43.5 29-29.5 43-11 52.5 11 53.5 29.5 44.5 43.5 30 53 11q29 0 54.5-11t44-30 29.5-44.5 11-53.5z"/><glyph unicode="ӵ" horiz-adv-x="989" d="M924 1026L801 0H554l52 433q-64-67-140-102t-166-35q-68 0-116.5 25T105 392 65 501.5 64 642l48 384h247l-48-384q-8-63 14-103.5t82-40.5q35 0 69 12t64 35.5 54.5 58T636 683l41 343h247zm-444 266q0-28-11-52.5t-30.5-42.5-45-28.5T340 1158q-27 0-51.5 10.5T245 1197t-30 42.5-11 52.5q0 29 11 54.5t30 44.5 43.5 30 51.5 11q28 0 53.5-11t45-30 30.5-44.5 11-54.5zm384 0q0-28-11-52.5t-29.5-42.5-44-28.5T726 1158q-29 0-53.5 10.5T629 1197t-29.5 42.5T589 1292q0 29 10.5 54.5T629 1391t43.5 30 53.5 11q28 0 53.5-11t44-30 29.5-44.5 11-54.5z"/><glyph unicode="Ӷ" horiz-adv-x="1016" d="M489 1245L360 199h183l-58-469q-5-33-30-54t-61-21H238L281 0H76l177 1445h825l-25-200H489z"/><glyph unicode="ӷ" horiz-adv-x="822" d="M448 1039q62 0 118.5-15t99-45 68-75T759 799q0-54-21.5-99.5t-57-83.5-81-71-92.5-62-92.5-56.5-81-55-57-56T255 254q0-32 31-55.5t91-23.5q44 0 80 12.5t65.5 27.5 52.5 27.5 41 12.5q17 0 28-6t22-21l57-88-103-413q-8-32-27.5-52T544-345H396L502 11Q460-1 419-7.5T336-14q-76 0-136.5 19T97 57t-64.5 79T10 236q0 73 38 132t95 107 123 88 123 76.5 95 71 38 71.5q0 26-25.5 47T419 850q-36 0-68.5-10T291 818t-49.5-22.5T202 785q-10 0-21.5 5T159 815l-53 101q69 57 158.5 90t183.5 33z"/><glyph unicode="Ӹ" horiz-adv-x="1678" d="M570 202q70 0 120 18.5t82 52.5 47.5 83T835 465q0 40-11 73t-36 56-65.5 35.5T623 642H414l-54-440h210zm79 642q119 0 203.5-27T991 743.5t79-109.5 25-135q0-111-38-203T947.5 138 774 36 544 0H76l177 1445h259l-74-601h211zM1452 0h-261l176 1446h261zM894 1665q0-28-11-52.5t-30.5-43-45-29T754 1530q-27 0-51.5 10.5t-43.5 29-30 43-11 52.5 11 53.5 30 44.5 43.5 30 51.5 11q28 0 53.5-11t45-30 30.5-44.5 11-53.5zm399 0q0-28-11-52.5t-29.5-43-44-29-54.5-10.5q-28 0-53 10.5t-43.5 29-29.5 43-11 52.5 11 53.5 29.5 44.5 43.5 30 53 11q29 0 54.5-11t44-30 29.5-44.5 11-53.5z"/><glyph unicode="ӹ" horiz-adv-x="1344" d="M948 1158q-29 0-53.5 10.5T851 1197t-29.5 42.5T811 1292q0 29 10.5 54.5T851 1391t43.5 30 53.5 11q28 0 53.5-11t44-30 29.5-44.5 11-54.5q0-28-11-52.5t-29.5-42.5-44-28.5T948 1158zm-386 0q-27 0-51.5 10.5T467 1197t-30 42.5-11 52.5q0 29 11 54.5t30 44.5 43.5 30 51.5 11q28 0 53.5-11t45-30 30.5-44.5 11-54.5q0-28-11-52.5t-30.5-42.5-45-28.5T562 1158zM304 247q-4-39 25.5-66t89.5-27q46 0 85.5 25.5t68.5 65 46 88 17 95.5q0 23-4.5 44.5t-15.5 38-29.5 26T539 546q-39 0-78-23t-71-60-54-83.5-27-92.5zm39 321q62 70 137.5 109T624 716q54 0 98-17.5t75.5-50.5 49-80T864 463q0-98-41.5-184.5T710 126.5 544 23 342-15q-154 0-223 74T67 266l90 760h242zm936 458L1156 0H909l123 1026h247z"/><glyph unicode="Ӻ" horiz-adv-x="1120" d="M591 1245l-50-407h299l-24-192H517l-55-447h184L613-71q-8-64-29.5-117T524-279.5t-93.5-60T300-361q-42 0-78.5 9.5T142-321l30 95q11 29 28 37.5t31 8.5 31.5-6.5T306-193q48 0 70.5 38T408-48l6 48H178l79 646H24l24 192h233l74 607h825l-25-200H591z"/><glyph unicode="ӻ" horiz-adv-x="882" d="M481 1039q54 0 104.5-11.5t91.5-35 69-58.5 39-81q4-17 5-33.5t0-34.5q-3-32-16-60t-32.5-54-45.5-50-54-46l144-17-19-147-289 43q-39-23-73.5-46.5t-61-48.5-41.5-51.5-15-53.5q0-32 31.5-55.5T410 175q41 0 75 11.5t62.5 25.5 52 26.5T643 253q11 1 18.5.5T675 250q9-5 19.5-17.5T716 204t21-33.5 19-30.5L735-29q-8-64-29.5-123.5t-59.5-106-93.5-74.5T421-361q-41 0-79.5 9.5T260-321l30 95q11 29 27 37.5t30 8.5q15 0 33-6.5t43-6.5q48 0 71 38t32 107l6 58q-81-24-163-24-67 0-122 15t-96 41.5T84 106t-35 81q-6 30-3 63 6 68 51 125.5T206 476L42 497l20 146 305-44q38 22 72.5 44.5t60 45.5 40.5 46.5 15 46.5q0 26-25.5 47T452 850q-36 0-68.5-10T324 818t-49.5-22.5T235 785q-10 0-22 5t-21 25l-53 101q69 57 158.5 90t183.5 33z"/><glyph unicode="Ӽ" horiz-adv-x="1345" d="M1104 197h186l-28-226q-8-64-30-123.5t-61-106-95.5-74.5T943-361q-41 0-77.5 9.5T785-321l32 95q11 29 27 37.5t30 8.5 32-6.5 44-6.5q48 0 71 38t31 107l6 48h-96q-26 0-40.5 14T899 45L649 624q-9-17-19-32L256 45q-17-25-37.5-35T175 0H-84l558 773-326 673h235q26 0 38-7.5t20-25.5l221-498q5 10 11 20t13 21l308 454q24 36 59 36h271L832 784z"/><glyph unicode="ӽ" horiz-adv-x="1045" d="M814 177h163L953-29q-9-74-32.5-135t-61-105-88.5-68-116-24q-29 0-52 2.5t-43 8-39.5 13T480-319l27 93q8 26 26 36t32 10 32-6.5 44-6.5q48 0 71 38t31 107l6 48h-75q-25 0-39.5 13.5T612 45L454 406q-5-12-10.5-22.5T431 363L203 45q-13-17-28.5-31T135 0H-82l407 554-237 472h224q25 0 36-7t19-24l140-305q6 12 13 24t16 25l181 252q22 35 54 35h224L635 554z"/><glyph unicode="Ӿ" horiz-adv-x="1338" d="M934 650L1235 0h-233q-26 0-40.5 14T939 45L689 624q-9-17-19-32L296 45q-17-25-37.5-35T215 0H-44l469 650H125l24 191h332l-293 605h235q26 0 38-7.5t20-25.5l221-498q5 10 11 20t13 21l308 454q24 36 59 36h271L914 841h315l-24-191H934z"/><glyph unicode="ӿ" horiz-adv-x="1038" d="M917 453H718L933 0H709q-25 0-39.5 13.5T647 45L489 406q-5-12-10.5-22.5T466 363L238 45q-13-17-28.5-31T170 0H-47l333 453H69l21 171h235l-202 402h224q25 0 36-7t19-24l140-305q6 12 13 24t16 25l181 252q22 35 54 35h224L723 624h215z"/><glyph horiz-adv-x="957"/><glyph horiz-adv-x="1915"/><glyph horiz-adv-x="957"/><glyph horiz-adv-x="1915"/><glyph horiz-adv-x="638"/><glyph horiz-adv-x="478"/><glyph horiz-adv-x="319"/><glyph horiz-adv-x="319"/><glyph horiz-adv-x="239"/><glyph horiz-adv-x="383"/><glyph horiz-adv-x="106"/><glyph unicode="‐" horiz-adv-x="694" d="M117 703h481l-26-199H93z"/><glyph unicode="‑" horiz-adv-x="694" d="M117 703h481l-26-199H93z"/><glyph unicode="‒" horiz-adv-x="694" d="M117 703h481l-26-199H93z"/><glyph unicode="–" horiz-adv-x="1189" d="M141 703h952l-51-199H93z"/><glyph unicode="—" horiz-adv-x="2189" d="M188 703h1905l-103-199H93z"/><glyph horiz-adv-x="383"/><glyph horiz-adv-x="478"/><glyph unicode="◼" horiz-adv-x="1025" d="M0 1025h1025V0H0v1025z"/><glyph horiz-adv-x="490" d="M416 1026L293 0H50l123 1026h243z"/><glyph horiz-adv-x="736" d="M442 1861q18 0 31.5-1t23.5-5.5 18-12.5 17-22l169-271H537q-27 0-41.5 3.5T465 1573l-261 288h238z"/><glyph horiz-adv-x="736" d="M851 1462l-257-261q-19-20-36-27.5t-43-7.5H379l158 243q17 26 37 39.5t57 13.5h220z"/><glyph horiz-adv-x="736" d="M978 1861l-330-286q-21-18-37.5-22t-42.5-4H404l223 271q11 14 21 22.5t21.5 12.5 25 5 31.5 1h252z"/><glyph horiz-adv-x="736" d="M491 1665q0-28-11-52.5t-30.5-43-45-29T351 1530q-27 0-51.5 10.5t-43.5 29-30 43-11 52.5 11 53.5 30 44.5 43.5 30 51.5 11q28 0 53.5-11t45-30 30.5-44.5 11-53.5zm399 0q0-28-11-52.5t-29.5-43-44-29T751 1530q-28 0-53 10.5t-43.5 29-29.5 43-11 52.5 11 53.5 29.5 44.5 43.5 30 53 11q29 0 54.5-11t44-30 29.5-44.5 11-53.5z"/><glyph horiz-adv-x="736" d="M247 1372h551l-18-158H230z"/><glyph horiz-adv-x="736" d="M285 1712h552l-16-142H268z"/><glyph horiz-adv-x="736" d="M654 1462l-212-261q-17-20-35.5-27.5T362 1166h-93l144 243q16 26 36.5 39.5T507 1462h147zm321 0l-261-261q-20-20-36.5-27.5T635 1166H527l192 243q19 26 37.5 39.5T812 1462h163z"/><glyph horiz-adv-x="736" d="M700 1824l-217-239q-20-17-36-26.5t-42-9.5H297l153 222q17 25 41.5 39t61.5 14h147zm366 0l-265-239q-21-18-40.5-27t-45.5-9H593l194 222q21 24 46.5 38.5T896 1824h170z"/><glyph horiz-adv-x="736" d="M513 1286q34 0 58 8t39.5 26.5 25 49.5 14.5 76h134q24 0 33-21.5t6-47.5q-6-51-32-92.5t-68.5-70-99.5-44-125-15.5-121.5 15.5-89.5 44-53 70-11 92.5q3 26 17.5 47.5T278 1446h135q-5-45-3-76t13.5-49.5 33-26.5 56.5-8z"/><glyph horiz-adv-x="736" d="M554 1655q35 0 58.5 7t39.5 24.5 25 47.5 14 76h133q24 0 33.5-22t6.5-48q-6-51-32-90t-68-65-99-39.5-124-13.5q-68 0-122 13.5t-90.5 39.5-53 65-10.5 90q2 26 16 48t38 22h134q-5-46-2.5-76t14-47.5T498 1662t56-7z"/><glyph horiz-adv-x="736" d="M600 1824q37 0 58.5-14t33.5-39l101-222H686q-26 0-40.5 9.5T614 1585l-162 239h148zm-343 0q36 0 58.5-14.5T355 1771l143-222H375q-26 0-43.5 9t-34.5 27L86 1824h171z"/><glyph horiz-adv-x="1099" d="M1072 1350q-2-22-12.5-46t-37.5-48L634 900q89-8 159-39t118.5-79.5 74-111T1011 538q0-131-48.5-234T833 130.5 646.5 23 428-14q-123 0-234.5 49T-14 191L93 304q15 16 26.5 18t19.5 2q14 0 25-4.5t32-24.5q13-16 37.5-32.5t56.5-30 71-22 83-8.5q76 0 132.5 25.5t93 68.5 54.5 99 18 117q0 43-16.5 80t-51 64.5-89 43T456 715H298l14 111q2 20 12.5 40.5T358 907l354 331H154l25 207h905z"/><glyph horiz-adv-x="993" d="M245 396q-6-50 1-93.5t27-76 54.5-51.5 83.5-19q102 0 165.5 64.5T666 396H245zM99 879q88 85 194.5 123.5T509 1041q89 0 164.5-30.5t130-89.5T889 776t31-197q0-126-37.5-234.5T776.5 156 612 30.5 399-15q-82 0-149.5 26.5t-116 77-75 123.5T32 377q0 54 5 86.5t14.5 50T75 536t31 5h578q1 8 1 16.5V574q0 142-57.5 212T469 856q-54 0-95-13.5T301 813t-56.5-29.5T198 770q-29 0-40 22z"/><glyph horiz-adv-x="828" d="M767 948q-3-22-7.5-38.5t-12-30.5-18-27-24.5-28L400 482q80-11 139-40t98-72 58-99 19-120q0-103-34-196T580-208.5t-163-112T194-362Q80-362-4-325.5T-139-235l64 89q12 17 27.5 26t36.5 9q22 0 41.5-11.5t43.5-26 56-26 81-11.5q63 0 112.5 22t84 62.5 52.5 99T478 128q0 44-11.5 80.5t-37.5 63-67 41.5-100 15H104l6 51q2 16 4 25.5t6 17.5 11.5 18 20.5 26l315 376H51l23 183h702z"/><glyph horiz-adv-x="736" d="M932 1372q-2-14-4.5-24t-6.5-22l-79-202q-6-15-16-22t-20.5-7-19 7.5T776 1124l-19 127H577l-50-127q-6-15-16-22t-20.5-7-19 7.5T461 1124l-19 127H260l-50-127q-6-15-16.5-22t-20.5-7-18.5 7.5T144 1124l-30 201q-1 11-1.5 22t1.5 25h818z"/><glyph horiz-adv-x="736" d="M496 1292q0-28-11-52.5t-30.5-42.5-45-28.5T355 1158q-27 0-51.5 10.5t-43 28.5-29.5 42.5-11 52.5q0 29 11 54.5t29.5 44.5 43 30 51.5 11q29 0 54.5-11t45-30 30.5-44.5 11-54.5zm320 0q0-28-11-52.5t-30-42.5-44.5-28.5T677 1158t-53 10.5-43.5 28.5-29.5 42.5-11 52.5q0 29 11 54.5t29.5 44.5 43.5 30 53 11 53.5-11 44.5-30 30-44.5 11-54.5z"/><glyph horiz-adv-x="736" d="M458 1292q0-28-11-52.5t-30.5-42.5-45-28.5T318 1158q-27 0-51.5 10.5T223 1197t-30 42.5-11 52.5q0 29 11 54.5t30 44.5 43.5 30 51.5 11q28 0 53.5-11t45-30 30.5-44.5 11-54.5zm384 0q0-28-11-52.5t-29.5-42.5-44-28.5T704 1158q-29 0-53.5 10.5T607 1197t-29.5 42.5T567 1292q0 29 10.5 54.5T607 1391t43.5 30 53.5 11q28 0 53.5-11t44-30 29.5-44.5 11-54.5z"/></font>
</defs>
</svg>
